<?xml version="1.0" encoding="utf-8"?>
<!-- Generator: Adobe Illustrator 20.1.0, SVG Export Plug-In . SVG Version: 6.00 Build 0)  -->
<svg version="1.1" id="Layer_1" xmlns="http://www.w3.org/2000/svg" xmlns:xlink="http://www.w3.org/1999/xlink" x="0px" y="0px"
	 viewBox="0 0 32 32" style="enable-background:new 0 0 32 32;" xml:space="preserve">
<style type="text/css">
	.st0{fill:#FFFFFF;}
</style>
<g transform="matrix( 1.15960693359375, 0, 0, 1.15960693359375, -140.6,-451.4) ">
	<g>
		<g id="Layer0_0_MEMBER_0_MEMBER_0_FILL">
			<path class="st0" d="M136.1,403c0-0.3-0.1-0.5-0.3-0.6c-0.2-0.2-0.4-0.3-0.7-0.3c-0.2,0-0.4,0.1-0.6,0.3
				c-0.2,0.2-0.3,0.4-0.3,0.6s0.1,0.4,0.3,0.6s0.4,0.3,0.6,0.3c0.2,0,0.5-0.1,0.7-0.3C136,403.4,136.1,403.2,136.1,403 M133.8,394.7
				c0.3-0.1,0.6-0.2,0.8-0.2c0.4,0,0.6,0.1,0.8,0.3c0.2,0.2,0.3,0.5,0.3,0.8c0,0.5-0.2,1-0.6,1.7l-0.9,1.5c-0.1,0.3-0.1,0.6-0.1,0.9
				c0,0.4,0.1,0.7,0.2,0.9c0.1,0.2,0.3,0.4,0.8,0.6l-0.1-0.4c0-0.4,0.3-1.1,1-2.1c0.5-0.8,0.9-1.4,1.1-2c0.1-0.4,0.2-0.8,0.2-1.3
				c0-0.6-0.2-1.1-0.6-1.6c-0.5-0.4-1.1-0.6-1.8-0.6L133.8,394.7z"/>
		</g>
	</g>
</g>
<g transform="matrix( 1.15960693359375, 0, 0, 1.15960693359375, -140.6,-451.4) ">
	<g>
		<g id="Layer0_0_MEMBER_1_MEMBER_0_FILL">
			<path class="st0" d="M134.5,402.3c-0.2,0.2-0.3,0.4-0.3,0.6s0.1,0.4,0.3,0.6s0.4,0.3,0.6,0.3c0.2,0,0.4-0.1,0.7-0.3
				c0.2-0.2,0.3-0.4,0.3-0.6c0-0.3-0.1-0.5-0.3-0.6c-0.2-0.2-0.4-0.3-0.7-0.3C134.9,402,134.7,402.1,134.5,402.3 M132.6,399.3
				c-0.2-1-0.4-1.7-0.6-2.1c-0.2-0.4-0.4-0.8-0.7-1.1c-0.4-0.4-0.9-0.6-1.6-0.6c-0.6,0-1.2,0.3-1.8,0.8l0.5,1.9
				c0.1-0.3,0.2-0.6,0.4-0.8c0.2-0.2,0.4-0.3,0.8-0.4c0.3,0,0.5,0.1,0.8,0.4s0.5,0.8,0.8,1.6l0.4,1.6c0.1,0.3,0.3,0.5,0.5,0.8
				s0.5,0.4,0.8,0.4c0.3,0.1,0.6,0,0.9-0.1l-0.3-0.1C133.1,401.3,132.8,400.5,132.6,399.3z"/>
		</g>
	</g>
</g>
<g transform="matrix( 1.15960693359375, 0, 0, 1.15960693359375, -140.6,-451.4) ">
	<g>
		<g id="Layer0_0_MEMBER_2_MEMBER_0_FILL">
			<path class="st0" d="M133.2,403.1l-0.3,0.1c-0.5,0-1.2-0.3-2.1-1c-0.8-0.6-1.4-0.9-1.9-1.1c-0.4-0.2-0.8-0.3-1.3-0.3
				c-0.6,0-1.2,0.2-1.6,0.6s-0.6,1-0.7,1.9l1.6,1c-0.2-0.3-0.3-0.6-0.3-0.9s0.1-0.6,0.3-0.8c0.2-0.2,0.4-0.3,0.7-0.3
				c0.5,0,1.1,0.2,1.7,0.6c0.8,0.5,1.3,0.8,1.5,0.9c0.3,0.1,0.7,0.2,0.9,0.2c0.3,0,0.6-0.1,0.8-0.3
				C132.9,403.7,133.1,403.5,133.2,403.1 M134.5,402.3c-0.2,0.2-0.3,0.4-0.3,0.6s0.1,0.4,0.3,0.6s0.5,0.3,0.7,0.3s0.4-0.1,0.6-0.3
				c0.2-0.2,0.3-0.4,0.3-0.6c0-0.3-0.1-0.5-0.3-0.6c-0.1-0.2-0.4-0.3-0.7-0.3C134.9,402,134.7,402.1,134.5,402.3z"/>
		</g>
	</g>
</g>
<g transform="matrix( 1.15960693359375, 0, 0, 1.15960693359375, -140.6,-451.4) ">
	<g>
		<g id="Layer0_0_MEMBER_3_MEMBER_0_FILL">
			<path class="st0" d="M133.9,404.4c0,0.1-0.1,0.1-0.2,0.3c-0.3,0.3-1.1,0.6-2.2,0.8c-1.1,0.2-1.8,0.4-2.2,0.6s-0.8,0.5-1.1,0.8
				c-0.4,0.4-0.7,0.9-0.7,1.6c0,0.6,0.3,1.2,0.9,1.8l1.9-0.5c-0.3-0.1-0.6-0.2-0.8-0.4c-0.2-0.3-0.4-0.5-0.4-0.8s0.1-0.5,0.4-0.8
				c0.3-0.3,0.9-0.5,1.6-0.8l1.6-0.4c0.2-0.1,0.5-0.3,0.8-0.6c0.3-0.2,0.4-0.5,0.5-0.8C134.1,405.1,134.1,404.8,133.9,404.4
				 M134.5,402.3c-0.2,0.2-0.3,0.4-0.3,0.6s0.1,0.4,0.3,0.6s0.4,0.3,0.6,0.3c0.3,0,0.5-0.1,0.7-0.3c0.2-0.2,0.3-0.4,0.3-0.6
				s-0.1-0.4-0.3-0.6s-0.4-0.3-0.7-0.3C134.9,402,134.7,402.1,134.5,402.3z"/>
		</g>
	</g>
</g>
<g transform="matrix( 1.15960693359375, 0, 0, 1.15960693359375, -140.6,-451.4) ">
	<g>
		<g id="Layer0_0_MEMBER_4_MEMBER_0_FILL">
			<path class="st0" d="M135.3,404.9v0.3c0,0.4-0.3,1.1-1,2.1c-0.6,1-1,1.6-1.1,1.9c-0.2,0.5-0.3,0.9-0.3,1.3c0,0.6,0.2,1.1,0.6,1.5
				c0.4,0.4,1,0.6,1.9,0.7l1-1.6c-0.4,0.2-0.7,0.3-0.9,0.3c-0.3,0-0.6-0.1-0.8-0.3s-0.3-0.5-0.3-0.8c0-0.4,0.2-0.9,0.6-1.7l0.9-1.5
				c0.1-0.3,0.2-0.6,0.2-1c0-0.3-0.1-0.6-0.3-0.8C135.9,405.2,135.7,405,135.3,404.9 M134.2,402.9c0,0.3,0.1,0.5,0.3,0.7
				s0.4,0.3,0.6,0.3c0.2,0,0.4-0.1,0.7-0.3c0.2-0.2,0.3-0.4,0.3-0.6s-0.1-0.5-0.3-0.7s-0.4-0.3-0.7-0.3c-0.2,0-0.4,0.1-0.6,0.3
				C134.3,402.5,134.2,402.7,134.2,402.9z"/>
		</g>
	</g>
</g>
<g transform="matrix( 1.15960693359375, 0, 0, 1.15960693359375, -140.6,-451.4) ">
	<g>
		<g id="Layer0_0_MEMBER_5_MEMBER_0_FILL">
			<path class="st0" d="M134.5,403.6c0.2,0.2,0.4,0.3,0.6,0.3c0.2,0,0.4-0.1,0.7-0.3c0.2-0.2,0.3-0.4,0.3-0.6s-0.1-0.5-0.3-0.6
				c-0.2-0.2-0.4-0.3-0.7-0.3c-0.2,0-0.4,0.1-0.6,0.3c-0.2,0.2-0.3,0.4-0.3,0.6S134.4,403.5,134.5,403.6 M142.4,409.7l-0.4-1.9
				c-0.2,0.4-0.3,0.7-0.4,0.8c-0.2,0.2-0.5,0.4-0.8,0.4s-0.5-0.1-0.7-0.3c-0.3-0.3-0.6-0.9-0.8-1.6l-0.5-1.6
				c-0.1-0.2-0.2-0.5-0.5-0.8c-0.2-0.2-0.5-0.4-0.8-0.4c-0.3-0.1-0.6,0-0.9,0.1l0.3,0.2c0.3,0.3,0.5,1,0.8,2.2
				c0.2,1.1,0.4,1.8,0.6,2.2c0.2,0.5,0.5,0.8,0.7,1.1c0.4,0.4,0.9,0.6,1.5,0.6C141.3,410.5,141.9,410.2,142.4,409.7z"/>
		</g>
	</g>
</g>
<g transform="matrix( 1.15960693359375, 0, 0, 1.15960693359375, -140.6,-451.4) ">
	<g>
		<g id="Layer0_0_MEMBER_6_MEMBER_0_FILL">
			<path class="st0" d="M135.1,403.9c0.2,0,0.5-0.1,0.7-0.3c0.2-0.2,0.3-0.5,0.3-0.7s-0.1-0.4-0.3-0.6c-0.1-0.2-0.4-0.3-0.7-0.3
				c-0.2,0-0.4,0.1-0.6,0.3c-0.2,0.2-0.3,0.5-0.3,0.6c0,0.3,0.1,0.5,0.3,0.6C134.7,403.8,134.9,404,135.1,403.9 M143.4,401.6
				c0.2,0.3,0.3,0.6,0.3,0.9c0,0.4-0.1,0.6-0.3,0.8c-0.1,0.2-0.4,0.3-0.8,0.3c-0.5,0-1-0.2-1.7-0.6l-1.5-0.9
				c-0.2-0.1-0.5-0.1-0.9-0.1s-0.7,0.1-0.9,0.2s-0.4,0.4-0.5,0.8l0.3-0.1c0.5,0,1.2,0.3,2.2,1c0.9,0.6,1.5,0.9,1.9,1.1
				s0.8,0.3,1.3,0.3c0.6,0,1.1-0.2,1.6-0.6c0.4-0.5,0.7-1.1,0.7-1.9L143.4,401.6z"/>
		</g>
	</g>
</g>
<g transform="matrix( 1.15960693359375, 0, 0, 1.15960693359375, -140.6,-451.4) ">
	<g>
		<g id="Layer0_0_MEMBER_7_MEMBER_0_FILL">
			<path class="st0" d="M135.8,403.6c0.2-0.2,0.3-0.5,0.3-0.6s-0.1-0.4-0.3-0.6s-0.4-0.3-0.7-0.3c-0.2,0-0.5,0.1-0.7,0.3
				c-0.2,0.2-0.3,0.5-0.3,0.6s0.1,0.4,0.3,0.6s0.5,0.3,0.7,0.3C135.5,403.9,135.7,403.8,135.8,403.6 M142,399.1
				c0.4-0.4,0.6-1,0.6-1.6s-0.3-1.2-0.8-1.8l-1.9,0.5l0.8,0.4c0.2,0.3,0.3,0.5,0.3,0.8s-0.1,0.5-0.3,0.7c-0.4,0.4-0.9,0.6-1.7,0.8
				l-1.6,0.4c-0.2,0.1-0.5,0.3-0.8,0.6c-0.3,0.3-0.5,0.5-0.5,0.8s0,0.6,0.1,0.9l0.2-0.3c0.3-0.3,1-0.6,2.2-0.8
				c1.1-0.2,1.8-0.4,2.1-0.6C141.5,399.5,141.8,399.3,142,399.1z"/>
		</g>
	</g>
</g>
<g transform="matrix( 1.15960693359375, 0, 0, 1.15960693359375, -140.6,-451.4) ">
	<g>
		<g id="Layer0_0_MEMBER_8_FILL">
			<path class="st0" d="M136.1,403c0-0.3-0.1-0.5-0.3-0.7s-0.4-0.3-0.7-0.3s-0.5,0.1-0.6,0.3c-0.2,0.2-0.3,0.4-0.3,0.7
				s0.1,0.5,0.3,0.7s0.4,0.3,0.6,0.3c0.3,0,0.5-0.1,0.7-0.3C136,403.5,136.1,403.3,136.1,403z"/>
		</g>
	</g>
</g>
</svg>
