
<svg xmlns="http://www.w3.org/2000/svg" version="1.1" xmlns:xlink="http://www.w3.org/1999/xlink" preserveAspectRatio="none" x="0px" y="0px" width="45px" height="45px" viewBox="0 0 45 45">
<defs>
<g id="Layer0_0_FILL">
<path fill="#FFFFFF" stroke="none" d="
M 36.45 14.8
L 8.95 14.8 8.95 33.9 36.45 33.9 36.45 14.8
M 27.5 19.85
Q 29.25 21.5701171875 29.25 24.05 29.246484375 26.510546875 27.5 28.25
L 27.5 28.25 27.45 28.25
Q 25.69375 29.94375 23.2 29.95 20.6873046875 29.946875 18.95 28.25 17.1447265625 26.524609375 17.15 24.05 17.153515625 21.5861328125 18.95 19.9
L 18.95 19.85
Q 20.70390625 18.1572265625 23.2 18.15 25.7076171875 18.1478515625 27.5 19.85
M 23.2 20.15
Q 21.5140625 20.14296875 20.35 21.3
L 20.35 21.3 20.3 21.3
Q 19.146484375 22.43125 19.15 24.05 19.155078125 25.675390625 20.35 26.8 21.5126953125 27.9529296875 23.2 27.95 24.887890625 27.9560546875 26.1 26.85
L 26.1 26.8
Q 27.253515625 25.6716796875 27.25 24.05 27.2498046875 22.4296875 26.1 21.3 24.8921875 20.151953125 23.2 20.15
M 34.55 10.05
L 27.45 10.05 27.45 12.95 34.55 12.95 34.55 10.05 Z"/>
</g>
</defs>

<g transform="matrix( 1, 0, 0, 1, 0,0) ">
<use xlink:href="#Layer0_0_FILL"/>
</g>
</svg>
