<?xml version="1.0" encoding="utf-8"?>
<!-- Generator: Adobe Illustrator 20.1.0, SVG Export Plug-In . SVG Version: 6.00 Build 0)  -->
<svg version="1.1" id="Layer_1" xmlns="http://www.w3.org/2000/svg" xmlns:xlink="http://www.w3.org/1999/xlink" x="0px" y="0px"
	 viewBox="0 0 45 45" style="enable-background:new 0 0 45 45;" xml:space="preserve">
<style type="text/css">
	.st0{fill:#5B5B5B;}
</style>
<g transform="matrix( 1, 0, 0, 1, 0,0) ">
	<g>
		<g id="Layer0_0_FILL">
			<path class="st0" d="M36.5,14.8H8.9v19.1h27.5V14.8 M27.5,19.8c1.2,1.1,1.8,2.5,1.8,4.2c0,1.6-0.6,3-1.8,4.2l0,0h0
				c-1.2,1.1-2.6,1.7-4.3,1.7c-1.7,0-3.1-0.6-4.3-1.7c-1.2-1.2-1.8-2.6-1.8-4.2c0-1.6,0.6-3,1.8-4.1v0c1.2-1.1,2.6-1.7,4.3-1.7
				C24.9,18.1,26.3,18.7,27.5,19.8 M23.2,20.1c-1.1,0-2.1,0.4-2.9,1.1l0,0h-0.1c-0.8,0.8-1.2,1.7-1.1,2.8c0,1.1,0.4,2,1.2,2.8
				c0.8,0.8,1.7,1.2,2.9,1.2c1.1,0,2.1-0.4,2.9-1.1v-0.1c0.8-0.8,1.2-1.7,1.1-2.8c0-1.1-0.4-2-1.1-2.8
				C25.3,20.5,24.3,20.2,23.2,20.1 M34.5,10h-7.1v2.9h7.1V10z"/>
		</g>
	</g>
</g>
</svg>
