
<svg xmlns="http://www.w3.org/2000/svg" version="1.1" xmlns:xlink="http://www.w3.org/1999/xlink" preserveAspectRatio="none" x="0px" y="0px" width="125px" height="80px" viewBox="0 0 125 80">
<defs>
<g id="Layer0_0_FILL">
<path fill="#FFFFFF" stroke="none" d="
M 64.6 128.25
L 64.6 125 64.6 122.45 59.6 125.35 64.6 128.25
M 58.15 129.3
Q 57.2 128.85 55.85 128.85 54.55 128.85 53.5 129.15 52.45 129.45 51.85 129.8
L 52.45 132
Q 52.9 131.75 53.6 131.5 54.35 131.25 55.15 131.2 56.1 131.2 56.6 131.6 57.05 131.95 57.05 132.55 57.05 133.1 56.7 133.4 56.35 133.75 55.8 133.9 55.3 134 54.75 134.05
L 53.6 134.05 53.6 136.2 54.85 136.2
Q 55.5 136.2 56.1 136.4 56.65 136.6 57.05 137 57.4 137.4 57.4 138 57.4 138.75 56.8 139.25 56.25 139.7 55.05 139.75 54.1 139.7 53.3 139.45 52.5 139.2 52.05 138.95
L 51.45 141.2
Q 52 141.55 53 141.85 54 142.1 55.25 142.1 56.9 142.1 58.1 141.6 59.25 141.1 59.9 140.2 60.55 139.3 60.55 138.2 60.55 137.35 60.15 136.7 59.8 136.05 59.15 135.6 58.55 135.2 57.75 135.05
L 57.75 135
Q 58.95 134.6 59.5 133.85 60.1 133.05 60.1 132.05 60.1 131.15 59.6 130.45 59.1 129.7 58.15 129.3
M 57.6 107.1
L 55.1 107.1 51.7 108.7 52.15 110.95 54.65 109.75 54.65 119.95 57.6 119.95 57.6 107.1
M 62.8 42.1
L 59.2 42.1 59.2 58.9 62.8 58.9 62.8 42.1
M 67.6 47.55
Q 66.55 48.05 65.95 48.9 65.4 49.75 65.35 50.85 65.35 51.9 66.1 52.8 66.9 53.7 68.65 54.35 69.65 54.65 70 54.95 70.4 55.2 70.35 55.65 70.4 56.1 70 56.35 69.65 56.6 68.8 56.6 68.3 56.6 67.7 56.5 67.1 56.35 66.6 56.15 66.05 55.95 65.7 55.75
L 65.1 58.3
Q 65.75 58.7 66.7 58.9 67.7 59.1 68.8 59.15 70.5 59.1 71.6 58.65 72.7 58.15 73.3 57.3 73.85 56.5 73.85 55.4 73.85 54.1 73.1 53.25 72.35 52.4 70.7 51.8 69.65 51.45 69.25 51.15 68.8 50.9 68.8 50.5 68.8 50.05 69.2 49.8 69.55 49.55 70.2 49.55 70.95 49.55 71.65 49.75 72.3 50 72.7 50.2
L 73.35 47.7
Q 72.8 47.45 71.95 47.25 71.1 47.1 70.05 47.05 68.65 47.1 67.6 47.55
M 48.5 47.4
Q 47.4 47.7 46.75 48.1
L 47.45 50.4
Q 48 50.05 48.85 49.8 49.7 49.55 50.6 49.55 51.5 49.55 51.95 49.75 52.4 50 52.6 50.35 52.75 50.7 52.75 51
L 52.75 51.15
Q 50.7 51.15 49.15 51.65 47.6 52.1 46.8 53.1 45.95 54.1 45.95 55.6 45.95 56.55 46.4 57.35 46.8 58.15 47.65 58.65 48.5 59.15 49.65 59.15 50.7 59.15 51.55 58.8 52.4 58.45 53 57.75
L 53.05 57.75 53.3 58.9 56.5 58.9
Q 56.45 58.4 56.4 57.65 56.35 56.9 56.35 56.1
L 56.35 52.05
Q 56.35 50.65 55.9 49.55 55.4 48.45 54.3 47.75 53.2 47.1 51.25 47.05 49.65 47.1 48.5 47.4
M 52.85 53.45
L 52.85 54.7
Q 52.85 54.85 52.85 55 52.8 55.15 52.8 55.3 52.6 55.85 52.1 56.25 51.6 56.6 50.9 56.6 50.3 56.6 49.9 56.3 49.5 55.95 49.5 55.25 49.5 54.55 49.95 54.15 50.4 53.75 51.15 53.6 51.9 53.4 52.85 53.45
M 44.8 41.9
Q 44.3 41.8 43.7 41.8 42.9 41.8 42.05 42.1 41.2 42.35 40.5 43 39.75 43.7 39.4 44.75 39.05 45.8 39.05 46.85
L 39.05 47.3 37.55 47.3 37.55 49.95 39.05 49.95 39.05 58.9 42.65 58.9 42.65 49.95 45 49.95 45 47.3 42.65 47.3 42.65 46.75
Q 42.65 45.85 43.05 45.25 43.45 44.7 44.35 44.65 44.7 44.65 45 44.7 45.25 44.75 45.5 44.85
L 45.65 42.05
Q 45.25 41.95 44.8 41.9
M 84.2 47.95
Q 83.05 47.1 81.2 47.05 79.7 47.1 78.6 47.6 77.45 48.15 76.75 49.05 76.05 49.95 75.7 51.05 75.35 52.15 75.35 53.25 75.35 56 76.95 57.55 78.55 59.1 81.5 59.15 82.7 59.15 83.75 58.95 84.8 58.75 85.7 58.45
L 85.25 56
Q 84.5 56.2 83.75 56.35 82.95 56.45 82.05 56.45 81.2 56.45 80.5 56.2 79.75 56 79.3 55.5 78.85 55 78.75 54.25
L 86.25 54.25
Q 86.25 54.05 86.3 53.7 86.35 53.3 86.35 52.85 86.35 51.4 85.85 50.05 85.3 48.75 84.2 47.95
M 82.25 49.9
Q 82.7 50.25 82.85 50.8 83 51.35 83 51.8
L 78.75 51.8
Q 78.8 51.3 79.05 50.75 79.25 50.2 79.75 49.85 80.2 49.45 80.95 49.45 81.8 49.5 82.25 49.9
M 50.25 21.9
Q 50.3 22.65 50.3 23.55 50.35 24.45 50.35 25.75
L 50.35 33.5 53.95 33.5 53.95 27.6
Q 53.95 27.4 53.95 27.2 54 27 54 26.8 54.2 26 54.85 25.5 55.45 25 56.5 25 56.8 25 57 25.05 57.25 25.05 57.45 25.1
L 57.45 21.7
Q 57.25 21.7 57.1 21.7 56.95 21.65 56.7 21.65 56.1 21.65 55.5 21.9 54.9 22.15 54.4 22.7 53.9 23.2 53.55 24.05
L 53.45 24.05 53.35 21.9 50.25 21.9
M 42.15 21.9
L 40.6 21.9 40.6 24.55 42.15 24.55 42.15 29.3
Q 42.15 30.55 42.4 31.35 42.65 32.25 43.15 32.75 43.55 33.2 44.25 33.45 44.95 33.7 45.85 33.75 46.6 33.75 47.2 33.65 47.85 33.55 48.2 33.4
L 48.15 30.7
Q 47.95 30.75 47.7 30.75 47.45 30.8 47.1 30.8 46.3 30.8 45.95 30.3 45.65 29.8 45.65 28.75
L 45.65 24.55 48.25 24.55 48.25 21.9 45.65 21.9 45.65 18.6 42.15 19.4 42.15 21.9
M 70.15 21.9
L 66.55 21.9 66.55 28.8
Q 66.55 29 66.55 29.2 66.5 29.45 66.45 29.6 66.25 30.05 65.8 30.4 65.35 30.8 64.65 30.85 63.7 30.85 63.25 30.1 62.8 29.4 62.8 28.15
L 62.8 21.9 59.2 21.9 59.2 28.7
Q 59.2 30.5 59.75 31.6 60.25 32.7 61.2 33.25 62.1 33.75 63.25 33.75 64.3 33.75 65.05 33.4 65.75 33.1 66.2 32.65 66.7 32.25 66.9 31.85
L 67 31.85 67.15 33.5 70.25 33.5
Q 70.25 32.75 70.2 31.85 70.15 30.9 70.15 29.8
L 70.15 21.9
M 82.8 33.05
L 82.35 30.6
Q 81.6 30.8 80.85 30.95 80.05 31.05 79.15 31.05 78.3 31.05 77.6 30.8 76.85 30.6 76.4 30.1 75.95 29.6 75.85 28.85
L 83.35 28.85
Q 83.35 28.65 83.4 28.3 83.45 27.9 83.45 27.45 83.45 26 82.95 24.65 82.4 23.35 81.3 22.55 80.15 21.7 78.3 21.65 76.8 21.7 75.7 22.2 74.55 22.75 73.85 23.65 73.15 24.55 72.8 25.65 72.45 26.75 72.45 27.85 72.45 30.6 74.05 32.15 75.65 33.7 78.6 33.75 79.8 33.75 80.85 33.55 81.9 33.35 82.8 33.05
M 78.05 24.05
Q 78.9 24.1 79.35 24.5 79.8 24.85 79.95 25.4 80.1 25.95 80.1 26.4
L 75.85 26.4
Q 75.9 25.9 76.15 25.35 76.35 24.8 76.85 24.45 77.3 24.05 78.05 24.05
M 69.35 -50.65
Q 67.5 -50.6 66.1 -49.85 64.7 -49.15 63.95 -47.75 63.2 -46.4 63.2 -44.5 63.2 -42.65 63.95 -41.3 64.75 -39.95 66.1 -39.25 67.45 -38.55 69.15 -38.55 70.75 -38.55 72.15 -39.2 73.5 -39.85 74.4 -41.25 75.25 -42.6 75.3 -44.7 75.3 -46.45 74.55 -47.8 73.8 -49.15 72.5 -49.85 71.15 -50.6 69.35 -50.65
M 71.35 -46.25
Q 71.55 -45.5 71.55 -44.6 71.55 -43 70.95 -42.1 70.35 -41.15 69.25 -41.15 68.5 -41.15 67.95 -41.6 67.45 -42.05 67.15 -42.8 66.9 -43.6 66.9 -44.6 66.9 -45.5 67.15 -46.25 67.35 -47.05 67.9 -47.55 68.4 -48.05 69.25 -48.1 70.1 -48.05 70.6 -47.55 71.1 -47.05 71.35 -46.25
M 56.8 -50.65
Q 55.85 -50.6 55.1 -50.3 54.4 -50 53.95 -49.6 53.45 -49.15 53.2 -48.8
L 53.15 -48.8 53 -50.4 49.85 -50.4
Q 49.9 -49.6 49.9 -48.7 49.95 -47.75 49.95 -46.7
L 49.95 -38.8 53.55 -38.8 53.55 -45.5
Q 53.55 -45.75 53.6 -45.95 53.6 -46.2 53.7 -46.35 53.85 -46.9 54.3 -47.3 54.75 -47.7 55.5 -47.7 56.5 -47.7 56.9 -47.05 57.35 -46.35 57.35 -45.2
L 57.35 -38.8 60.95 -38.8 60.95 -45.65
Q 60.95 -47.35 60.4 -48.45 59.85 -49.55 58.95 -50.1 58 -50.65 56.8 -50.65
M 49 -75.05
L 45 -75.05 49.25 -64.45
Q 49.35 -64.25 49.35 -64.1 49.4 -63.95 49.4 -63.85 49.4 -63.7 49.35 -63.6 49.3 -63.45 49.2 -63.3 48.95 -62.85 48.55 -62.5 48.15 -62.1 47.7 -61.9 47.3 -61.65 46.9 -61.45 46.5 -61.3 46.15 -61.25
L 46.9 -58.2
Q 47.6 -58.3 48.5 -58.65 49.45 -59 50.4 -59.8 51.05 -60.35 51.65 -61.25 52.3 -62.15 52.95 -63.65 53.65 -65.1 54.45 -67.4
L 57.15 -75.05 53.3 -75.05 51.9 -69.35
Q 51.75 -68.85 51.65 -68.25 51.5 -67.65 51.35 -67.2
L 51.3 -67.2
Q 51.2 -67.65 51.05 -68.25 50.85 -68.8 50.75 -69.35
L 49 -75.05
M 75.15 -75.3
Q 73.75 -75.25 72.7 -74.8 71.65 -74.3 71.05 -73.45 70.5 -72.6 70.45 -71.5 70.45 -70.45 71.2 -69.55 72 -68.65 73.75 -68 74.75 -67.7 75.1 -67.4 75.5 -67.15 75.45 -66.7 75.5 -66.25 75.1 -66 74.75 -65.75 73.9 -65.75 73.4 -65.75 72.8 -65.85 72.2 -66 71.7 -66.2 71.15 -66.4 70.8 -66.6
L 70.2 -64.05
Q 70.85 -63.65 71.8 -63.45 72.8 -63.25 73.9 -63.2 75.6 -63.25 76.7 -63.7 77.8 -64.2 78.4 -65.05 78.95 -65.85 78.95 -66.95 78.95 -68.25 78.2 -69.1 77.45 -69.95 75.8 -70.55 74.75 -70.9 74.35 -71.2 73.9 -71.45 73.9 -71.85 73.9 -72.3 74.3 -72.55 74.65 -72.8 75.3 -72.8 76.05 -72.8 76.75 -72.6 77.4 -72.35 77.8 -72.15
L 78.45 -74.65
Q 77.9 -74.9 77.05 -75.1 76.2 -75.25 75.15 -75.3
M 63.6 -75.3
Q 62.1 -75.25 61 -74.75 59.85 -74.2 59.15 -73.3 58.45 -72.4 58.1 -71.3 57.75 -70.2 57.75 -69.1 57.75 -66.35 59.35 -64.8 60.95 -63.25 63.9 -63.2 65.1 -63.2 66.15 -63.4 67.2 -63.6 68.1 -63.9
L 67.65 -66.35
Q 66.9 -66.15 66.15 -66 65.35 -65.9 64.45 -65.9 63.6 -65.9 62.9 -66.15 62.15 -66.35 61.7 -66.85 61.25 -67.35 61.15 -68.1
L 68.65 -68.1
Q 68.65 -68.3 68.7 -68.65 68.75 -69.05 68.75 -69.5 68.75 -70.95 68.25 -72.3 67.7 -73.6 66.6 -74.4 65.45 -75.25 63.6 -75.3
M 64.65 -72.45
Q 65.1 -72.1 65.25 -71.55 65.4 -71 65.4 -70.55
L 61.15 -70.55
Q 61.2 -71.05 61.45 -71.6 61.65 -72.15 62.15 -72.5 62.6 -72.9 63.35 -72.9 64.2 -72.85 64.65 -72.45
M 44.05 -163.1
L 44.1 -163.1 44.1 -147.4 48.55 -147.4 48.55 -167.2 44.75 -167.2 39.5 -164.75 40.25 -161.3 44.05 -163.1
M 56.65 -162.2
Q 57.4 -162.8 58.5 -163.3 59.55 -163.8 60.85 -163.8 62.55 -163.8 63.35 -163 64.15 -162.15 64.15 -160.95 64.1 -159.8 63.4 -158.6 62.65 -157.35 61.25 -155.9 59.8 -154.45 57.65 -152.5
L 55.1 -150.2 55.1 -147.4 69.15 -147.4 69.15 -151.2 61.65 -151.2 61.65 -151.25 63.5 -152.8
Q 64.95 -154.05 66.1 -155.4 67.3 -156.75 68.05 -158.2 68.75 -159.65 68.75 -161.3 68.75 -163.15 67.95 -164.55 67.15 -165.95 65.6 -166.7 64.05 -167.55 61.8 -167.55 59.8 -167.5 58.1 -166.95 56.45 -166.35 55.3 -165.5
L 56.65 -162.2
M 84.4 -165.1
Q 83.65 -166.2 82.2 -166.85 80.75 -167.55 78.6 -167.55 76.65 -167.5 75.05 -167.1 73.4 -166.65 72.45 -166.05
L 73.4 -162.7
Q 74.05 -163.1 75.2 -163.5 76.3 -163.85 77.55 -163.9 79.05 -163.85 79.75 -163.3 80.5 -162.7 80.5 -161.8 80.5 -161 79.95 -160.5 79.4 -160 78.55 -159.75 77.75 -159.55 76.95 -159.55
L 75.15 -159.55 75.15 -156.2 77.05 -156.2
Q 78.1 -156.2 79 -155.9 79.9 -155.6 80.45 -155 81 -154.35 81.05 -153.4 81.05 -152.25 80.1 -151.5 79.2 -150.75 77.4 -150.75 75.95 -150.75 74.7 -151.2 73.45 -151.6 72.8 -151.95
L 71.85 -148.45
Q 72.75 -147.9 74.25 -147.5 75.8 -147.1 77.75 -147.05 80.25 -147.1 82.05 -147.85 83.9 -148.65 84.85 -150 85.85 -151.35 85.85 -153.15 85.85 -154.45 85.25 -155.45 84.7 -156.45 83.7 -157.1 82.75 -157.75 81.55 -157.95
L 81.55 -158
Q 83.4 -158.65 84.3 -159.85 85.2 -161 85.2 -162.6 85.2 -163.95 84.4 -165.1
M 79.35 -258.65
Q 77.45 -257.6 76.5 -255.8 75.5 -254 75.5 -251.8 75.55 -249.45 76.5 -247.75 77.45 -246.05 79.25 -245.15 81 -244.2 83.4 -244.2 84.75 -244.2 85.85 -244.4 86.95 -244.6 87.55 -244.85
L 87 -248.3
Q 86.5 -248.1 85.85 -247.95 85.15 -247.85 84.35 -247.85 83.2 -247.85 82.3 -248.3 81.35 -248.8 80.8 -249.7 80.3 -250.65 80.25 -252 80.25 -253.85 81.35 -255 82.4 -256.15 84.25 -256.15 85.15 -256.15 85.8 -256.05 86.45 -255.9 86.85 -255.7
L 87.6 -259.15
Q 86.85 -259.45 85.9 -259.6 85 -259.75 84.05 -259.75 81.25 -259.7 79.35 -258.65
M 58 -266.15
L 58 -248.95
Q 58 -247.65 58 -246.45 57.95 -245.25 57.9 -244.5
L 61.85 -244.5 62 -246.6 62.05 -246.6
Q 62.9 -245.25 64.05 -244.7 65.25 -244.15 66.55 -244.15 68.3 -244.15 69.85 -245.05 71.4 -245.95 72.4 -247.75 73.35 -249.55 73.4 -252.2 73.4 -254.5 72.6 -256.2 71.8 -257.9 70.45 -258.8 69.05 -259.7 67.25 -259.75 65.7 -259.7 64.55 -259.15 63.4 -258.6 62.7 -257.6
L 62.65 -257.6 62.65 -266.15 58 -266.15
M 67.25 -255.6
Q 67.95 -255.05 68.35 -254.1 68.65 -253.2 68.65 -252 68.65 -250 67.8 -248.9 66.95 -247.85 65.45 -247.85 64.45 -247.85 63.7 -248.45 63 -249.05 62.75 -250.05 62.65 -250.4 62.65 -250.85
L 62.65 -253.05
Q 62.65 -253.25 62.65 -253.45 62.7 -253.7 62.75 -253.9 63 -254.9 63.75 -255.5 64.5 -256.15 65.45 -256.15 66.55 -256.15 67.25 -255.6
M 49.2 -265.05
L 43.1 -265.05 36.8 -244.5 41.65 -244.5 43.1 -249.8 49 -249.8 50.6 -244.5 55.6 -244.5 49.2 -265.05
M 45.95 -261.6
L 46 -261.6
Q 46.25 -260.65 46.5 -259.6 46.8 -258.55 47.05 -257.6
L 48.35 -253.25 43.8 -253.25 45 -257.6
Q 45.25 -258.55 45.5 -259.6 45.7 -260.65 45.95 -261.6
M 39.25 -343.5
Q 38.3 -343.5 37.5 -343.4 36.65 -343.35 35.95 -343.25
L 35.95 -332.65
Q 36.4 -332.6 37.1 -332.55 37.8 -332.5 38.75 -332.5 40.35 -332.5 41.6 -332.85 42.85 -333.2 43.7 -333.9 44.5 -334.55 45 -335.65 45.5 -336.7 45.5 -338.25 45.5 -339.7 45 -340.7 44.55 -341.7 43.7 -342.3 42.9 -342.9 41.85 -343.2 40.8 -343.5 39.25 -343.5
M 38.4 -334.45
L 38.4 -341.5
Q 38.55 -341.55 38.85 -341.55 39.1 -341.6 39.5 -341.6 41.1 -341.6 42 -340.75 42.9 -339.85 42.9 -338.2 42.9 -336.9 42.45 -336.05 42 -335.2 41.2 -334.8 40.35 -334.4 39.25 -334.4 39.05 -334.4 38.8 -334.4 38.55 -334.4 38.4 -334.45
M 66.65 -341.4
L 66.65 -343.4 59.95 -343.4 59.95 -332.6 66.85 -332.6 66.85 -334.6 62.4 -334.6 62.4 -337.15 66.4 -337.15 66.4 -339.15 62.4 -339.15 62.4 -341.4 66.65 -341.4
M 59.45 -365.05
Q 58.95 -365.05 58.6 -364.95
L 58.6 -354.35
Q 59 -354.3 59.7 -354.25 60.35 -354.2 61.25 -354.2 62.85 -354.2 63.9 -354.45 64.9 -354.7 65.5 -355.15 66 -355.6 66.3 -356.15 66.6 -356.75 66.65 -357.45 66.6 -358.5 66 -359.2 65.4 -359.85 64.45 -360.1
L 64.45 -360.15
Q 65.4 -360.5 65.85 -361.1 66.25 -361.7 66.25 -362.45 66.25 -363.2 65.9 -363.75 65.55 -364.25 64.95 -364.55 64.4 -364.9 63.65 -365.05 62.85 -365.2 61.75 -365.2 61.15 -365.2 60.55 -365.15 59.95 -365.1 59.45 -365.05
M 63.35 -363.1
Q 63.8 -362.75 63.8 -362.15 63.8 -361.55 63.3 -361.2 62.8 -360.85 61.85 -360.8
L 61.05 -360.8 61.05 -363.35
Q 61.2 -363.35 61.45 -363.4 61.7 -363.4 62.05 -363.4 62.9 -363.4 63.35 -363.1
M 61.85 -359.1
Q 62.5 -359.1 63 -358.95 63.45 -358.75 63.75 -358.45 64.05 -358.1 64.05 -357.55 64.05 -357 63.75 -356.65 63.5 -356.3 63 -356.15 62.55 -356 61.95 -356 61.65 -356 61.45 -356 61.2 -356 61.05 -356.05
L 61.05 -359.1 61.85 -359.1
M 42.7 -354.3
L 45.35 -354.3 42 -365.1 38.8 -365.1 35.45 -354.3 38 -354.3 38.8 -357.1 41.85 -357.1 42.7 -354.3
M 40.85 -361.2
L 41.5 -358.9 39.15 -358.9 39.75 -361.2
Q 39.9 -361.65 40.05 -362.25 40.15 -362.8 40.25 -363.3
L 40.3 -363.3
Q 40.4 -362.8 40.55 -362.25 40.7 -361.7 40.85 -361.2
M 88.45 -343.4
L 81.85 -343.4 81.85 -332.6 84.3 -332.6 84.3 -336.95 88.2 -336.95 88.2 -338.95 84.3 -338.95 84.3 -341.4 88.45 -341.4 88.45 -343.4
M 84.1 -362.85
Q 84.9 -363.25 85.9 -363.25 86.55 -363.25 87.05 -363.15 87.55 -363 87.95 -362.85
L 88.45 -364.8
Q 88.1 -364.95 87.4 -365.1 86.7 -365.25 85.75 -365.3 84.1 -365.25 82.8 -364.6 81.45 -363.95 80.65 -362.65 79.9 -361.4 79.85 -359.55 79.85 -358 80.5 -356.75 81.15 -355.55 82.4 -354.85 83.65 -354.15 85.5 -354.15 86.5 -354.15 87.25 -354.3 87.95 -354.45 88.3 -354.6
L 87.95 -356.5
Q 87.55 -356.35 87 -356.25 86.45 -356.15 85.9 -356.15 84.25 -356.2 83.35 -357.1 82.45 -358.05 82.45 -359.7 82.45 -360.9 82.9 -361.7 83.35 -362.45 84.1 -362.85
M 85.85 -477.75
Q 85.15 -478.1 84.15 -478.1 83.25 -478.1 82.5 -477.9 81.7 -477.65 81.3 -477.4
L 81.75 -475.8
Q 82.05 -476 82.55 -476.2 83.1 -476.35 83.65 -476.4 84.35 -476.35 84.7 -476.1 85.05 -475.85 85.05 -475.4 85.05 -475 84.8 -474.8 84.5 -474.55 84.15 -474.45 83.75 -474.35 83.4 -474.35
L 82.55 -474.35 82.55 -472.8 83.45 -472.8
Q 83.9 -472.8 84.35 -472.65 84.75 -472.5 85 -472.2 85.3 -471.9 85.3 -471.45 85.3 -470.9 84.85 -470.55 84.45 -470.25 83.6 -470.2 82.9 -470.25 82.35 -470.4 81.75 -470.6 81.45 -470.8
L 81 -469.15
Q 81.4 -468.9 82.15 -468.7 82.85 -468.5 83.75 -468.5 84.95 -468.5 85.8 -468.85 86.65 -469.25 87.1 -469.85 87.55 -470.5 87.55 -471.35 87.55 -471.95 87.3 -472.4 87 -472.9 86.55 -473.2 86.1 -473.5 85.55 -473.6
L 85.55 -473.65
Q 86.4 -473.95 86.8 -474.5 87.25 -475.05 87.25 -475.8 87.25 -476.4 86.9 -476.95 86.55 -477.45 85.85 -477.75
M 47.4 -437.9
L 45.6 -437.9 43.15 -436.75 43.5 -435.1 45.3 -435.95 45.3 -428.6 47.4 -428.6 47.4 -437.9
M 37.85 -438.25
L 35.65 -438.25 35.65 -428.6 41.65 -428.6 41.65 -430.45 37.85 -430.45 37.85 -438.25
M 64.05 -458.35
Q 63.1 -458.35 62.3 -458.05 61.55 -457.8 61 -457.4
L 61.65 -455.85
Q 62 -456.1 62.5 -456.35 63 -456.6 63.6 -456.6 64.4 -456.6 64.8 -456.2 65.15 -455.8 65.15 -455.25 65.15 -454.7 64.8 -454.15 64.45 -453.6 63.8 -452.9 63.1 -452.2 62.1 -451.3
L 60.9 -450.2 60.9 -448.9 67.5 -448.9 67.5 -450.7 64 -450.7 64.85 -451.45
Q 65.5 -452.05 66.1 -452.65 66.65 -453.3 66.95 -453.95 67.3 -454.65 67.3 -455.45 67.3 -456.3 66.95 -456.95 66.55 -457.6 65.85 -457.95 65.1 -458.35 64.05 -458.35
M 54 -448.9
L 60 -448.9 60 -450.75 56.2 -450.75 56.2 -458.55 54 -458.55 54 -448.9
M 76.35 -478.3
L 74.15 -478.3 74.15 -468.65 80.15 -468.65 80.15 -470.5 76.35 -470.5 76.35 -478.3 Z"/>
</g>

<path id="Layer0_0_1_STROKES" stroke="#FFFFFF" stroke-width="3" stroke-linejoin="miter" stroke-linecap="butt" stroke-miterlimit="4" fill="none" d="
M 90.95 -463.65
L 73.2 -463.65 73.2 -443.9 52.4 -443.9 52.4 -424.1 34.25 -424.1"/>

<path id="Layer0_0_2_STROKES" stroke="#FFFFFF" stroke-width="1" stroke-linejoin="miter" stroke-linecap="butt" stroke-miterlimit="4" fill="none" d="
M 62.15 160.7
L 62.15 158.85 63.75 157.35
Q 66.05 155.3 66.95 154.2 67.95 153 68.05 151.95 68.05 150.05 65.9 150.05 64.5 150.05 63.15 151.1
L 62.3 148.95
Q 64 147.6 66.5 147.6 68.65 147.6 69.85 148.75 71 149.8 71 151.65 71 154.15 67.55 157.2
L 66.45 158.2 71.2 158.2 71.2 160.7 62.15 160.7 Z"/>

<path id="Layer0_0_3_STROKES" stroke="#FFFFFF" stroke-width="1" stroke-linejoin="miter" stroke-linecap="butt" stroke-miterlimit="4" fill="none" d="
M 93.6 -350.85
L 75.3 -350.85 75.3 -369.15 93.6 -369.15 93.6 -350.85 Z
M 93.6 -328.4
L 75.3 -328.4 75.3 -346.75 93.6 -346.75 93.6 -328.4 Z
M 49.85 -350.85
L 31.6 -350.85 31.6 -369.15 49.85 -369.15 49.85 -350.85 Z
M 71.8 -350.85
L 53.5 -350.85 53.5 -369.15 71.8 -369.15 71.8 -350.85 Z
M 71.8 -328.4
L 53.5 -328.4 53.5 -346.75 71.8 -346.75 71.8 -328.4 Z
M 49.85 -328.4
L 31.6 -328.4 31.6 -346.75 49.85 -346.75 49.85 -328.4 Z
M 94.65 -232.85
L 30.35 -232.85 30.35 -272.85 94.65 -272.85 94.65 -232.85 Z
M 94.65 -135.75
L 30.4 -135.75 30.4 -175.7 94.65 -175.7 94.65 -135.75 Z
M 94.55 -31.65
L 30.25 -31.65 30.25 -83.2 94.55 -83.2 94.55 -31.65 Z
M 93.55 65.45
L 29.25 65.45 29.25 13.95 93.55 13.95 93.55 65.45 Z
M 78 151.65
Q 80.65 149.55 82.2 146.6 83.8 143.4 83.8 139.9 83.8 133.75 79.45 129.4 75.05 125 68.85 125
L 64.6 125 64.6 128.25 59.6 125.35 64.6 122.45 64.6 125
M 94.5 164.3
L 29.2 164.3 29.2 103.55 94.5 103.55 94.5 164.3 Z"/>
</defs>

<g transform="matrix( 1, 0, 0, 1, 0,0) ">
<use xlink:href="#Layer0_0_FILL"/>

<use xlink:href="#Layer0_0_1_STROKES"/>

<use xlink:href="#Layer0_0_2_STROKES"/>

<use xlink:href="#Layer0_0_3_STROKES"/>
</g>

<g transform="matrix( 1.58001708984375, 0, 0, 1.5796661376953125, -44.3,-355.25) ">
<clipPath id="Mask_Mask_1">
<rect x="66.9" y="-2" width="10.2" height="16.05" fill="#FFFFFF" stroke="none"/>
</clipPath>

<text clip-path="url(#Mask_Mask_1)" writing-mode="lr"/>
</g>
</svg>
