
<svg xmlns="http://www.w3.org/2000/svg" version="1.1" xmlns:xlink="http://www.w3.org/1999/xlink" preserveAspectRatio="none" x="0px" y="0px" width="125px" height="80px" viewBox="0 0 125 80">
<defs>
<g id="Layer0_0_FILL">
<path fill="#FFFFFF" stroke="none" d="
M 58.15 325.3
Q 57.2 324.85 55.85 324.85 54.55 324.85 53.5 325.15 52.45 325.45 51.85 325.8
L 52.45 328
Q 52.9 327.75 53.6 327.5 54.35 327.25 55.15 327.2 56.1 327.2 56.6 327.6 57.05 327.95 57.05 328.55 57.05 329.1 56.7 329.4 56.35 329.75 55.8 329.9 55.3 330 54.75 330.05
L 53.6 330.05 53.6 332.2 54.85 332.2
Q 55.5 332.2 56.1 332.4 56.65 332.6 57.05 333 57.4 333.4 57.4 334 57.4 334.75 56.8 335.25 56.25 335.7 55.05 335.75 54.1 335.7 53.3 335.45 52.5 335.2 52.05 334.95
L 51.45 337.2
Q 52 337.55 53 337.85 54 338.1 55.25 338.1 56.9 338.1 58.1 337.6 59.25 337.1 59.9 336.2 60.55 335.3 60.55 334.2 60.55 333.35 60.15 332.7 59.8 332.05 59.15 331.6 58.55 331.2 57.75 331.05
L 57.75 331
Q 58.95 330.6 59.5 329.85 60.1 329.05 60.1 328.05 60.1 327.15 59.6 326.45 59.1 325.7 58.15 325.3
M 57.6 303.1
L 55.1 303.1 51.7 304.7 52.15 306.95 54.65 305.75 54.65 315.95 57.6 315.95 57.6 303.1
M 64.6 321
L 64.6 318.45 59.6 321.35 64.6 324.25 64.6 321
M 62.8 239.7
L 59.2 239.7 59.2 256.5 62.8 256.5 62.8 239.7
M 69.2 247.4
Q 69.55 247.15 70.2 247.15 70.95 247.15 71.65 247.35 72.3 247.6 72.7 247.8
L 73.35 245.3
Q 72.8 245.05 71.95 244.85 71.1 244.7 70.05 244.65 68.65 244.7 67.6 245.15 66.55 245.65 65.95 246.5 65.4 247.35 65.35 248.45 65.35 249.5 66.1 250.4 66.9 251.3 68.65 251.95 69.65 252.25 70 252.55 70.4 252.8 70.35 253.25 70.4 253.7 70 253.95 69.65 254.2 68.8 254.2 68.3 254.2 67.7 254.1 67.1 253.95 66.6 253.75 66.05 253.55 65.7 253.35
L 65.1 255.9
Q 65.75 256.3 66.7 256.5 67.7 256.7 68.8 256.75 70.5 256.7 71.6 256.25 72.7 255.75 73.3 254.9 73.85 254.1 73.85 253 73.85 251.7 73.1 250.85 72.35 250 70.7 249.4 69.65 249.05 69.25 248.75 68.8 248.5 68.8 248.1 68.8 247.65 69.2 247.4
M 48.5 245
Q 47.4 245.3 46.75 245.7
L 47.45 248
Q 48 247.65 48.85 247.4 49.7 247.15 50.6 247.15 51.5 247.15 51.95 247.35 52.4 247.6 52.6 247.95 52.75 248.3 52.75 248.6
L 52.75 248.75
Q 50.7 248.75 49.15 249.25 47.6 249.7 46.8 250.7 45.95 251.7 45.95 253.2 45.95 254.15 46.4 254.95 46.8 255.75 47.65 256.25 48.5 256.75 49.65 256.75 50.7 256.75 51.55 256.4 52.4 256.05 53 255.35
L 53.05 255.35 53.3 256.5 56.5 256.5
Q 56.45 256 56.4 255.25 56.35 254.5 56.35 253.7
L 56.35 249.65
Q 56.35 248.25 55.9 247.15 55.4 246.05 54.3 245.35 53.2 244.7 51.25 244.65 49.65 244.7 48.5 245
M 52.85 252.6
Q 52.8 252.75 52.8 252.9 52.6 253.45 52.1 253.85 51.6 254.2 50.9 254.2 50.3 254.2 49.9 253.9 49.5 253.55 49.5 252.85 49.5 252.15 49.95 251.75 50.4 251.35 51.15 251.2 51.9 251 52.85 251.05
L 52.85 252.3
Q 52.85 252.45 52.85 252.6
M 44.8 239.5
Q 44.3 239.4 43.7 239.4 42.9 239.4 42.05 239.7 41.2 239.95 40.5 240.6 39.75 241.3 39.4 242.35 39.05 243.4 39.05 244.45
L 39.05 244.9 37.55 244.9 37.55 247.55 39.05 247.55 39.05 256.5 42.65 256.5 42.65 247.55 45 247.55 45 244.9 42.65 244.9 42.65 244.35
Q 42.65 243.45 43.05 242.85 43.45 242.3 44.35 242.25 44.7 242.25 45 242.3 45.25 242.35 45.5 242.45
L 45.65 239.65
Q 45.25 239.55 44.8 239.5
M 50.25 217.1
Q 50.3 217.85 50.3 218.75 50.35 219.65 50.35 220.95
L 50.35 228.7 53.95 228.7 53.95 222.8
Q 53.95 222.6 53.95 222.4 54 222.2 54 222 54.2 221.2 54.85 220.7 55.45 220.2 56.5 220.2 56.8 220.2 57 220.25 57.25 220.25 57.45 220.3
L 57.45 216.9
Q 57.25 216.9 57.1 216.9 56.95 216.85 56.7 216.85 56.1 216.85 55.5 217.1 54.9 217.35 54.4 217.9 53.9 218.4 53.55 219.25
L 53.45 219.25 53.35 217.1 50.25 217.1
M 42.15 217.1
L 40.6 217.1 40.6 219.75 42.15 219.75 42.15 224.5
Q 42.15 225.75 42.4 226.55 42.65 227.45 43.15 227.95 43.55 228.4 44.25 228.65 44.95 228.9 45.85 228.95 46.6 228.95 47.2 228.85 47.85 228.75 48.2 228.6
L 48.15 225.9
Q 47.95 225.95 47.7 225.95 47.45 226 47.1 226 46.3 226 45.95 225.5 45.65 225 45.65 223.95
L 45.65 219.75 48.25 219.75 48.25 217.1 45.65 217.1 45.65 213.8 42.15 214.6 42.15 217.1
M 70.15 217.1
L 66.55 217.1 66.55 224
Q 66.55 224.2 66.55 224.4 66.5 224.65 66.45 224.8 66.25 225.25 65.8 225.6 65.35 226 64.65 226.05 63.7 226.05 63.25 225.3 62.8 224.6 62.8 223.35
L 62.8 217.1 59.2 217.1 59.2 223.9
Q 59.2 225.7 59.75 226.8 60.25 227.9 61.2 228.45 62.1 228.95 63.25 228.95 64.3 228.95 65.05 228.6 65.75 228.3 66.2 227.85 66.7 227.45 66.9 227.05
L 67 227.05 67.15 228.7 70.25 228.7
Q 70.25 227.95 70.2 227.05 70.15 226.1 70.15 225
L 70.15 217.1
M 82.8 228.25
L 82.35 225.8
Q 81.6 226 80.85 226.15 80.05 226.25 79.15 226.25 78.3 226.25 77.6 226 76.85 225.8 76.4 225.3 75.95 224.8 75.85 224.05
L 83.35 224.05
Q 83.35 223.85 83.4 223.5 83.45 223.1 83.45 222.65 83.45 221.2 82.95 219.85 82.4 218.55 81.3 217.75 80.15 216.9 78.3 216.85 76.8 216.9 75.7 217.4 74.55 217.95 73.85 218.85 73.15 219.75 72.8 220.85 72.45 221.95 72.45 223.05 72.45 225.8 74.05 227.35 75.65 228.9 78.6 228.95 79.8 228.95 80.85 228.75 81.9 228.55 82.8 228.25
M 79.95 220.6
Q 80.1 221.15 80.1 221.6
L 75.85 221.6
Q 75.9 221.1 76.15 220.55 76.35 220 76.85 219.65 77.3 219.25 78.05 219.25 78.9 219.3 79.35 219.7 79.8 220.05 79.95 220.6
M 84.2 245.55
Q 83.05 244.7 81.2 244.65 79.7 244.7 78.6 245.2 77.45 245.75 76.75 246.65 76.05 247.55 75.7 248.65 75.35 249.75 75.35 250.85 75.35 253.6 76.95 255.15 78.55 256.7 81.5 256.75 82.7 256.75 83.75 256.55 84.8 256.35 85.7 256.05
L 85.25 253.6
Q 84.5 253.8 83.75 253.95 82.95 254.05 82.05 254.05 81.2 254.05 80.5 253.8 79.75 253.6 79.3 253.1 78.85 252.6 78.75 251.85
L 86.25 251.85
Q 86.25 251.65 86.3 251.3 86.35 250.9 86.35 250.45 86.35 249 85.85 247.65 85.3 246.35 84.2 245.55
M 82.25 247.5
Q 82.7 247.85 82.85 248.4 83 248.95 83 249.4
L 78.75 249.4
Q 78.8 248.9 79.05 248.35 79.25 247.8 79.75 247.45 80.2 247.05 80.95 247.05 81.8 247.1 82.25 247.5
M 66.1 146.15
Q 64.7 146.85 63.95 148.25 63.2 149.6 63.2 151.5 63.2 153.35 63.95 154.7 64.75 156.05 66.1 156.75 67.45 157.45 69.15 157.45 70.75 157.45 72.15 156.8 73.5 156.15 74.4 154.75 75.25 153.4 75.3 151.3 75.3 149.55 74.55 148.2 73.8 146.85 72.5 146.15 71.15 145.4 69.35 145.35 67.5 145.4 66.1 146.15
M 67.9 148.45
Q 68.4 147.95 69.25 147.9 70.1 147.95 70.6 148.45 71.1 148.95 71.35 149.75 71.55 150.5 71.55 151.4 71.55 153 70.95 153.9 70.35 154.85 69.25 154.85 68.5 154.85 67.95 154.4 67.45 153.95 67.15 153.2 66.9 152.4 66.9 151.4 66.9 150.5 67.15 149.75 67.35 148.95 67.9 148.45
M 49.85 145.6
Q 49.9 146.4 49.9 147.3 49.95 148.25 49.95 149.3
L 49.95 157.2 53.55 157.2 53.55 150.5
Q 53.55 150.25 53.6 150.05 53.6 149.8 53.7 149.65 53.85 149.1 54.3 148.7 54.75 148.3 55.5 148.3 56.5 148.3 56.9 148.95 57.35 149.65 57.35 150.8
L 57.35 157.2 60.95 157.2 60.95 150.35
Q 60.95 148.65 60.4 147.55 59.85 146.45 58.95 145.9 58 145.35 56.8 145.35 55.85 145.4 55.1 145.7 54.4 146 53.95 146.4 53.45 146.85 53.2 147.2
L 53.15 147.2 53 145.6 49.85 145.6
M 57.15 120.95
L 53.3 120.95 51.9 126.65
Q 51.75 127.15 51.65 127.75 51.5 128.35 51.35 128.8
L 51.3 128.8
Q 51.2 128.35 51.05 127.75 50.85 127.2 50.75 126.65
L 49 120.95 45 120.95 49.25 131.55
Q 49.35 131.75 49.35 131.9 49.4 132.05 49.4 132.15 49.4 132.3 49.35 132.4 49.3 132.55 49.2 132.7 48.95 133.15 48.55 133.5 48.15 133.9 47.7 134.1 47.3 134.35 46.9 134.55 46.5 134.7 46.15 134.75
L 46.9 137.8
Q 47.6 137.7 48.5 137.35 49.45 137 50.4 136.2 51.05 135.65 51.65 134.75 52.3 133.85 52.95 132.35 53.65 130.9 54.45 128.6
L 57.15 120.95
M 72.7 121.2
Q 71.65 121.7 71.05 122.55 70.5 123.4 70.45 124.5 70.45 125.55 71.2 126.45 72 127.35 73.75 128 74.75 128.3 75.1 128.6 75.5 128.85 75.45 129.3 75.5 129.75 75.1 130 74.75 130.25 73.9 130.25 73.4 130.25 72.8 130.15 72.2 130 71.7 129.8 71.15 129.6 70.8 129.4
L 70.2 131.95
Q 70.85 132.35 71.8 132.55 72.8 132.75 73.9 132.8 75.6 132.75 76.7 132.3 77.8 131.8 78.4 130.95 78.95 130.15 78.95 129.05 78.95 127.75 78.2 126.9 77.45 126.05 75.8 125.45 74.75 125.1 74.35 124.8 73.9 124.55 73.9 124.15 73.9 123.7 74.3 123.45 74.65 123.2 75.3 123.2 76.05 123.2 76.75 123.4 77.4 123.65 77.8 123.85
L 78.45 121.35
Q 77.9 121.1 77.05 120.9 76.2 120.75 75.15 120.7 73.75 120.75 72.7 121.2
M 68.25 123.7
Q 67.7 122.4 66.6 121.6 65.45 120.75 63.6 120.7 62.1 120.75 61 121.25 59.85 121.8 59.15 122.7 58.45 123.6 58.1 124.7 57.75 125.8 57.75 126.9 57.75 129.65 59.35 131.2 60.95 132.75 63.9 132.8 65.1 132.8 66.15 132.6 67.2 132.4 68.1 132.1
L 67.65 129.65
Q 66.9 129.85 66.15 130 65.35 130.1 64.45 130.1 63.6 130.1 62.9 129.85 62.15 129.65 61.7 129.15 61.25 128.65 61.15 127.9
L 68.65 127.9
Q 68.65 127.7 68.7 127.35 68.75 126.95 68.75 126.5 68.75 125.05 68.25 123.7
M 62.15 123.5
Q 62.6 123.1 63.35 123.1 64.2 123.15 64.65 123.55 65.1 123.9 65.25 124.45 65.4 125 65.4 125.45
L 61.15 125.45
Q 61.2 124.95 61.45 124.4 61.65 123.85 62.15 123.5
M 48.55 28.8
L 44.75 28.8 39.5 31.25 40.25 34.7 44.05 32.9 44.1 32.9 44.1 48.6 48.55 48.6 48.55 28.8
M 58.1 29.05
Q 56.45 29.65 55.3 30.5
L 56.65 33.8
Q 57.4 33.2 58.5 32.7 59.55 32.2 60.85 32.2 62.55 32.2 63.35 33 64.15 33.85 64.15 35.05 64.1 36.2 63.4 37.4 62.65 38.65 61.25 40.1 59.8 41.55 57.65 43.5
L 55.1 45.8 55.1 48.6 69.15 48.6 69.15 44.8 61.65 44.8 61.65 44.75 63.5 43.2
Q 64.95 41.95 66.1 40.6 67.3 39.25 68.05 37.8 68.75 36.35 68.75 34.7 68.75 32.85 67.95 31.45 67.15 30.05 65.6 29.3 64.05 28.45 61.8 28.45 59.8 28.5 58.1 29.05
M 84.4 30.9
Q 83.65 29.8 82.2 29.15 80.75 28.45 78.6 28.45 76.65 28.5 75.05 28.9 73.4 29.35 72.45 29.95
L 73.4 33.3
Q 74.05 32.9 75.2 32.5 76.3 32.15 77.55 32.1 79.05 32.15 79.75 32.7 80.5 33.3 80.5 34.2 80.5 35 79.95 35.5 79.4 36 78.55 36.25 77.75 36.45 76.95 36.45
L 75.15 36.45 75.15 39.8 77.05 39.8
Q 78.1 39.8 79 40.1 79.9 40.4 80.45 41 81 41.65 81.05 42.6 81.05 43.75 80.1 44.5 79.2 45.25 77.4 45.25 75.95 45.25 74.7 44.8 73.45 44.4 72.8 44.05
L 71.85 47.55
Q 72.75 48.1 74.25 48.5 75.8 48.9 77.75 48.95 80.25 48.9 82.05 48.15 83.9 47.35 84.85 46 85.85 44.65 85.85 42.85 85.85 41.55 85.25 40.55 84.7 39.55 83.7 38.9 82.75 38.25 81.55 38.05
L 81.55 38
Q 83.4 37.35 84.3 36.15 85.2 35 85.2 33.4 85.2 32.05 84.4 30.9
M 76.5 -59.8
Q 75.5 -58 75.5 -55.8 75.55 -53.45 76.5 -51.75 77.45 -50.05 79.25 -49.15 81 -48.2 83.4 -48.2 84.75 -48.2 85.85 -48.4 86.95 -48.6 87.55 -48.85
L 87 -52.3
Q 86.5 -52.1 85.85 -51.95 85.15 -51.85 84.35 -51.85 83.2 -51.85 82.3 -52.3 81.35 -52.8 80.8 -53.7 80.3 -54.65 80.25 -56 80.25 -57.85 81.35 -59 82.4 -60.15 84.25 -60.15 85.15 -60.15 85.8 -60.05 86.45 -59.9 86.85 -59.7
L 87.6 -63.15
Q 86.85 -63.45 85.9 -63.6 85 -63.75 84.05 -63.75 81.25 -63.7 79.35 -62.65 77.45 -61.6 76.5 -59.8
M 58 -52.95
Q 58 -51.65 58 -50.45 57.95 -49.25 57.9 -48.5
L 61.85 -48.5 62 -50.6 62.05 -50.6
Q 62.9 -49.25 64.05 -48.7 65.25 -48.15 66.55 -48.15 68.3 -48.15 69.85 -49.05 71.4 -49.95 72.4 -51.75 73.35 -53.55 73.4 -56.2 73.4 -58.5 72.6 -60.2 71.8 -61.9 70.45 -62.8 69.05 -63.7 67.25 -63.75 65.7 -63.7 64.55 -63.15 63.4 -62.6 62.7 -61.6
L 62.65 -61.6 62.65 -70.15 58 -70.15 58 -52.95
M 68.35 -58.1
Q 68.65 -57.2 68.65 -56 68.65 -54 67.8 -52.9 66.95 -51.85 65.45 -51.85 64.45 -51.85 63.7 -52.45 63 -53.05 62.75 -54.05 62.65 -54.4 62.65 -54.85
L 62.65 -57.05
Q 62.65 -57.25 62.65 -57.45 62.7 -57.7 62.75 -57.9 63 -58.9 63.75 -59.5 64.5 -60.15 65.45 -60.15 66.55 -60.15 67.25 -59.6 67.95 -59.05 68.35 -58.1
M 49.2 -69.05
L 43.1 -69.05 36.8 -48.5 41.65 -48.5 43.1 -53.8 49 -53.8 50.6 -48.5 55.6 -48.5 49.2 -69.05
M 45.5 -63.6
Q 45.7 -64.65 45.95 -65.6
L 46 -65.6
Q 46.25 -64.65 46.5 -63.6 46.8 -62.55 47.05 -61.6
L 48.35 -57.25 43.8 -57.25 45 -61.6
Q 45.25 -62.55 45.5 -63.6
M 37.5 -147.4
Q 36.65 -147.35 35.95 -147.25
L 35.95 -136.65
Q 36.4 -136.6 37.1 -136.55 37.8 -136.5 38.75 -136.5 40.35 -136.5 41.6 -136.85 42.85 -137.2 43.7 -137.9 44.5 -138.55 45 -139.65 45.5 -140.7 45.5 -142.25 45.5 -143.7 45 -144.7 44.55 -145.7 43.7 -146.3 42.9 -146.9 41.85 -147.2 40.8 -147.5 39.25 -147.5 38.3 -147.5 37.5 -147.4
M 38.85 -145.55
Q 39.1 -145.6 39.5 -145.6 41.1 -145.6 42 -144.75 42.9 -143.85 42.9 -142.2 42.9 -140.9 42.45 -140.05 42 -139.2 41.2 -138.8 40.35 -138.4 39.25 -138.4 39.05 -138.4 38.8 -138.4 38.55 -138.4 38.4 -138.45
L 38.4 -145.5
Q 38.55 -145.55 38.85 -145.55
M 66.65 -145.4
L 66.65 -147.4 59.95 -147.4 59.95 -136.6 66.85 -136.6 66.85 -138.6 62.4 -138.6 62.4 -141.15 66.4 -141.15 66.4 -143.15 62.4 -143.15 62.4 -145.4 66.65 -145.4
M 42.7 -158.3
L 45.35 -158.3 42 -169.1 38.8 -169.1 35.45 -158.3 38 -158.3 38.8 -161.1 41.85 -161.1 42.7 -158.3
M 40.85 -165.2
L 41.5 -162.9 39.15 -162.9 39.75 -165.2
Q 39.9 -165.65 40.05 -166.25 40.15 -166.8 40.25 -167.3
L 40.3 -167.3
Q 40.4 -166.8 40.55 -166.25 40.7 -165.7 40.85 -165.2
M 60.55 -169.15
Q 59.95 -169.1 59.45 -169.05 58.95 -169.05 58.6 -168.95
L 58.6 -158.35
Q 59 -158.3 59.7 -158.25 60.35 -158.2 61.25 -158.2 62.85 -158.2 63.9 -158.45 64.9 -158.7 65.5 -159.15 66 -159.6 66.3 -160.15 66.6 -160.75 66.65 -161.45 66.6 -162.5 66 -163.2 65.4 -163.85 64.45 -164.1
L 64.45 -164.15
Q 65.4 -164.5 65.85 -165.1 66.25 -165.7 66.25 -166.45 66.25 -167.2 65.9 -167.75 65.55 -168.25 64.95 -168.55 64.4 -168.9 63.65 -169.05 62.85 -169.2 61.75 -169.2 61.15 -169.2 60.55 -169.15
M 62.05 -167.4
Q 62.9 -167.4 63.35 -167.1 63.8 -166.75 63.8 -166.15 63.8 -165.55 63.3 -165.2 62.8 -164.85 61.85 -164.8
L 61.05 -164.8 61.05 -167.35
Q 61.2 -167.35 61.45 -167.4 61.7 -167.4 62.05 -167.4
M 63 -162.95
Q 63.45 -162.75 63.75 -162.45 64.05 -162.1 64.05 -161.55 64.05 -161 63.75 -160.65 63.5 -160.3 63 -160.15 62.55 -160 61.95 -160 61.65 -160 61.45 -160 61.2 -160 61.05 -160.05
L 61.05 -163.1 61.85 -163.1
Q 62.5 -163.1 63 -162.95
M 88.45 -145.4
L 88.45 -147.4 81.85 -147.4 81.85 -136.6 84.3 -136.6 84.3 -140.95 88.2 -140.95 88.2 -142.95 84.3 -142.95 84.3 -145.4 88.45 -145.4
M 88.45 -168.8
Q 88.1 -168.95 87.4 -169.1 86.7 -169.25 85.75 -169.3 84.1 -169.25 82.8 -168.6 81.45 -167.95 80.65 -166.65 79.9 -165.4 79.85 -163.55 79.85 -162 80.5 -160.75 81.15 -159.55 82.4 -158.85 83.65 -158.15 85.5 -158.15 86.5 -158.15 87.25 -158.3 87.95 -158.45 88.3 -158.6
L 87.95 -160.5
Q 87.55 -160.35 87 -160.25 86.45 -160.15 85.9 -160.15 84.25 -160.2 83.35 -161.1 82.45 -162.05 82.45 -163.7 82.45 -164.9 82.9 -165.7 83.35 -166.45 84.1 -166.85 84.9 -167.25 85.9 -167.25 86.55 -167.25 87.05 -167.15 87.55 -167 87.95 -166.85
L 88.45 -168.8
M 87.25 -279.8
Q 87.25 -280.4 86.9 -280.95 86.55 -281.45 85.85 -281.75 85.15 -282.1 84.15 -282.1 83.25 -282.1 82.5 -281.9 81.7 -281.65 81.3 -281.4
L 81.75 -279.8
Q 82.05 -280 82.55 -280.2 83.1 -280.35 83.65 -280.4 84.35 -280.35 84.7 -280.1 85.05 -279.85 85.05 -279.4 85.05 -279 84.8 -278.8 84.5 -278.55 84.15 -278.45 83.75 -278.35 83.4 -278.35
L 82.55 -278.35 82.55 -276.8 83.45 -276.8
Q 83.9 -276.8 84.35 -276.65 84.75 -276.5 85 -276.2 85.3 -275.9 85.3 -275.45 85.3 -274.9 84.85 -274.55 84.45 -274.25 83.6 -274.2 82.9 -274.25 82.35 -274.4 81.75 -274.6 81.45 -274.8
L 81 -273.15
Q 81.4 -272.9 82.15 -272.7 82.85 -272.5 83.75 -272.5 84.95 -272.5 85.8 -272.85 86.65 -273.25 87.1 -273.85 87.55 -274.5 87.55 -275.35 87.55 -275.95 87.3 -276.4 87 -276.9 86.55 -277.2 86.1 -277.5 85.55 -277.6
L 85.55 -277.65
Q 86.4 -277.95 86.8 -278.5 87.25 -279.05 87.25 -279.8
M 47.4 -241.9
L 45.6 -241.9 43.15 -240.75 43.5 -239.1 45.3 -239.95 45.3 -232.6 47.4 -232.6 47.4 -241.9
M 37.85 -242.25
L 35.65 -242.25 35.65 -232.6 41.65 -232.6 41.65 -234.45 37.85 -234.45 37.85 -242.25
M 64.05 -262.35
Q 63.1 -262.35 62.3 -262.05 61.55 -261.8 61 -261.4
L 61.65 -259.85
Q 62 -260.1 62.5 -260.35 63 -260.6 63.6 -260.6 64.4 -260.6 64.8 -260.2 65.15 -259.8 65.15 -259.25 65.15 -258.7 64.8 -258.15 64.45 -257.6 63.8 -256.9 63.1 -256.2 62.1 -255.3
L 60.9 -254.2 60.9 -252.9 67.5 -252.9 67.5 -254.7 64 -254.7 64.85 -255.45
Q 65.5 -256.05 66.1 -256.65 66.65 -257.3 66.95 -257.95 67.3 -258.65 67.3 -259.45 67.3 -260.3 66.95 -260.95 66.55 -261.6 65.85 -261.95 65.1 -262.35 64.05 -262.35
M 60 -254.75
L 56.2 -254.75 56.2 -262.55 54 -262.55 54 -252.9 60 -252.9 60 -254.75
M 76.35 -282.3
L 74.15 -282.3 74.15 -272.65 80.15 -272.65 80.15 -274.5 76.35 -274.5 76.35 -282.3 Z"/>
</g>

<path id="Layer0_0_1_STROKES" stroke="#FFFFFF" stroke-width="3" stroke-linejoin="miter" stroke-linecap="butt" stroke-miterlimit="4" fill="none" d="
M 90.95 -267.65
L 73.2 -267.65 73.2 -247.9 52.4 -247.9 52.4 -228.1 34.25 -228.1"/>

<path id="Layer0_0_2_STROKES" stroke="#FFFFFF" stroke-width="1" stroke-linejoin="miter" stroke-linecap="butt" stroke-miterlimit="4" fill="none" d="
M 62.15 356.7
L 62.15 354.85 63.75 353.35
Q 66.05 351.3 66.95 350.2 67.95 349 68.05 347.95 68.05 346.05 65.9 346.05 64.5 346.05 63.15 347.1
L 62.3 344.95
Q 64 343.6 66.5 343.6 68.65 343.6 69.85 344.75 71 345.8 71 347.65 71 350.15 67.55 353.2
L 66.45 354.2 71.2 354.2 71.2 356.7 62.15 356.7 Z"/>

<path id="Layer0_0_3_STROKES" stroke="#FFFFFF" stroke-width="1" stroke-linejoin="miter" stroke-linecap="butt" stroke-miterlimit="4" fill="none" d="
M 93.6 -154.85
L 75.3 -154.85 75.3 -173.15 93.6 -173.15 93.6 -154.85 Z
M 93.6 -132.4
L 75.3 -132.4 75.3 -150.75 93.6 -150.75 93.6 -132.4 Z
M 71.8 -154.85
L 53.5 -154.85 53.5 -173.15 71.8 -173.15 71.8 -154.85 Z
M 49.85 -154.85
L 31.6 -154.85 31.6 -173.15 49.85 -173.15 49.85 -154.85 Z
M 71.8 -132.4
L 53.5 -132.4 53.5 -150.75 71.8 -150.75 71.8 -132.4 Z
M 49.85 -132.4
L 31.6 -132.4 31.6 -150.75 49.85 -150.75 49.85 -132.4 Z
M 94.65 -36.85
L 30.35 -36.85 30.35 -76.85 94.65 -76.85 94.65 -36.85 Z
M 94.65 60.25
L 30.4 60.25 30.4 20.3 94.65 20.3 94.65 60.25 Z
M 94.55 164.35
L 30.25 164.35 30.25 112.8 94.55 112.8 94.55 164.35 Z
M 93.55 261.45
L 29.25 261.45 29.25 209.95 93.55 209.95 93.55 261.45 Z
M 64.6 321
L 64.6 324.25 59.6 321.35 64.6 318.45 64.6 321 68.85 321
Q 75.05 321 79.45 325.4 83.8 329.75 83.8 335.9 83.8 339.4 82.2 342.6 80.65 345.55 78 347.65
M 94.5 360.3
L 29.2 360.3 29.2 299.55 94.5 299.55 94.5 360.3 Z"/>
</defs>

<g transform="matrix( 1, 0, 0, 1, 0,0) ">
<use xlink:href="#Layer0_0_FILL"/>

<use xlink:href="#Layer0_0_1_STROKES"/>

<use xlink:href="#Layer0_0_2_STROKES"/>

<use xlink:href="#Layer0_0_3_STROKES"/>
</g>

<g transform="matrix( 1.58001708984375, 0, 0, 1.5796661376953125, -44.3,-159.25) ">
<clipPath id="Mask_Mask_1">
<rect x="66.9" y="-2" width="10.2" height="16.05" fill="#FFFFFF" stroke="none"/>
</clipPath>

<text clip-path="url(#Mask_Mask_1)" writing-mode="lr"/>
</g>
</svg>
