
<svg xmlns="http://www.w3.org/2000/svg" version="1.1" xmlns:xlink="http://www.w3.org/1999/xlink" preserveAspectRatio="none" x="0px" y="0px" width="125px" height="80px" viewBox="0 0 125 80">
<defs>
<g id="Layer0_0_FILL">
<path fill="#FFFFFF" stroke="none" d="
M 60.1 228.85
Q 60.1 227.95 59.6 227.25 59.1 226.5 58.15 226.1 57.2 225.65 55.85 225.65 54.55 225.65 53.5 225.95 52.45 226.25 51.85 226.6
L 52.45 228.8
Q 52.9 228.55 53.6 228.3 54.35 228.05 55.15 228 56.1 228 56.6 228.4 57.05 228.75 57.05 229.35 57.05 229.9 56.7 230.2 56.35 230.55 55.8 230.7 55.3 230.8 54.75 230.85
L 53.6 230.85 53.6 233 54.85 233
Q 55.5 233 56.1 233.2 56.65 233.4 57.05 233.8 57.4 234.2 57.4 234.8 57.4 235.55 56.8 236.05 56.25 236.5 55.05 236.55 54.1 236.5 53.3 236.25 52.5 236 52.05 235.75
L 51.45 238
Q 52 238.35 53 238.65 54 238.9 55.25 238.9 56.9 238.9 58.1 238.4 59.25 237.9 59.9 237 60.55 236.1 60.55 235 60.55 234.15 60.15 233.5 59.8 232.85 59.15 232.4 58.55 232 57.75 231.85
L 57.75 231.8
Q 58.95 231.4 59.5 230.65 60.1 229.85 60.1 228.85
M 57.6 203.9
L 55.1 203.9 51.7 205.5 52.15 207.75 54.65 206.55 54.65 216.75 57.6 216.75 57.6 203.9
M 64.6 221.8
L 64.6 219.25 59.6 222.15 64.6 225.05 64.6 221.8
M 62.8 140.5
L 59.2 140.5 59.2 157.3 62.8 157.3 62.8 140.5
M 78.6 146
Q 77.45 146.55 76.75 147.45 76.05 148.35 75.7 149.45 75.35 150.55 75.35 151.65 75.35 154.4 76.95 155.95 78.55 157.5 81.5 157.55 82.7 157.55 83.75 157.35 84.8 157.15 85.7 156.85
L 85.25 154.4
Q 84.5 154.6 83.75 154.75 82.95 154.85 82.05 154.85 81.2 154.85 80.5 154.6 79.75 154.4 79.3 153.9 78.85 153.4 78.75 152.65
L 86.25 152.65
Q 86.25 152.45 86.3 152.1 86.35 151.7 86.35 151.25 86.35 149.8 85.85 148.45 85.3 147.15 84.2 146.35 83.05 145.5 81.2 145.45 79.7 145.5 78.6 146
M 79.75 148.25
Q 80.2 147.85 80.95 147.85 81.8 147.9 82.25 148.3 82.7 148.65 82.85 149.2 83 149.75 83 150.2
L 78.75 150.2
Q 78.8 149.7 79.05 149.15 79.25 148.6 79.75 148.25
M 69.2 148.2
Q 69.55 147.95 70.2 147.95 70.95 147.95 71.65 148.15 72.3 148.4 72.7 148.6
L 73.35 146.1
Q 72.8 145.85 71.95 145.65 71.1 145.5 70.05 145.45 68.65 145.5 67.6 145.95 66.55 146.45 65.95 147.3 65.4 148.15 65.35 149.25 65.35 150.3 66.1 151.2 66.9 152.1 68.65 152.75 69.65 153.05 70 153.35 70.4 153.6 70.35 154.05 70.4 154.5 70 154.75 69.65 155 68.8 155 68.3 155 67.7 154.9 67.1 154.75 66.6 154.55 66.05 154.35 65.7 154.15
L 65.1 156.7
Q 65.75 157.1 66.7 157.3 67.7 157.5 68.8 157.55 70.5 157.5 71.6 157.05 72.7 156.55 73.3 155.7 73.85 154.9 73.85 153.8 73.85 152.5 73.1 151.65 72.35 150.8 70.7 150.2 69.65 149.85 69.25 149.55 68.8 149.3 68.8 148.9 68.8 148.45 69.2 148.2
M 48.85 148.2
Q 49.7 147.95 50.6 147.95 51.5 147.95 51.95 148.15 52.4 148.4 52.6 148.75 52.75 149.1 52.75 149.4
L 52.75 149.55
Q 50.7 149.55 49.15 150.05 47.6 150.5 46.8 151.5 45.95 152.5 45.95 154 45.95 154.95 46.4 155.75 46.8 156.55 47.65 157.05 48.5 157.55 49.65 157.55 50.7 157.55 51.55 157.2 52.4 156.85 53 156.15
L 53.05 156.15 53.3 157.3 56.5 157.3
Q 56.45 156.8 56.4 156.05 56.35 155.3 56.35 154.5
L 56.35 150.45
Q 56.35 149.05 55.9 147.95 55.4 146.85 54.3 146.15 53.2 145.5 51.25 145.45 49.65 145.5 48.5 145.8 47.4 146.1 46.75 146.5
L 47.45 148.8
Q 48 148.45 48.85 148.2
M 52.8 153.7
Q 52.6 154.25 52.1 154.65 51.6 155 50.9 155 50.3 155 49.9 154.7 49.5 154.35 49.5 153.65 49.5 152.95 49.95 152.55 50.4 152.15 51.15 152 51.9 151.8 52.85 151.85
L 52.85 153.1
Q 52.85 153.25 52.85 153.4 52.8 153.55 52.8 153.7
M 44.8 140.3
Q 44.3 140.2 43.7 140.2 42.9 140.2 42.05 140.5 41.2 140.75 40.5 141.4 39.75 142.1 39.4 143.15 39.05 144.2 39.05 145.25
L 39.05 145.7 37.55 145.7 37.55 148.35 39.05 148.35 39.05 157.3 42.65 157.3 42.65 148.35 45 148.35 45 145.7 42.65 145.7 42.65 145.15
Q 42.65 144.25 43.05 143.65 43.45 143.1 44.35 143.05 44.7 143.05 45 143.1 45.25 143.15 45.5 143.25
L 45.65 140.45
Q 45.25 140.35 44.8 140.3
M 50.3 119.55
Q 50.35 120.45 50.35 121.75
L 50.35 129.5 53.95 129.5 53.95 123.6
Q 53.95 123.4 53.95 123.2 54 123 54 122.8 54.2 122 54.85 121.5 55.45 121 56.5 121 56.8 121 57 121.05 57.25 121.05 57.45 121.1
L 57.45 117.7
Q 57.25 117.7 57.1 117.7 56.95 117.65 56.7 117.65 56.1 117.65 55.5 117.9 54.9 118.15 54.4 118.7 53.9 119.2 53.55 120.05
L 53.45 120.05 53.35 117.9 50.25 117.9
Q 50.3 118.65 50.3 119.55
M 42.15 117.9
L 40.6 117.9 40.6 120.55 42.15 120.55 42.15 125.3
Q 42.15 126.55 42.4 127.35 42.65 128.25 43.15 128.75 43.55 129.2 44.25 129.45 44.95 129.7 45.85 129.75 46.6 129.75 47.2 129.65 47.85 129.55 48.2 129.4
L 48.15 126.7
Q 47.95 126.75 47.7 126.75 47.45 126.8 47.1 126.8 46.3 126.8 45.95 126.3 45.65 125.8 45.65 124.75
L 45.65 120.55 48.25 120.55 48.25 117.9 45.65 117.9 45.65 114.6 42.15 115.4 42.15 117.9
M 73.85 119.65
Q 73.15 120.55 72.8 121.65 72.45 122.75 72.45 123.85 72.45 126.6 74.05 128.15 75.65 129.7 78.6 129.75 79.8 129.75 80.85 129.55 81.9 129.35 82.8 129.05
L 82.35 126.6
Q 81.6 126.8 80.85 126.95 80.05 127.05 79.15 127.05 78.3 127.05 77.6 126.8 76.85 126.6 76.4 126.1 75.95 125.6 75.85 124.85
L 83.35 124.85
Q 83.35 124.65 83.4 124.3 83.45 123.9 83.45 123.45 83.45 122 82.95 120.65 82.4 119.35 81.3 118.55 80.15 117.7 78.3 117.65 76.8 117.7 75.7 118.2 74.55 118.75 73.85 119.65
M 76.15 121.35
Q 76.35 120.8 76.85 120.45 77.3 120.05 78.05 120.05 78.9 120.1 79.35 120.5 79.8 120.85 79.95 121.4 80.1 121.95 80.1 122.4
L 75.85 122.4
Q 75.9 121.9 76.15 121.35
M 70.15 117.9
L 66.55 117.9 66.55 124.8
Q 66.55 125 66.55 125.2 66.5 125.45 66.45 125.6 66.25 126.05 65.8 126.4 65.35 126.8 64.65 126.85 63.7 126.85 63.25 126.1 62.8 125.4 62.8 124.15
L 62.8 117.9 59.2 117.9 59.2 124.7
Q 59.2 126.5 59.75 127.6 60.25 128.7 61.2 129.25 62.1 129.75 63.25 129.75 64.3 129.75 65.05 129.4 65.75 129.1 66.2 128.65 66.7 128.25 66.9 127.85
L 67 127.85 67.15 129.5 70.25 129.5
Q 70.25 128.75 70.2 127.85 70.15 126.9 70.15 125.8
L 70.15 117.9
M 66.1 46.95
Q 64.7 47.65 63.95 49.05 63.2 50.4 63.2 52.3 63.2 54.15 63.95 55.5 64.75 56.85 66.1 57.55 67.45 58.25 69.15 58.25 70.75 58.25 72.15 57.6 73.5 56.95 74.4 55.55 75.25 54.2 75.3 52.1 75.3 50.35 74.55 49 73.8 47.65 72.5 46.95 71.15 46.2 69.35 46.15 67.5 46.2 66.1 46.95
M 67.9 49.25
Q 68.4 48.75 69.25 48.7 70.1 48.75 70.6 49.25 71.1 49.75 71.35 50.55 71.55 51.3 71.55 52.2 71.55 53.8 70.95 54.7 70.35 55.65 69.25 55.65 68.5 55.65 67.95 55.2 67.45 54.75 67.15 54 66.9 53.2 66.9 52.2 66.9 51.3 67.15 50.55 67.35 49.75 67.9 49.25
M 49.85 46.4
Q 49.9 47.2 49.9 48.1 49.95 49.05 49.95 50.1
L 49.95 58 53.55 58 53.55 51.3
Q 53.55 51.05 53.6 50.85 53.6 50.6 53.7 50.45 53.85 49.9 54.3 49.5 54.75 49.1 55.5 49.1 56.5 49.1 56.9 49.75 57.35 50.45 57.35 51.6
L 57.35 58 60.95 58 60.95 51.15
Q 60.95 49.45 60.4 48.35 59.85 47.25 58.95 46.7 58 46.15 56.8 46.15 55.85 46.2 55.1 46.5 54.4 46.8 53.95 47.2 53.45 47.65 53.2 48
L 53.15 48 53 46.4 49.85 46.4
M 57.15 21.75
L 53.3 21.75 51.9 27.45
Q 51.75 27.95 51.65 28.55 51.5 29.15 51.35 29.6
L 51.3 29.6
Q 51.2 29.15 51.05 28.55 50.85 28 50.75 27.45
L 49 21.75 45 21.75 49.25 32.35
Q 49.35 32.55 49.35 32.7 49.4 32.85 49.4 32.95 49.4 33.1 49.35 33.2 49.3 33.35 49.2 33.5 48.95 33.95 48.55 34.3 48.15 34.7 47.7 34.9 47.3 35.15 46.9 35.35 46.5 35.5 46.15 35.55
L 46.9 38.6
Q 47.6 38.5 48.5 38.15 49.45 37.8 50.4 37 51.05 36.45 51.65 35.55 52.3 34.65 52.95 33.15 53.65 31.7 54.45 29.4
L 57.15 21.75
M 77.05 21.7
Q 76.2 21.55 75.15 21.5 73.75 21.55 72.7 22 71.65 22.5 71.05 23.35 70.5 24.2 70.45 25.3 70.45 26.35 71.2 27.25 72 28.15 73.75 28.8 74.75 29.1 75.1 29.4 75.5 29.65 75.45 30.1 75.5 30.55 75.1 30.8 74.75 31.05 73.9 31.05 73.4 31.05 72.8 30.95 72.2 30.8 71.7 30.6 71.15 30.4 70.8 30.2
L 70.2 32.75
Q 70.85 33.15 71.8 33.35 72.8 33.55 73.9 33.6 75.6 33.55 76.7 33.1 77.8 32.6 78.4 31.75 78.95 30.95 78.95 29.85 78.95 28.55 78.2 27.7 77.45 26.85 75.8 26.25 74.75 25.9 74.35 25.6 73.9 25.35 73.9 24.95 73.9 24.5 74.3 24.25 74.65 24 75.3 24 76.05 24 76.75 24.2 77.4 24.45 77.8 24.65
L 78.45 22.15
Q 77.9 21.9 77.05 21.7
M 68.25 24.5
Q 67.7 23.2 66.6 22.4 65.45 21.55 63.6 21.5 62.1 21.55 61 22.05 59.85 22.6 59.15 23.5 58.45 24.4 58.1 25.5 57.75 26.6 57.75 27.7 57.75 30.45 59.35 32 60.95 33.55 63.9 33.6 65.1 33.6 66.15 33.4 67.2 33.2 68.1 32.9
L 67.65 30.45
Q 66.9 30.65 66.15 30.8 65.35 30.9 64.45 30.9 63.6 30.9 62.9 30.65 62.15 30.45 61.7 29.95 61.25 29.45 61.15 28.7
L 68.65 28.7
Q 68.65 28.5 68.7 28.15 68.75 27.75 68.75 27.3 68.75 25.85 68.25 24.5
M 62.15 24.3
Q 62.6 23.9 63.35 23.9 64.2 23.95 64.65 24.35 65.1 24.7 65.25 25.25 65.4 25.8 65.4 26.25
L 61.15 26.25
Q 61.2 25.75 61.45 25.2 61.65 24.65 62.15 24.3
M 75.05 -70.3
Q 73.4 -69.85 72.45 -69.25
L 73.4 -65.9
Q 74.05 -66.3 75.2 -66.7 76.3 -67.05 77.55 -67.1 79.05 -67.05 79.75 -66.5 80.5 -65.9 80.5 -65 80.5 -64.2 79.95 -63.7 79.4 -63.2 78.55 -62.95 77.75 -62.75 76.95 -62.75
L 75.15 -62.75 75.15 -59.4 77.05 -59.4
Q 78.1 -59.4 79 -59.1 79.9 -58.8 80.45 -58.2 81 -57.55 81.05 -56.6 81.05 -55.45 80.1 -54.7 79.2 -53.95 77.4 -53.95 75.95 -53.95 74.7 -54.4 73.45 -54.8 72.8 -55.15
L 71.85 -51.65
Q 72.75 -51.1 74.25 -50.7 75.8 -50.3 77.75 -50.25 80.25 -50.3 82.05 -51.05 83.9 -51.85 84.85 -53.2 85.85 -54.55 85.85 -56.35 85.85 -57.65 85.25 -58.65 84.7 -59.65 83.7 -60.3 82.75 -60.95 81.55 -61.15
L 81.55 -61.2
Q 83.4 -61.85 84.3 -63.05 85.2 -64.2 85.2 -65.8 85.2 -67.15 84.4 -68.3 83.65 -69.4 82.2 -70.05 80.75 -70.75 78.6 -70.75 76.65 -70.7 75.05 -70.3
M 48.55 -70.4
L 44.75 -70.4 39.5 -67.95 40.25 -64.5 44.05 -66.3 44.1 -66.3 44.1 -50.6 48.55 -50.6 48.55 -70.4
M 58.1 -70.15
Q 56.45 -69.55 55.3 -68.7
L 56.65 -65.4
Q 57.4 -66 58.5 -66.5 59.55 -67 60.85 -67 62.55 -67 63.35 -66.2 64.15 -65.35 64.15 -64.15 64.1 -63 63.4 -61.8 62.65 -60.55 61.25 -59.1 59.8 -57.65 57.65 -55.7
L 55.1 -53.4 55.1 -50.6 69.15 -50.6 69.15 -54.4 61.65 -54.4 61.65 -54.45 63.5 -56
Q 64.95 -57.25 66.1 -58.6 67.3 -59.95 68.05 -61.4 68.75 -62.85 68.75 -64.5 68.75 -66.35 67.95 -67.75 67.15 -69.15 65.6 -69.9 64.05 -70.75 61.8 -70.75 59.8 -70.7 58.1 -70.15
M 58 -152.15
Q 58 -150.85 58 -149.65 57.95 -148.45 57.9 -147.7
L 61.85 -147.7 62 -149.8 62.05 -149.8
Q 62.9 -148.45 64.05 -147.9 65.25 -147.35 66.55 -147.35 68.3 -147.35 69.85 -148.25 71.4 -149.15 72.4 -150.95 73.35 -152.75 73.4 -155.4 73.4 -157.7 72.6 -159.4 71.8 -161.1 70.45 -162 69.05 -162.9 67.25 -162.95 65.7 -162.9 64.55 -162.35 63.4 -161.8 62.7 -160.8
L 62.65 -160.8 62.65 -169.35 58 -169.35 58 -152.15
M 68.35 -157.3
Q 68.65 -156.4 68.65 -155.2 68.65 -153.2 67.8 -152.1 66.95 -151.05 65.45 -151.05 64.45 -151.05 63.7 -151.65 63 -152.25 62.75 -153.25 62.65 -153.6 62.65 -154.05
L 62.65 -156.25
Q 62.65 -156.45 62.65 -156.65 62.7 -156.9 62.75 -157.1 63 -158.1 63.75 -158.7 64.5 -159.35 65.45 -159.35 66.55 -159.35 67.25 -158.8 67.95 -158.25 68.35 -157.3
M 49.2 -168.25
L 43.1 -168.25 36.8 -147.7 41.65 -147.7 43.1 -153 49 -153 50.6 -147.7 55.6 -147.7 49.2 -168.25
M 45.5 -162.8
Q 45.7 -163.85 45.95 -164.8
L 46 -164.8
Q 46.25 -163.85 46.5 -162.8 46.8 -161.75 47.05 -160.8
L 48.35 -156.45 43.8 -156.45 45 -160.8
Q 45.25 -161.75 45.5 -162.8
M 87.6 -162.35
Q 86.85 -162.65 85.9 -162.8 85 -162.95 84.05 -162.95 81.25 -162.9 79.35 -161.85 77.45 -160.8 76.5 -159 75.5 -157.2 75.5 -155 75.55 -152.65 76.5 -150.95 77.45 -149.25 79.25 -148.35 81 -147.4 83.4 -147.4 84.75 -147.4 85.85 -147.6 86.95 -147.8 87.55 -148.05
L 87 -151.5
Q 86.5 -151.3 85.85 -151.15 85.15 -151.05 84.35 -151.05 83.2 -151.05 82.3 -151.5 81.35 -152 80.8 -152.9 80.3 -153.85 80.25 -155.2 80.25 -157.05 81.35 -158.2 82.4 -159.35 84.25 -159.35 85.15 -159.35 85.8 -159.25 86.45 -159.1 86.85 -158.9
L 87.6 -162.35
M 37.5 -246.6
Q 36.65 -246.55 35.95 -246.45
L 35.95 -235.85
Q 36.4 -235.8 37.1 -235.75 37.8 -235.7 38.75 -235.7 40.35 -235.7 41.6 -236.05 42.85 -236.4 43.7 -237.1 44.5 -237.75 45 -238.85 45.5 -239.9 45.5 -241.45 45.5 -242.9 45 -243.9 44.55 -244.9 43.7 -245.5 42.9 -246.1 41.85 -246.4 40.8 -246.7 39.25 -246.7 38.3 -246.7 37.5 -246.6
M 38.4 -244.7
Q 38.55 -244.75 38.85 -244.75 39.1 -244.8 39.5 -244.8 41.1 -244.8 42 -243.95 42.9 -243.05 42.9 -241.4 42.9 -240.1 42.45 -239.25 42 -238.4 41.2 -238 40.35 -237.6 39.25 -237.6 39.05 -237.6 38.8 -237.6 38.55 -237.6 38.4 -237.65
L 38.4 -244.7
M 88.45 -244.6
L 88.45 -246.6 81.85 -246.6 81.85 -235.8 84.3 -235.8 84.3 -240.15 88.2 -240.15 88.2 -242.15 84.3 -242.15 84.3 -244.6 88.45 -244.6
M 42.7 -257.5
L 45.35 -257.5 42 -268.3 38.8 -268.3 35.45 -257.5 38 -257.5 38.8 -260.3 41.85 -260.3 42.7 -257.5
M 40.55 -265.45
Q 40.7 -264.9 40.85 -264.4
L 41.5 -262.1 39.15 -262.1 39.75 -264.4
Q 39.9 -264.85 40.05 -265.45 40.15 -266 40.25 -266.5
L 40.3 -266.5
Q 40.4 -266 40.55 -265.45
M 80.65 -265.85
Q 79.9 -264.6 79.85 -262.75 79.85 -261.2 80.5 -259.95 81.15 -258.75 82.4 -258.05 83.65 -257.35 85.5 -257.35 86.5 -257.35 87.25 -257.5 87.95 -257.65 88.3 -257.8
L 87.95 -259.7
Q 87.55 -259.55 87 -259.45 86.45 -259.35 85.9 -259.35 84.25 -259.4 83.35 -260.3 82.45 -261.25 82.45 -262.9 82.45 -264.1 82.9 -264.9 83.35 -265.65 84.1 -266.05 84.9 -266.45 85.9 -266.45 86.55 -266.45 87.05 -266.35 87.55 -266.2 87.95 -266.05
L 88.45 -268
Q 88.1 -268.15 87.4 -268.3 86.7 -268.45 85.75 -268.5 84.1 -268.45 82.8 -267.8 81.45 -267.15 80.65 -265.85
M 66.65 -244.6
L 66.65 -246.6 59.95 -246.6 59.95 -235.8 66.85 -235.8 66.85 -237.8 62.4 -237.8 62.4 -240.35 66.4 -240.35 66.4 -242.35 62.4 -242.35 62.4 -244.6 66.65 -244.6
M 59.45 -268.25
Q 58.95 -268.25 58.6 -268.15
L 58.6 -257.55
Q 59 -257.5 59.7 -257.45 60.35 -257.4 61.25 -257.4 62.85 -257.4 63.9 -257.65 64.9 -257.9 65.5 -258.35 66 -258.8 66.3 -259.35 66.6 -259.95 66.65 -260.65 66.6 -261.7 66 -262.4 65.4 -263.05 64.45 -263.3
L 64.45 -263.35
Q 65.4 -263.7 65.85 -264.3 66.25 -264.9 66.25 -265.65 66.25 -266.4 65.9 -266.95 65.55 -267.45 64.95 -267.75 64.4 -268.1 63.65 -268.25 62.85 -268.4 61.75 -268.4 61.15 -268.4 60.55 -268.35 59.95 -268.3 59.45 -268.25
M 62.05 -266.6
Q 62.9 -266.6 63.35 -266.3 63.8 -265.95 63.8 -265.35 63.8 -264.75 63.3 -264.4 62.8 -264.05 61.85 -264
L 61.05 -264 61.05 -266.55
Q 61.2 -266.55 61.45 -266.6 61.7 -266.6 62.05 -266.6
M 61.85 -262.3
Q 62.5 -262.3 63 -262.15 63.45 -261.95 63.75 -261.65 64.05 -261.3 64.05 -260.75 64.05 -260.2 63.75 -259.85 63.5 -259.5 63 -259.35 62.55 -259.2 61.95 -259.2 61.65 -259.2 61.45 -259.2 61.2 -259.2 61.05 -259.25
L 61.05 -262.3 61.85 -262.3
M 47.4 -341.1
L 45.6 -341.1 43.15 -339.95 43.5 -338.3 45.3 -339.15 45.3 -331.8 47.4 -331.8 47.4 -341.1
M 37.85 -341.45
L 35.65 -341.45 35.65 -331.8 41.65 -331.8 41.65 -333.65 37.85 -333.65 37.85 -341.45
M 64.05 -361.55
Q 63.1 -361.55 62.3 -361.25 61.55 -361 61 -360.6
L 61.65 -359.05
Q 62 -359.3 62.5 -359.55 63 -359.8 63.6 -359.8 64.4 -359.8 64.8 -359.4 65.15 -359 65.15 -358.45 65.15 -357.9 64.8 -357.35 64.45 -356.8 63.8 -356.1 63.1 -355.4 62.1 -354.5
L 60.9 -353.4 60.9 -352.1 67.5 -352.1 67.5 -353.9 64 -353.9 64.85 -354.65
Q 65.5 -355.25 66.1 -355.85 66.65 -356.5 66.95 -357.15 67.3 -357.85 67.3 -358.65 67.3 -359.5 66.95 -360.15 66.55 -360.8 65.85 -361.15 65.1 -361.55 64.05 -361.55
M 56.2 -361.75
L 54 -361.75 54 -352.1 60 -352.1 60 -353.95 56.2 -353.95 56.2 -361.75
M 76.35 -381.5
L 74.15 -381.5 74.15 -371.85 80.15 -371.85 80.15 -373.7 76.35 -373.7 76.35 -381.5
M 87.25 -379
Q 87.25 -379.6 86.9 -380.15 86.55 -380.65 85.85 -380.95 85.15 -381.3 84.15 -381.3 83.25 -381.3 82.5 -381.1 81.7 -380.85 81.3 -380.6
L 81.75 -379
Q 82.05 -379.2 82.55 -379.4 83.1 -379.55 83.65 -379.6 84.35 -379.55 84.7 -379.3 85.05 -379.05 85.05 -378.6 85.05 -378.2 84.8 -378 84.5 -377.75 84.15 -377.65 83.75 -377.55 83.4 -377.55
L 82.55 -377.55 82.55 -376 83.45 -376
Q 83.9 -376 84.35 -375.85 84.75 -375.7 85 -375.4 85.3 -375.1 85.3 -374.65 85.3 -374.1 84.85 -373.75 84.45 -373.45 83.6 -373.4 82.9 -373.45 82.35 -373.6 81.75 -373.8 81.45 -374
L 81 -372.35
Q 81.4 -372.1 82.15 -371.9 82.85 -371.7 83.75 -371.7 84.95 -371.7 85.8 -372.05 86.65 -372.45 87.1 -373.05 87.55 -373.7 87.55 -374.55 87.55 -375.15 87.3 -375.6 87 -376.1 86.55 -376.4 86.1 -376.7 85.55 -376.8
L 85.55 -376.85
Q 86.4 -377.15 86.8 -377.7 87.25 -378.25 87.25 -379 Z"/>
</g>

<path id="Layer0_0_1_STROKES" stroke="#FFFFFF" stroke-width="3" stroke-linejoin="miter" stroke-linecap="butt" stroke-miterlimit="4" fill="none" d="
M 90.95 -366.85
L 73.2 -366.85 73.2 -347.1 52.4 -347.1 52.4 -327.3 34.25 -327.3"/>

<path id="Layer0_0_2_STROKES" stroke="#FFFFFF" stroke-width="1" stroke-linejoin="miter" stroke-linecap="butt" stroke-miterlimit="4" fill="none" d="
M 62.15 257.5
L 62.15 255.65 63.75 254.15
Q 66.05 252.1 66.95 251 67.95 249.8 68.05 248.75 68.05 246.85 65.9 246.85 64.5 246.85 63.15 247.9
L 62.3 245.75
Q 64 244.4 66.5 244.4 68.65 244.4 69.85 245.55 71 246.6 71 248.45 71 250.95 67.55 254
L 66.45 255 71.2 255 71.2 257.5 62.15 257.5 Z"/>

<path id="Layer0_0_3_STROKES" stroke="#FFFFFF" stroke-width="1" stroke-linejoin="miter" stroke-linecap="butt" stroke-miterlimit="4" fill="none" d="
M 71.8 -254.05
L 53.5 -254.05 53.5 -272.35 71.8 -272.35 71.8 -254.05 Z
M 71.8 -231.6
L 53.5 -231.6 53.5 -249.95 71.8 -249.95 71.8 -231.6 Z
M 93.6 -254.05
L 75.3 -254.05 75.3 -272.35 93.6 -272.35 93.6 -254.05 Z
M 49.85 -254.05
L 31.6 -254.05 31.6 -272.35 49.85 -272.35 49.85 -254.05 Z
M 93.6 -231.6
L 75.3 -231.6 75.3 -249.95 93.6 -249.95 93.6 -231.6 Z
M 49.85 -231.6
L 31.6 -231.6 31.6 -249.95 49.85 -249.95 49.85 -231.6 Z
M 94.65 -136.05
L 30.35 -136.05 30.35 -176.05 94.65 -176.05 94.65 -136.05 Z
M 94.65 -38.95
L 30.4 -38.95 30.4 -78.9 94.65 -78.9 94.65 -38.95 Z
M 94.55 65.15
L 30.25 65.15 30.25 13.6 94.55 13.6 94.55 65.15 Z
M 93.55 162.25
L 29.25 162.25 29.25 110.75 93.55 110.75 93.55 162.25 Z
M 78 248.45
Q 80.65 246.35 82.2 243.4 83.8 240.2 83.8 236.7 83.8 230.55 79.45 226.2 75.05 221.8 68.85 221.8
L 64.6 221.8 64.6 225.05 59.6 222.15 64.6 219.25 64.6 221.8
M 94.5 261.1
L 29.2 261.1 29.2 200.35 94.5 200.35 94.5 261.1 Z"/>
</defs>

<g transform="matrix( 1, 0, 0, 1, 0,0) ">
<use xlink:href="#Layer0_0_FILL"/>

<use xlink:href="#Layer0_0_1_STROKES"/>

<use xlink:href="#Layer0_0_2_STROKES"/>

<use xlink:href="#Layer0_0_3_STROKES"/>
</g>

<g transform="matrix( 1.58001708984375, 0, 0, 1.5796661376953125, -44.3,-258.45) ">
<clipPath id="Mask_Mask_1">
<rect x="66.9" y="-2" width="10.2" height="16.05" fill="#FFFFFF" stroke="none"/>
</clipPath>

<text clip-path="url(#Mask_Mask_1)" writing-mode="lr"/>
</g>
</svg>
