
<svg xmlns="http://www.w3.org/2000/svg" version="1.1" xmlns:xlink="http://www.w3.org/1999/xlink" preserveAspectRatio="none" x="0px" y="0px" width="125px" height="80px" viewBox="0 0 125 80">
<defs>
<g id="Layer0_0_FILL">
<path fill="#FFFFFF" stroke="none" d="
M 59.6 519.25
Q 59.1 518.5 58.15 518.1 57.2 517.65 55.85 517.65 54.55 517.65 53.5 517.95 52.45 518.25 51.85 518.6
L 52.45 520.8
Q 52.9 520.55 53.6 520.3 54.35 520.05 55.15 520 56.1 520 56.6 520.4 57.05 520.75 57.05 521.35 57.05 521.9 56.7 522.2 56.35 522.55 55.8 522.7 55.3 522.8 54.75 522.85
L 53.6 522.85 53.6 525 54.85 525
Q 55.5 525 56.1 525.2 56.65 525.4 57.05 525.8 57.4 526.2 57.4 526.8 57.4 527.55 56.8 528.05 56.25 528.5 55.05 528.55 54.1 528.5 53.3 528.25 52.5 528 52.05 527.75
L 51.45 530
Q 52 530.35 53 530.65 54 530.9 55.25 530.9 56.9 530.9 58.1 530.4 59.25 529.9 59.9 529 60.55 528.1 60.55 527 60.55 526.15 60.15 525.5 59.8 524.85 59.15 524.4 58.55 524 57.75 523.85
L 57.75 523.8
Q 58.95 523.4 59.5 522.65 60.1 521.85 60.1 520.85 60.1 519.95 59.6 519.25
M 52.15 499.75
L 54.65 498.55 54.65 508.75 57.6 508.75 57.6 495.9 55.1 495.9 51.7 497.5 52.15 499.75
M 64.6 517.05
L 64.6 513.8 64.6 511.25 59.6 514.15 64.6 517.05
M 62.8 432.5
L 59.2 432.5 59.2 449.3 62.8 449.3 62.8 432.5
M 67.6 437.95
Q 66.55 438.45 65.95 439.3 65.4 440.15 65.35 441.25 65.35 442.3 66.1 443.2 66.9 444.1 68.65 444.75 69.65 445.05 70 445.35 70.4 445.6 70.35 446.05 70.4 446.5 70 446.75 69.65 447 68.8 447 68.3 447 67.7 446.9 67.1 446.75 66.6 446.55 66.05 446.35 65.7 446.15
L 65.1 448.7
Q 65.75 449.1 66.7 449.3 67.7 449.5 68.8 449.55 70.5 449.5 71.6 449.05 72.7 448.55 73.3 447.7 73.85 446.9 73.85 445.8 73.85 444.5 73.1 443.65 72.35 442.8 70.7 442.2 69.65 441.85 69.25 441.55 68.8 441.3 68.8 440.9 68.8 440.45 69.2 440.2 69.55 439.95 70.2 439.95 70.95 439.95 71.65 440.15 72.3 440.4 72.7 440.6
L 73.35 438.1
Q 72.8 437.85 71.95 437.65 71.1 437.5 70.05 437.45 68.65 437.5 67.6 437.95
M 86.25 444.65
Q 86.25 444.45 86.3 444.1 86.35 443.7 86.35 443.25 86.35 441.8 85.85 440.45 85.3 439.15 84.2 438.35 83.05 437.5 81.2 437.45 79.7 437.5 78.6 438 77.45 438.55 76.75 439.45 76.05 440.35 75.7 441.45 75.35 442.55 75.35 443.65 75.35 446.4 76.95 447.95 78.55 449.5 81.5 449.55 82.7 449.55 83.75 449.35 84.8 449.15 85.7 448.85
L 85.25 446.4
Q 84.5 446.6 83.75 446.75 82.95 446.85 82.05 446.85 81.2 446.85 80.5 446.6 79.75 446.4 79.3 445.9 78.85 445.4 78.75 444.65
L 86.25 444.65
M 82.85 441.2
Q 83 441.75 83 442.2
L 78.75 442.2
Q 78.8 441.7 79.05 441.15 79.25 440.6 79.75 440.25 80.2 439.85 80.95 439.85 81.8 439.9 82.25 440.3 82.7 440.65 82.85 441.2
M 48.5 437.8
Q 47.4 438.1 46.75 438.5
L 47.45 440.8
Q 48 440.45 48.85 440.2 49.7 439.95 50.6 439.95 51.5 439.95 51.95 440.15 52.4 440.4 52.6 440.75 52.75 441.1 52.75 441.4
L 52.75 441.55
Q 50.7 441.55 49.15 442.05 47.6 442.5 46.8 443.5 45.95 444.5 45.95 446 45.95 446.95 46.4 447.75 46.8 448.55 47.65 449.05 48.5 449.55 49.65 449.55 50.7 449.55 51.55 449.2 52.4 448.85 53 448.15
L 53.05 448.15 53.3 449.3 56.5 449.3
Q 56.45 448.8 56.4 448.05 56.35 447.3 56.35 446.5
L 56.35 442.45
Q 56.35 441.05 55.9 439.95 55.4 438.85 54.3 438.15 53.2 437.5 51.25 437.45 49.65 437.5 48.5 437.8
M 52.85 445.1
Q 52.85 445.25 52.85 445.4 52.8 445.55 52.8 445.7 52.6 446.25 52.1 446.65 51.6 447 50.9 447 50.3 447 49.9 446.7 49.5 446.35 49.5 445.65 49.5 444.95 49.95 444.55 50.4 444.15 51.15 444 51.9 443.8 52.85 443.85
L 52.85 445.1
M 45.65 432.45
Q 45.25 432.35 44.8 432.3 44.3 432.2 43.7 432.2 42.9 432.2 42.05 432.5 41.2 432.75 40.5 433.4 39.75 434.1 39.4 435.15 39.05 436.2 39.05 437.25
L 39.05 437.7 37.55 437.7 37.55 440.35 39.05 440.35 39.05 449.3 42.65 449.3 42.65 440.35 45 440.35 45 437.7 42.65 437.7 42.65 437.15
Q 42.65 436.25 43.05 435.65 43.45 435.1 44.35 435.05 44.7 435.05 45 435.1 45.25 435.15 45.5 435.25
L 45.65 432.45
M 82.8 421.05
L 82.35 418.6
Q 81.6 418.8 80.85 418.95 80.05 419.05 79.15 419.05 78.3 419.05 77.6 418.8 76.85 418.6 76.4 418.1 75.95 417.6 75.85 416.85
L 83.35 416.85
Q 83.35 416.65 83.4 416.3 83.45 415.9 83.45 415.45 83.45 414 82.95 412.65 82.4 411.35 81.3 410.55 80.15 409.7 78.3 409.65 76.8 409.7 75.7 410.2 74.55 410.75 73.85 411.65 73.15 412.55 72.8 413.65 72.45 414.75 72.45 415.85 72.45 418.6 74.05 420.15 75.65 421.7 78.6 421.75 79.8 421.75 80.85 421.55 81.9 421.35 82.8 421.05
M 79.95 413.4
Q 80.1 413.95 80.1 414.4
L 75.85 414.4
Q 75.9 413.9 76.15 413.35 76.35 412.8 76.85 412.45 77.3 412.05 78.05 412.05 78.9 412.1 79.35 412.5 79.8 412.85 79.95 413.4
M 70.15 409.9
L 66.55 409.9 66.55 416.8
Q 66.55 417 66.55 417.2 66.5 417.45 66.45 417.6 66.25 418.05 65.8 418.4 65.35 418.8 64.65 418.85 63.7 418.85 63.25 418.1 62.8 417.4 62.8 416.15
L 62.8 409.9 59.2 409.9 59.2 416.7
Q 59.2 418.5 59.75 419.6 60.25 420.7 61.2 421.25 62.1 421.75 63.25 421.75 64.3 421.75 65.05 421.4 65.75 421.1 66.2 420.65 66.7 420.25 66.9 419.85
L 67 419.85 67.15 421.5 70.25 421.5
Q 70.25 420.75 70.2 419.85 70.15 418.9 70.15 417.8
L 70.15 409.9
M 50.3 411.55
Q 50.35 412.45 50.35 413.75
L 50.35 421.5 53.95 421.5 53.95 415.6
Q 53.95 415.4 53.95 415.2 54 415 54 414.8 54.2 414 54.85 413.5 55.45 413 56.5 413 56.8 413 57 413.05 57.25 413.05 57.45 413.1
L 57.45 409.7
Q 57.25 409.7 57.1 409.7 56.95 409.65 56.7 409.65 56.1 409.65 55.5 409.9 54.9 410.15 54.4 410.7 53.9 411.2 53.55 412.05
L 53.45 412.05 53.35 409.9 50.25 409.9
Q 50.3 410.65 50.3 411.55
M 45.65 406.6
L 42.15 407.4 42.15 409.9 40.6 409.9 40.6 412.55 42.15 412.55 42.15 417.3
Q 42.15 418.55 42.4 419.35 42.65 420.25 43.15 420.75 43.55 421.2 44.25 421.45 44.95 421.7 45.85 421.75 46.6 421.75 47.2 421.65 47.85 421.55 48.2 421.4
L 48.15 418.7
Q 47.95 418.75 47.7 418.75 47.45 418.8 47.1 418.8 46.3 418.8 45.95 418.3 45.65 417.8 45.65 416.75
L 45.65 412.55 48.25 412.55 48.25 409.9 45.65 409.9 45.65 406.6
M 63.95 341.05
Q 63.2 342.4 63.2 344.3 63.2 346.15 63.95 347.5 64.75 348.85 66.1 349.55 67.45 350.25 69.15 350.25 70.75 350.25 72.15 349.6 73.5 348.95 74.4 347.55 75.25 346.2 75.3 344.1 75.3 342.35 74.55 341 73.8 339.65 72.5 338.95 71.15 338.2 69.35 338.15 67.5 338.2 66.1 338.95 64.7 339.65 63.95 341.05
M 67.9 341.25
Q 68.4 340.75 69.25 340.7 70.1 340.75 70.6 341.25 71.1 341.75 71.35 342.55 71.55 343.3 71.55 344.2 71.55 345.8 70.95 346.7 70.35 347.65 69.25 347.65 68.5 347.65 67.95 347.2 67.45 346.75 67.15 346 66.9 345.2 66.9 344.2 66.9 343.3 67.15 342.55 67.35 341.75 67.9 341.25
M 49.9 340.1
Q 49.95 341.05 49.95 342.1
L 49.95 350 53.55 350 53.55 343.3
Q 53.55 343.05 53.6 342.85 53.6 342.6 53.7 342.45 53.85 341.9 54.3 341.5 54.75 341.1 55.5 341.1 56.5 341.1 56.9 341.75 57.35 342.45 57.35 343.6
L 57.35 350 60.95 350 60.95 343.15
Q 60.95 341.45 60.4 340.35 59.85 339.25 58.95 338.7 58 338.15 56.8 338.15 55.85 338.2 55.1 338.5 54.4 338.8 53.95 339.2 53.45 339.65 53.2 340
L 53.15 340 53 338.4 49.85 338.4
Q 49.9 339.2 49.9 340.1
M 78.45 314.15
Q 77.9 313.9 77.05 313.7 76.2 313.55 75.15 313.5 73.75 313.55 72.7 314 71.65 314.5 71.05 315.35 70.5 316.2 70.45 317.3 70.45 318.35 71.2 319.25 72 320.15 73.75 320.8 74.75 321.1 75.1 321.4 75.5 321.65 75.45 322.1 75.5 322.55 75.1 322.8 74.75 323.05 73.9 323.05 73.4 323.05 72.8 322.95 72.2 322.8 71.7 322.6 71.15 322.4 70.8 322.2
L 70.2 324.75
Q 70.85 325.15 71.8 325.35 72.8 325.55 73.9 325.6 75.6 325.55 76.7 325.1 77.8 324.6 78.4 323.75 78.95 322.95 78.95 321.85 78.95 320.55 78.2 319.7 77.45 318.85 75.8 318.25 74.75 317.9 74.35 317.6 73.9 317.35 73.9 316.95 73.9 316.5 74.3 316.25 74.65 316 75.3 316 76.05 316 76.75 316.2 77.4 316.45 77.8 316.65
L 78.45 314.15
M 63.6 313.5
Q 62.1 313.55 61 314.05 59.85 314.6 59.15 315.5 58.45 316.4 58.1 317.5 57.75 318.6 57.75 319.7 57.75 322.45 59.35 324 60.95 325.55 63.9 325.6 65.1 325.6 66.15 325.4 67.2 325.2 68.1 324.9
L 67.65 322.45
Q 66.9 322.65 66.15 322.8 65.35 322.9 64.45 322.9 63.6 322.9 62.9 322.65 62.15 322.45 61.7 321.95 61.25 321.45 61.15 320.7
L 68.65 320.7
Q 68.65 320.5 68.7 320.15 68.75 319.75 68.75 319.3 68.75 317.85 68.25 316.5 67.7 315.2 66.6 314.4 65.45 313.55 63.6 313.5
M 61.15 318.25
Q 61.2 317.75 61.45 317.2 61.65 316.65 62.15 316.3 62.6 315.9 63.35 315.9 64.2 315.95 64.65 316.35 65.1 316.7 65.25 317.25 65.4 317.8 65.4 318.25
L 61.15 318.25
M 49 313.75
L 45 313.75 49.25 324.35
Q 49.35 324.55 49.35 324.7 49.4 324.85 49.4 324.95 49.4 325.1 49.35 325.2 49.3 325.35 49.2 325.5 48.95 325.95 48.55 326.3 48.15 326.7 47.7 326.9 47.3 327.15 46.9 327.35 46.5 327.5 46.15 327.55
L 46.9 330.6
Q 47.6 330.5 48.5 330.15 49.45 329.8 50.4 329 51.05 328.45 51.65 327.55 52.3 326.65 52.95 325.15 53.65 323.7 54.45 321.4
L 57.15 313.75 53.3 313.75 51.9 319.45
Q 51.75 319.95 51.65 320.55 51.5 321.15 51.35 321.6
L 51.3 321.6
Q 51.2 321.15 51.05 320.55 50.85 320 50.75 319.45
L 49 313.75
M 48.55 221.6
L 44.75 221.6 39.5 224.05 40.25 227.5 44.05 225.7 44.1 225.7 44.1 241.4 48.55 241.4 48.55 221.6
M 65.6 222.1
Q 64.05 221.25 61.8 221.25 59.8 221.3 58.1 221.85 56.45 222.45 55.3 223.3
L 56.65 226.6
Q 57.4 226 58.5 225.5 59.55 225 60.85 225 62.55 225 63.35 225.8 64.15 226.65 64.15 227.85 64.1 229 63.4 230.2 62.65 231.45 61.25 232.9 59.8 234.35 57.65 236.3
L 55.1 238.6 55.1 241.4 69.15 241.4 69.15 237.6 61.65 237.6 61.65 237.55 63.5 236
Q 64.95 234.75 66.1 233.4 67.3 232.05 68.05 230.6 68.75 229.15 68.75 227.5 68.75 225.65 67.95 224.25 67.15 222.85 65.6 222.1
M 85.25 233.35
Q 84.7 232.35 83.7 231.7 82.75 231.05 81.55 230.85
L 81.55 230.8
Q 83.4 230.15 84.3 228.95 85.2 227.8 85.2 226.2 85.2 224.85 84.4 223.7 83.65 222.6 82.2 221.95 80.75 221.25 78.6 221.25 76.65 221.3 75.05 221.7 73.4 222.15 72.45 222.75
L 73.4 226.1
Q 74.05 225.7 75.2 225.3 76.3 224.95 77.55 224.9 79.05 224.95 79.75 225.5 80.5 226.1 80.5 227 80.5 227.8 79.95 228.3 79.4 228.8 78.55 229.05 77.75 229.25 76.95 229.25
L 75.15 229.25 75.15 232.6 77.05 232.6
Q 78.1 232.6 79 232.9 79.9 233.2 80.45 233.8 81 234.45 81.05 235.4 81.05 236.55 80.1 237.3 79.2 238.05 77.4 238.05 75.95 238.05 74.7 237.6 73.45 237.2 72.8 236.85
L 71.85 240.35
Q 72.75 240.9 74.25 241.3 75.8 241.7 77.75 241.75 80.25 241.7 82.05 240.95 83.9 240.15 84.85 238.8 85.85 237.45 85.85 235.65 85.85 234.35 85.25 233.35
M 79.35 130.15
Q 77.45 131.2 76.5 133 75.5 134.8 75.5 137 75.55 139.35 76.5 141.05 77.45 142.75 79.25 143.65 81 144.6 83.4 144.6 84.75 144.6 85.85 144.4 86.95 144.2 87.55 143.95
L 87 140.5
Q 86.5 140.7 85.85 140.85 85.15 140.95 84.35 140.95 83.2 140.95 82.3 140.5 81.35 140 80.8 139.1 80.3 138.15 80.25 136.8 80.25 134.95 81.35 133.8 82.4 132.65 84.25 132.65 85.15 132.65 85.8 132.75 86.45 132.9 86.85 133.1
L 87.6 129.65
Q 86.85 129.35 85.9 129.2 85 129.05 84.05 129.05 81.25 129.1 79.35 130.15
M 58 142.35
Q 57.95 143.55 57.9 144.3
L 61.85 144.3 62 142.2 62.05 142.2
Q 62.9 143.55 64.05 144.1 65.25 144.65 66.55 144.65 68.3 144.65 69.85 143.75 71.4 142.85 72.4 141.05 73.35 139.25 73.4 136.6 73.4 134.3 72.6 132.6 71.8 130.9 70.45 130 69.05 129.1 67.25 129.05 65.7 129.1 64.55 129.65 63.4 130.2 62.7 131.2
L 62.65 131.2 62.65 122.65 58 122.65 58 139.85
Q 58 141.15 58 142.35
M 62.65 135.75
Q 62.65 135.55 62.65 135.35 62.7 135.1 62.75 134.9 63 133.9 63.75 133.3 64.5 132.65 65.45 132.65 66.55 132.65 67.25 133.2 67.95 133.75 68.35 134.7 68.65 135.6 68.65 136.8 68.65 138.8 67.8 139.9 66.95 140.95 65.45 140.95 64.45 140.95 63.7 140.35 63 139.75 62.75 138.75 62.65 138.4 62.65 137.95
L 62.65 135.75
M 49.2 123.75
L 43.1 123.75 36.8 144.3 41.65 144.3 43.1 139 49 139 50.6 144.3 55.6 144.3 49.2 123.75
M 45.95 127.2
L 46 127.2
Q 46.25 128.15 46.5 129.2 46.8 130.25 47.05 131.2
L 48.35 135.55 43.8 135.55 45 131.2
Q 45.25 130.25 45.5 129.2 45.7 128.15 45.95 127.2
M 43.7 46.5
Q 42.9 45.9 41.85 45.6 40.8 45.3 39.25 45.3 38.3 45.3 37.5 45.4 36.65 45.45 35.95 45.55
L 35.95 56.15
Q 36.4 56.2 37.1 56.25 37.8 56.3 38.75 56.3 40.35 56.3 41.6 55.95 42.85 55.6 43.7 54.9 44.5 54.25 45 53.15 45.5 52.1 45.5 50.55 45.5 49.1 45 48.1 44.55 47.1 43.7 46.5
M 38.85 47.25
Q 39.1 47.2 39.5 47.2 41.1 47.2 42 48.05 42.9 48.95 42.9 50.6 42.9 51.9 42.45 52.75 42 53.6 41.2 54 40.35 54.4 39.25 54.4 39.05 54.4 38.8 54.4 38.55 54.4 38.4 54.35
L 38.4 47.3
Q 38.55 47.25 38.85 47.25
M 62.4 47.4
L 66.65 47.4 66.65 45.4 59.95 45.4 59.95 56.2 66.85 56.2 66.85 54.2 62.4 54.2 62.4 51.65 66.4 51.65 66.4 49.65 62.4 49.65 62.4 47.4
M 64.95 24.25
Q 64.4 23.9 63.65 23.75 62.85 23.6 61.75 23.6 61.15 23.6 60.55 23.65 59.95 23.7 59.45 23.75 58.95 23.75 58.6 23.85
L 58.6 34.45
Q 59 34.5 59.7 34.55 60.35 34.6 61.25 34.6 62.85 34.6 63.9 34.35 64.9 34.1 65.5 33.65 66 33.2 66.3 32.65 66.6 32.05 66.65 31.35 66.6 30.3 66 29.6 65.4 28.95 64.45 28.7
L 64.45 28.65
Q 65.4 28.3 65.85 27.7 66.25 27.1 66.25 26.35 66.25 25.6 65.9 25.05 65.55 24.55 64.95 24.25
M 63.8 26.65
Q 63.8 27.25 63.3 27.6 62.8 27.95 61.85 28
L 61.05 28 61.05 25.45
Q 61.2 25.45 61.45 25.4 61.7 25.4 62.05 25.4 62.9 25.4 63.35 25.7 63.8 26.05 63.8 26.65
M 61.85 29.7
Q 62.5 29.7 63 29.85 63.45 30.05 63.75 30.35 64.05 30.7 64.05 31.25 64.05 31.8 63.75 32.15 63.5 32.5 63 32.65 62.55 32.8 61.95 32.8 61.65 32.8 61.45 32.8 61.2 32.8 61.05 32.75
L 61.05 29.7 61.85 29.7
M 42.7 34.5
L 45.35 34.5 42 23.7 38.8 23.7 35.45 34.5 38 34.5 38.8 31.7 41.85 31.7 42.7 34.5
M 40.55 26.55
Q 40.7 27.1 40.85 27.6
L 41.5 29.9 39.15 29.9 39.75 27.6
Q 39.9 27.15 40.05 26.55 40.15 26 40.25 25.5
L 40.3 25.5
Q 40.4 26 40.55 26.55
M 84.3 47.4
L 88.45 47.4 88.45 45.4 81.85 45.4 81.85 56.2 84.3 56.2 84.3 51.85 88.2 51.85 88.2 49.85 84.3 49.85 84.3 47.4
M 85.75 23.5
Q 84.1 23.55 82.8 24.2 81.45 24.85 80.65 26.15 79.9 27.4 79.85 29.25 79.85 30.8 80.5 32.05 81.15 33.25 82.4 33.95 83.65 34.65 85.5 34.65 86.5 34.65 87.25 34.5 87.95 34.35 88.3 34.2
L 87.95 32.3
Q 87.55 32.45 87 32.55 86.45 32.65 85.9 32.65 84.25 32.6 83.35 31.7 82.45 30.75 82.45 29.1 82.45 27.9 82.9 27.1 83.35 26.35 84.1 25.95 84.9 25.55 85.9 25.55 86.55 25.55 87.05 25.65 87.55 25.8 87.95 25.95
L 88.45 24
Q 88.1 23.85 87.4 23.7 86.7 23.55 85.75 23.5
M 81.75 -87
Q 82.05 -87.2 82.55 -87.4 83.1 -87.55 83.65 -87.6 84.35 -87.55 84.7 -87.3 85.05 -87.05 85.05 -86.6 85.05 -86.2 84.8 -86 84.5 -85.75 84.15 -85.65 83.75 -85.55 83.4 -85.55
L 82.55 -85.55 82.55 -84 83.45 -84
Q 83.9 -84 84.35 -83.85 84.75 -83.7 85 -83.4 85.3 -83.1 85.3 -82.65 85.3 -82.1 84.85 -81.75 84.45 -81.45 83.6 -81.4 82.9 -81.45 82.35 -81.6 81.75 -81.8 81.45 -82
L 81 -80.35
Q 81.4 -80.1 82.15 -79.9 82.85 -79.7 83.75 -79.7 84.95 -79.7 85.8 -80.05 86.65 -80.45 87.1 -81.05 87.55 -81.7 87.55 -82.55 87.55 -83.15 87.3 -83.6 87 -84.1 86.55 -84.4 86.1 -84.7 85.55 -84.8
L 85.55 -84.85
Q 86.4 -85.15 86.8 -85.7 87.25 -86.25 87.25 -87 87.25 -87.6 86.9 -88.15 86.55 -88.65 85.85 -88.95 85.15 -89.3 84.15 -89.3 83.25 -89.3 82.5 -89.1 81.7 -88.85 81.3 -88.6
L 81.75 -87
M 47.4 -49.1
L 45.6 -49.1 43.15 -47.95 43.5 -46.3 45.3 -47.15 45.3 -39.8 47.4 -39.8 47.4 -49.1
M 37.85 -49.45
L 35.65 -49.45 35.65 -39.8 41.65 -39.8 41.65 -41.65 37.85 -41.65 37.85 -49.45
M 66.95 -68.15
Q 66.55 -68.8 65.85 -69.15 65.1 -69.55 64.05 -69.55 63.1 -69.55 62.3 -69.25 61.55 -69 61 -68.6
L 61.65 -67.05
Q 62 -67.3 62.5 -67.55 63 -67.8 63.6 -67.8 64.4 -67.8 64.8 -67.4 65.15 -67 65.15 -66.45 65.15 -65.9 64.8 -65.35 64.45 -64.8 63.8 -64.1 63.1 -63.4 62.1 -62.5
L 60.9 -61.4 60.9 -60.1 67.5 -60.1 67.5 -61.9 64 -61.9 64.85 -62.65
Q 65.5 -63.25 66.1 -63.85 66.65 -64.5 66.95 -65.15 67.3 -65.85 67.3 -66.65 67.3 -67.5 66.95 -68.15
M 60 -61.95
L 56.2 -61.95 56.2 -69.75 54 -69.75 54 -60.1 60 -60.1 60 -61.95
M 76.35 -89.5
L 74.15 -89.5 74.15 -79.85 80.15 -79.85 80.15 -81.7 76.35 -81.7 76.35 -89.5 Z"/>
</g>

<path id="Layer0_0_1_STROKES" stroke="#FFFFFF" stroke-width="3" stroke-linejoin="miter" stroke-linecap="butt" stroke-miterlimit="4" fill="none" d="
M 90.95 -74.85
L 73.2 -74.85 73.2 -55.1 52.4 -55.1 52.4 -35.3 34.25 -35.3"/>

<path id="Layer0_0_2_STROKES" stroke="#FFFFFF" stroke-width="1" stroke-linejoin="miter" stroke-linecap="butt" stroke-miterlimit="4" fill="none" d="
M 62.15 549.5
L 62.15 547.65 63.75 546.15
Q 66.05 544.1 66.95 543 67.95 541.8 68.05 540.75 68.05 538.85 65.9 538.85 64.5 538.85 63.15 539.9
L 62.3 537.75
Q 64 536.4 66.5 536.4 68.65 536.4 69.85 537.55 71 538.6 71 540.45 71 542.95 67.55 546
L 66.45 547 71.2 547 71.2 549.5 62.15 549.5 Z"/>

<path id="Layer0_0_3_STROKES" stroke="#FFFFFF" stroke-width="1" stroke-linejoin="miter" stroke-linecap="butt" stroke-miterlimit="4" fill="none" d="
M 93.6 37.95
L 75.3 37.95 75.3 19.65 93.6 19.65 93.6 37.95 Z
M 93.6 60.4
L 75.3 60.4 75.3 42.05 93.6 42.05 93.6 60.4 Z
M 49.85 37.95
L 31.6 37.95 31.6 19.65 49.85 19.65 49.85 37.95 Z
M 71.8 37.95
L 53.5 37.95 53.5 19.65 71.8 19.65 71.8 37.95 Z
M 71.8 60.4
L 53.5 60.4 53.5 42.05 71.8 42.05 71.8 60.4 Z
M 49.85 60.4
L 31.6 60.4 31.6 42.05 49.85 42.05 49.85 60.4 Z
M 94.65 155.95
L 30.35 155.95 30.35 115.95 94.65 115.95 94.65 155.95 Z
M 94.65 253.05
L 30.4 253.05 30.4 213.1 94.65 213.1 94.65 253.05 Z
M 94.55 357.15
L 30.25 357.15 30.25 305.6 94.55 305.6 94.55 357.15 Z
M 93.55 454.25
L 29.25 454.25 29.25 402.75 93.55 402.75 93.55 454.25 Z
M 78 540.45
Q 80.65 538.35 82.2 535.4 83.8 532.2 83.8 528.7 83.8 522.55 79.45 518.2 75.05 513.8 68.85 513.8
L 64.6 513.8 64.6 517.05 59.6 514.15 64.6 511.25 64.6 513.8
M 94.5 553.1
L 29.2 553.1 29.2 492.35 94.5 492.35 94.5 553.1 Z"/>
</defs>

<g transform="matrix( 1, 0, 0, 1, 0,0) ">
<use xlink:href="#Layer0_0_FILL"/>

<use xlink:href="#Layer0_0_1_STROKES"/>

<use xlink:href="#Layer0_0_2_STROKES"/>

<use xlink:href="#Layer0_0_3_STROKES"/>
</g>

<g transform="matrix( 1.58001708984375, 0, 0, 1.5796661376953125, -44.3,33.55) ">
<clipPath id="Mask_Mask_1">
<rect x="66.9" y="-2" width="10.2" height="16.05" fill="#FFFFFF" stroke="none"/>
</clipPath>

<text clip-path="url(#Mask_Mask_1)" writing-mode="lr"/>
</g>
</svg>
