
<svg xmlns="http://www.w3.org/2000/svg" version="1.1" xmlns:xlink="http://www.w3.org/1999/xlink" preserveAspectRatio="none" x="0px" y="0px" width="125px" height="80px" viewBox="0 0 125 80">
<defs>
<g id="Layer1_0_FILL">
<path fill="#FFFFFF" stroke="none" d="
M 28.7 -87.35
L 28.7 -25.6 95 -25.6 95 -87.35 28.7 -87.35
M 29.7 -26.6
L 29.7 -86.35 94 -86.35 94 -26.6 29.7 -26.6
M 62.15 -41.65
L 61.95 -41.55 63.05 -38.8 63.35 -39.05
Q 64.6 -40.05 65.9 -40.05 67.7 -40.05 67.75 -38.45 67.65 -37.5 66.75 -36.4 65.85 -35.3 63.55 -33.25
L 61.85 -31.65 61.85 -29.4 71.5 -29.4 71.5 -32.5 67.25 -32.5 67.75 -32.95
Q 71.35 -36.15 71.3 -38.75 71.3 -40.75 70.05 -41.85 68.8 -43.1 66.5 -43.1 63.9 -43.1 62.15 -41.65
M 63.3 -39.75
L 62.65 -41.35
Q 64.25 -42.5 66.5 -42.5 68.5 -42.5 69.65 -41.4 70.7 -40.45 70.7 -38.75 70.65 -36.35 67.35 -33.4
L 65.7 -31.9 70.9 -31.9 70.9 -30 62.45 -30 62.45 -31.4 63.95 -32.8
Q 66.25 -34.9 67.2 -36 68.25 -37.3 68.35 -38.4
L 68.35 -38.45
Q 68.35 -40.65 65.9 -40.65 64.55 -40.65 63.3 -39.75
M 79.8 -61.35
Q 75.25 -65.9 68.85 -65.9
L 65.1 -65.9 65.1 -68.8 58.6 -65.05 65.1 -61.25 65.1 -64.9 68.85 -64.9
Q 74.85 -64.9 79.1 -60.65 83.3 -56.45 83.3 -50.5 83.3 -47.1 81.75 -44 80.25 -41.2 77.7 -39.15
L 78.3 -38.35
Q 81.05 -40.5 82.65 -43.55 84.3 -46.9 84.3 -50.5 84.3 -56.85 79.8 -61.35
M 60.1 -58.35
Q 60.1 -59.25 59.6 -59.95 59.1 -60.7 58.15 -61.1 57.2 -61.55 55.85 -61.55 54.55 -61.55 53.5 -61.25 52.45 -60.95 51.85 -60.6
L 52.45 -58.4
Q 52.9 -58.65 53.6 -58.9 54.35 -59.15 55.15 -59.2 56.1 -59.2 56.6 -58.8 57.05 -58.45 57.05 -57.85 57.05 -57.3 56.7 -57 56.35 -56.65 55.8 -56.5 55.3 -56.4 54.75 -56.35
L 53.6 -56.35 53.6 -54.2 54.85 -54.2
Q 55.5 -54.2 56.1 -54 56.65 -53.8 57.05 -53.4 57.4 -53 57.4 -52.4 57.4 -51.65 56.8 -51.15 56.25 -50.7 55.05 -50.65 54.1 -50.7 53.3 -50.95 52.5 -51.2 52.05 -51.45
L 51.45 -49.2
Q 52 -48.85 53 -48.55 54 -48.3 55.25 -48.3 56.9 -48.3 58.1 -48.8 59.25 -49.3 59.9 -50.2 60.55 -51.1 60.55 -52.2 60.55 -53.05 60.15 -53.7 59.8 -54.35 59.15 -54.8 58.55 -55.2 57.75 -55.35
L 57.75 -55.4
Q 58.95 -55.8 59.5 -56.55 60.1 -57.35 60.1 -58.35
M 57.6 -83.3
L 55.1 -83.3 51.7 -81.7 52.15 -79.45 54.65 -80.65 54.65 -70.45 57.6 -70.45 57.6 -83.3
M 94.05 -122.85
L 94.05 -175.35 28.75 -175.35 28.75 -122.85 94.05 -122.85
M 93.05 -174.35
L 93.05 -123.85 29.75 -123.85 29.75 -174.35 93.05 -174.35
M 54.3 -141.05
Q 53.2 -141.7 51.25 -141.75 49.65 -141.7 48.5 -141.4 47.4 -141.1 46.75 -140.7
L 47.45 -138.4
Q 48 -138.75 48.85 -139 49.7 -139.25 50.6 -139.25 51.5 -139.25 51.95 -139.05 52.4 -138.8 52.6 -138.45 52.75 -138.1 52.75 -137.8
L 52.75 -137.65
Q 50.7 -137.65 49.15 -137.15 47.6 -136.7 46.8 -135.7 45.95 -134.7 45.95 -133.2 45.95 -132.25 46.4 -131.45 46.8 -130.65 47.65 -130.15 48.5 -129.65 49.65 -129.65 50.7 -129.65 51.55 -130 52.4 -130.35 53 -131.05
L 53.05 -131.05 53.3 -129.9 56.5 -129.9
Q 56.45 -130.4 56.4 -131.15 56.35 -131.9 56.35 -132.7
L 56.35 -136.75
Q 56.35 -138.15 55.9 -139.25 55.4 -140.35 54.3 -141.05
M 49.9 -132.5
Q 49.5 -132.85 49.5 -133.55 49.5 -134.25 49.95 -134.65 50.4 -135.05 51.15 -135.2 51.9 -135.4 52.85 -135.35
L 52.85 -134.1
Q 52.85 -133.95 52.85 -133.8 52.8 -133.65 52.8 -133.5 52.6 -132.95 52.1 -132.55 51.6 -132.2 50.9 -132.2 50.3 -132.2 49.9 -132.5
M 62.8 -129.9
L 62.8 -146.7 59.2 -146.7 59.2 -129.9 62.8 -129.9
M 72.7 -138.6
L 73.35 -141.1
Q 72.8 -141.35 71.95 -141.55 71.1 -141.7 70.05 -141.75 68.65 -141.7 67.6 -141.25 66.55 -140.75 65.95 -139.9 65.4 -139.05 65.35 -137.95 65.35 -136.9 66.1 -136 66.9 -135.1 68.65 -134.45 69.65 -134.15 70 -133.85 70.4 -133.6 70.35 -133.15 70.4 -132.7 70 -132.45 69.65 -132.2 68.8 -132.2 68.3 -132.2 67.7 -132.3 67.1 -132.45 66.6 -132.65 66.05 -132.85 65.7 -133.05
L 65.1 -130.5
Q 65.75 -130.1 66.7 -129.9 67.7 -129.7 68.8 -129.65 70.5 -129.7 71.6 -130.15 72.7 -130.65 73.3 -131.5 73.85 -132.3 73.85 -133.4 73.85 -134.7 73.1 -135.55 72.35 -136.4 70.7 -137 69.65 -137.35 69.25 -137.65 68.8 -137.9 68.8 -138.3 68.8 -138.75 69.2 -139 69.55 -139.25 70.2 -139.25 70.95 -139.25 71.65 -139.05 72.3 -138.8 72.7 -138.6
M 37.55 -141.5
L 37.55 -138.85 39.05 -138.85 39.05 -129.9 42.65 -129.9 42.65 -138.85 45 -138.85 45 -141.5 42.65 -141.5 42.65 -142.05
Q 42.65 -142.95 43.05 -143.55 43.45 -144.1 44.35 -144.15 44.7 -144.15 45 -144.1 45.25 -144.05 45.5 -143.95
L 45.65 -146.75
Q 45.25 -146.85 44.8 -146.9 44.3 -147 43.7 -147 42.9 -147 42.05 -146.7 41.2 -146.45 40.5 -145.8 39.75 -145.1 39.4 -144.05 39.05 -143 39.05 -141.95
L 39.05 -141.5 37.55 -141.5
M 59.2 -160.1
Q 59.2 -158.3 59.75 -157.2 60.25 -156.1 61.2 -155.55 62.1 -155.05 63.25 -155.05 64.3 -155.05 65.05 -155.4 65.75 -155.7 66.2 -156.15 66.7 -156.55 66.9 -156.95
L 67 -156.95 67.15 -155.3 70.25 -155.3
Q 70.25 -156.05 70.2 -156.95 70.15 -157.9 70.15 -159
L 70.15 -166.9 66.55 -166.9 66.55 -160
Q 66.55 -159.8 66.55 -159.6 66.5 -159.35 66.45 -159.2 66.25 -158.75 65.8 -158.4 65.35 -158 64.65 -157.95 63.7 -157.95 63.25 -158.7 62.8 -159.4 62.8 -160.65
L 62.8 -166.9 59.2 -166.9 59.2 -160.1
M 40.6 -166.9
L 40.6 -164.25 42.15 -164.25 42.15 -159.5
Q 42.15 -158.25 42.4 -157.45 42.65 -156.55 43.15 -156.05 43.55 -155.6 44.25 -155.35 44.95 -155.1 45.85 -155.05 46.6 -155.05 47.2 -155.15 47.85 -155.25 48.2 -155.4
L 48.15 -158.1
Q 47.95 -158.05 47.7 -158.05 47.45 -158 47.1 -158 46.3 -158 45.95 -158.5 45.65 -159 45.65 -160.05
L 45.65 -164.25 48.25 -164.25 48.25 -166.9 45.65 -166.9 45.65 -170.2 42.15 -169.4 42.15 -166.9 40.6 -166.9
M 57.45 -167.1
Q 57.25 -167.1 57.1 -167.1 56.95 -167.15 56.7 -167.15 56.1 -167.15 55.5 -166.9 54.9 -166.65 54.4 -166.1 53.9 -165.6 53.55 -164.75
L 53.45 -164.75 53.35 -166.9 50.25 -166.9
Q 50.3 -166.15 50.3 -165.25 50.35 -164.35 50.35 -163.05
L 50.35 -155.3 53.95 -155.3 53.95 -161.2
Q 53.95 -161.4 53.95 -161.6 54 -161.8 54 -162 54.2 -162.8 54.85 -163.3 55.45 -163.8 56.5 -163.8 56.8 -163.8 57 -163.75 57.25 -163.75 57.45 -163.7
L 57.45 -167.1
M 85.85 -138.75
Q 85.3 -140.05 84.2 -140.85 83.05 -141.7 81.2 -141.75 79.7 -141.7 78.6 -141.2 77.45 -140.65 76.75 -139.75 76.05 -138.85 75.7 -137.75 75.35 -136.65 75.35 -135.55 75.35 -132.8 76.95 -131.25 78.55 -129.7 81.5 -129.65 82.7 -129.65 83.75 -129.85 84.8 -130.05 85.7 -130.35
L 85.25 -132.8
Q 84.5 -132.6 83.75 -132.45 82.95 -132.35 82.05 -132.35 81.2 -132.35 80.5 -132.6 79.75 -132.8 79.3 -133.3 78.85 -133.8 78.75 -134.55
L 86.25 -134.55
Q 86.25 -134.75 86.3 -135.1 86.35 -135.5 86.35 -135.95 86.35 -137.4 85.85 -138.75
M 82.85 -138
Q 83 -137.45 83 -137
L 78.75 -137
Q 78.8 -137.5 79.05 -138.05 79.25 -138.6 79.75 -138.95 80.2 -139.35 80.95 -139.35 81.8 -139.3 82.25 -138.9 82.7 -138.55 82.85 -138
M 82.8 -155.75
L 82.35 -158.2
Q 81.6 -158 80.85 -157.85 80.05 -157.75 79.15 -157.75 78.3 -157.75 77.6 -158 76.85 -158.2 76.4 -158.7 75.95 -159.2 75.85 -159.95
L 83.35 -159.95
Q 83.35 -160.15 83.4 -160.5 83.45 -160.9 83.45 -161.35 83.45 -162.8 82.95 -164.15 82.4 -165.45 81.3 -166.25 80.15 -167.1 78.3 -167.15 76.8 -167.1 75.7 -166.6 74.55 -166.05 73.85 -165.15 73.15 -164.25 72.8 -163.15 72.45 -162.05 72.45 -160.95 72.45 -158.2 74.05 -156.65 75.65 -155.1 78.6 -155.05 79.8 -155.05 80.85 -155.25 81.9 -155.45 82.8 -155.75
M 79.35 -164.3
Q 79.8 -163.95 79.95 -163.4 80.1 -162.85 80.1 -162.4
L 75.85 -162.4
Q 75.9 -162.9 76.15 -163.45 76.35 -164 76.85 -164.35 77.3 -164.75 78.05 -164.75 78.9 -164.7 79.35 -164.3
M 29.75 -272.5
L 29.75 -219.95 95.05 -219.95 95.05 -272.5 29.75 -272.5
M 30.75 -220.95
L 30.75 -271.5 94.05 -271.5 94.05 -220.95 30.75 -220.95
M 60.95 -227.6
L 60.95 -234.45
Q 60.95 -236.15 60.4 -237.25 59.85 -238.35 58.95 -238.9 58 -239.45 56.8 -239.45 55.85 -239.4 55.1 -239.1 54.4 -238.8 53.95 -238.4 53.45 -237.95 53.2 -237.6
L 53.15 -237.6 53 -239.2 49.85 -239.2
Q 49.9 -238.4 49.9 -237.5 49.95 -236.55 49.95 -235.5
L 49.95 -227.6 53.55 -227.6 53.55 -234.3
Q 53.55 -234.55 53.6 -234.75 53.6 -235 53.7 -235.15 53.85 -235.7 54.3 -236.1 54.75 -236.5 55.5 -236.5 56.5 -236.5 56.9 -235.85 57.35 -235.15 57.35 -234
L 57.35 -227.6 60.95 -227.6
M 74.55 -236.6
Q 73.8 -237.95 72.5 -238.65 71.15 -239.4 69.35 -239.45 67.5 -239.4 66.1 -238.65 64.7 -237.95 63.95 -236.55 63.2 -235.2 63.2 -233.3 63.2 -231.45 63.95 -230.1 64.75 -228.75 66.1 -228.05 67.45 -227.35 69.15 -227.35 70.75 -227.35 72.15 -228 73.5 -228.65 74.4 -230.05 75.25 -231.4 75.3 -233.5 75.3 -235.25 74.55 -236.6
M 67.9 -236.35
Q 68.4 -236.85 69.25 -236.9 70.1 -236.85 70.6 -236.35 71.1 -235.85 71.35 -235.05 71.55 -234.3 71.55 -233.4 71.55 -231.8 70.95 -230.9 70.35 -229.95 69.25 -229.95 68.5 -229.95 67.95 -230.4 67.45 -230.85 67.15 -231.6 66.9 -232.4 66.9 -233.4 66.9 -234.3 67.15 -235.05 67.35 -235.85 67.9 -236.35
M 75.15 -264.1
Q 73.75 -264.05 72.7 -263.6 71.65 -263.1 71.05 -262.25 70.5 -261.4 70.45 -260.3 70.45 -259.25 71.2 -258.35 72 -257.45 73.75 -256.8 74.75 -256.5 75.1 -256.2 75.5 -255.95 75.45 -255.5 75.5 -255.05 75.1 -254.8 74.75 -254.55 73.9 -254.55 73.4 -254.55 72.8 -254.65 72.2 -254.8 71.7 -255 71.15 -255.2 70.8 -255.4
L 70.2 -252.85
Q 70.85 -252.45 71.8 -252.25 72.8 -252.05 73.9 -252 75.6 -252.05 76.7 -252.5 77.8 -253 78.4 -253.85 78.95 -254.65 78.95 -255.75 78.95 -257.05 78.2 -257.9 77.45 -258.75 75.8 -259.35 74.75 -259.7 74.35 -260 73.9 -260.25 73.9 -260.65 73.9 -261.1 74.3 -261.35 74.65 -261.6 75.3 -261.6 76.05 -261.6 76.75 -261.4 77.4 -261.15 77.8 -260.95
L 78.45 -263.45
Q 77.9 -263.7 77.05 -263.9 76.2 -264.05 75.15 -264.1
M 57.15 -263.85
L 53.3 -263.85 51.9 -258.15
Q 51.75 -257.65 51.65 -257.05 51.5 -256.45 51.35 -256
L 51.3 -256
Q 51.2 -256.45 51.05 -257.05 50.85 -257.6 50.75 -258.15
L 49 -263.85 45 -263.85 49.25 -253.25
Q 49.35 -253.05 49.35 -252.9 49.4 -252.75 49.4 -252.65 49.4 -252.5 49.35 -252.4 49.3 -252.25 49.2 -252.1 48.95 -251.65 48.55 -251.3 48.15 -250.9 47.7 -250.7 47.3 -250.45 46.9 -250.25 46.5 -250.1 46.15 -250.05
L 46.9 -247
Q 47.6 -247.1 48.5 -247.45 49.45 -247.8 50.4 -248.6 51.05 -249.15 51.65 -250.05 52.3 -250.95 52.95 -252.45 53.65 -253.9 54.45 -256.2
L 57.15 -263.85
M 59.15 -262.1
Q 58.45 -261.2 58.1 -260.1 57.75 -259 57.75 -257.9 57.75 -255.15 59.35 -253.6 60.95 -252.05 63.9 -252 65.1 -252 66.15 -252.2 67.2 -252.4 68.1 -252.7
L 67.65 -255.15
Q 66.9 -254.95 66.15 -254.8 65.35 -254.7 64.45 -254.7 63.6 -254.7 62.9 -254.95 62.15 -255.15 61.7 -255.65 61.25 -256.15 61.15 -256.9
L 68.65 -256.9
Q 68.65 -257.1 68.7 -257.45 68.75 -257.85 68.75 -258.3 68.75 -259.75 68.25 -261.1 67.7 -262.4 66.6 -263.2 65.45 -264.05 63.6 -264.1 62.1 -264.05 61 -263.55 59.85 -263 59.15 -262.1
M 61.45 -260.4
Q 61.65 -260.95 62.15 -261.3 62.6 -261.7 63.35 -261.7 64.2 -261.65 64.65 -261.25 65.1 -260.9 65.25 -260.35 65.4 -259.8 65.4 -259.35
L 61.15 -259.35
Q 61.2 -259.85 61.45 -260.4
M 95.15 -324.05
L 95.15 -365 29.9 -365 29.9 -324.05 95.15 -324.05
M 94.15 -364
L 94.15 -325.05 30.9 -325.05 30.9 -364 94.15 -364
M 56.65 -351
Q 57.4 -351.6 58.5 -352.1 59.55 -352.6 60.85 -352.6 62.55 -352.6 63.35 -351.8 64.15 -350.95 64.15 -349.75 64.1 -348.6 63.4 -347.4 62.65 -346.15 61.25 -344.7 59.8 -343.25 57.65 -341.3
L 55.1 -339 55.1 -336.2 69.15 -336.2 69.15 -340 61.65 -340 61.65 -340.05 63.5 -341.6
Q 64.95 -342.85 66.1 -344.2 67.3 -345.55 68.05 -347 68.75 -348.45 68.75 -350.1 68.75 -351.95 67.95 -353.35 67.15 -354.75 65.6 -355.5 64.05 -356.35 61.8 -356.35 59.8 -356.3 58.1 -355.75 56.45 -355.15 55.3 -354.3
L 56.65 -351
M 48.55 -356
L 44.75 -356 39.5 -353.55 40.25 -350.1 44.05 -351.9 44.1 -351.9 44.1 -336.2 48.55 -336.2 48.55 -356
M 84.3 -348.65
Q 85.2 -349.8 85.2 -351.4 85.2 -352.75 84.4 -353.9 83.65 -355 82.2 -355.65 80.75 -356.35 78.6 -356.35 76.65 -356.3 75.05 -355.9 73.4 -355.45 72.45 -354.85
L 73.4 -351.5
Q 74.05 -351.9 75.2 -352.3 76.3 -352.65 77.55 -352.7 79.05 -352.65 79.75 -352.1 80.5 -351.5 80.5 -350.6 80.5 -349.8 79.95 -349.3 79.4 -348.8 78.55 -348.55 77.75 -348.35 76.95 -348.35
L 75.15 -348.35 75.15 -345 77.05 -345
Q 78.1 -345 79 -344.7 79.9 -344.4 80.45 -343.8 81 -343.15 81.05 -342.2 81.05 -341.05 80.1 -340.3 79.2 -339.55 77.4 -339.55 75.95 -339.55 74.7 -340 73.45 -340.4 72.8 -340.75
L 71.85 -337.25
Q 72.75 -336.7 74.25 -336.3 75.8 -335.9 77.75 -335.85 80.25 -335.9 82.05 -336.65 83.9 -337.45 84.85 -338.8 85.85 -340.15 85.85 -341.95 85.85 -343.25 85.25 -344.25 84.7 -345.25 83.7 -345.9 82.75 -346.55 81.55 -346.75
L 81.55 -346.8
Q 83.4 -347.45 84.3 -348.65
M 29.85 -462.15
L 29.85 -421.15 95.15 -421.15 95.15 -462.15 29.85 -462.15
M 30.85 -422.15
L 30.85 -461.15 94.15 -461.15 94.15 -422.15 30.85 -422.15
M 76.5 -444.6
Q 75.5 -442.8 75.5 -440.6 75.55 -438.25 76.5 -436.55 77.45 -434.85 79.25 -433.95 81 -433 83.4 -433 84.75 -433 85.85 -433.2 86.95 -433.4 87.55 -433.65
L 87 -437.1
Q 86.5 -436.9 85.85 -436.75 85.15 -436.65 84.35 -436.65 83.2 -436.65 82.3 -437.1 81.35 -437.6 80.8 -438.5 80.3 -439.45 80.25 -440.8 80.25 -442.65 81.35 -443.8 82.4 -444.95 84.25 -444.95 85.15 -444.95 85.8 -444.85 86.45 -444.7 86.85 -444.5
L 87.6 -447.95
Q 86.85 -448.25 85.9 -448.4 85 -448.55 84.05 -448.55 81.25 -448.5 79.35 -447.45 77.45 -446.4 76.5 -444.6
M 62.65 -446.4
L 62.65 -454.95 58 -454.95 58 -437.75
Q 58 -436.45 58 -435.25 57.95 -434.05 57.9 -433.3
L 61.85 -433.3 62 -435.4 62.05 -435.4
Q 62.9 -434.05 64.05 -433.5 65.25 -432.95 66.55 -432.95 68.3 -432.95 69.85 -433.85 71.4 -434.75 72.4 -436.55 73.35 -438.35 73.4 -441 73.4 -443.3 72.6 -445 71.8 -446.7 70.45 -447.6 69.05 -448.5 67.25 -448.55 65.7 -448.5 64.55 -447.95 63.4 -447.4 62.7 -446.4
L 62.65 -446.4
M 67.25 -444.4
Q 67.95 -443.85 68.35 -442.9 68.65 -442 68.65 -440.8 68.65 -438.8 67.8 -437.7 66.95 -436.65 65.45 -436.65 64.45 -436.65 63.7 -437.25 63 -437.85 62.75 -438.85 62.65 -439.2 62.65 -439.65
L 62.65 -441.85
Q 62.65 -442.05 62.65 -442.25 62.7 -442.5 62.75 -442.7 63 -443.7 63.75 -444.3 64.5 -444.95 65.45 -444.95 66.55 -444.95 67.25 -444.4
M 49.2 -453.85
L 43.1 -453.85 36.8 -433.3 41.65 -433.3 43.1 -438.6 49 -438.6 50.6 -433.3 55.6 -433.3 49.2 -453.85
M 45.95 -450.4
L 46 -450.4
Q 46.25 -449.45 46.5 -448.4 46.8 -447.35 47.05 -446.4
L 48.35 -442.05 43.8 -442.05 45 -446.4
Q 45.25 -447.35 45.5 -448.4 45.7 -449.45 45.95 -450.4
M 31.1 -539.15
L 50.35 -539.15 50.35 -558.45 31.1 -558.45 31.1 -539.15
M 49.35 -557.45
L 49.35 -540.15 32.1 -540.15 32.1 -557.45 49.35 -557.45
M 35.45 -543.1
L 38 -543.1 38.8 -545.9 41.85 -545.9 42.7 -543.1 45.35 -543.1 42 -553.9 38.8 -553.9 35.45 -543.1
M 40.85 -550
L 41.5 -547.7 39.15 -547.7 39.75 -550
Q 39.9 -550.45 40.05 -551.05 40.15 -551.6 40.25 -552.1
L 40.3 -552.1
Q 40.4 -551.6 40.55 -551.05 40.7 -550.5 40.85 -550
M 72.3 -536.05
L 53 -536.05 53 -516.7 72.3 -516.7 72.3 -536.05
M 71.3 -517.7
L 54 -517.7 54 -535.05 71.3 -535.05 71.3 -517.7
M 62.4 -530.2
L 66.65 -530.2 66.65 -532.2 59.95 -532.2 59.95 -521.4 66.85 -521.4 66.85 -523.4 62.4 -523.4 62.4 -525.95 66.4 -525.95 66.4 -527.95 62.4 -527.95 62.4 -530.2
M 31.1 -536.05
L 31.1 -516.7 50.35 -516.7 50.35 -536.05 31.1 -536.05
M 32.1 -517.7
L 32.1 -535.05 49.35 -535.05 49.35 -517.7 32.1 -517.7
M 39.25 -532.3
Q 38.3 -532.3 37.5 -532.2 36.65 -532.15 35.95 -532.05
L 35.95 -521.45
Q 36.4 -521.4 37.1 -521.35 37.8 -521.3 38.75 -521.3 40.35 -521.3 41.6 -521.65 42.85 -522 43.7 -522.7 44.5 -523.35 45 -524.45 45.5 -525.5 45.5 -527.05 45.5 -528.5 45 -529.5 44.55 -530.5 43.7 -531.1 42.9 -531.7 41.85 -532 40.8 -532.3 39.25 -532.3
M 38.4 -530.3
Q 38.55 -530.35 38.85 -530.35 39.1 -530.4 39.5 -530.4 41.1 -530.4 42 -529.55 42.9 -528.65 42.9 -527 42.9 -525.7 42.45 -524.85 42 -524 41.2 -523.6 40.35 -523.2 39.25 -523.2 39.05 -523.2 38.8 -523.2 38.55 -523.2 38.4 -523.25
L 38.4 -530.3
M 72.3 -558.45
L 53 -558.45 53 -539.15 72.3 -539.15 72.3 -558.45
M 54 -557.45
L 71.3 -557.45 71.3 -540.15 54 -540.15 54 -557.45
M 59.45 -553.85
Q 58.95 -553.85 58.6 -553.75
L 58.6 -543.15
Q 59 -543.1 59.7 -543.05 60.35 -543 61.25 -543 62.85 -543 63.9 -543.25 64.9 -543.5 65.5 -543.95 66 -544.4 66.3 -544.95 66.6 -545.55 66.65 -546.25 66.6 -547.3 66 -548 65.4 -548.65 64.45 -548.9
L 64.45 -548.95
Q 65.4 -549.3 65.85 -549.9 66.25 -550.5 66.25 -551.25 66.25 -552 65.9 -552.55 65.55 -553.05 64.95 -553.35 64.4 -553.7 63.65 -553.85 62.85 -554 61.75 -554 61.15 -554 60.55 -553.95 59.95 -553.9 59.45 -553.85
M 62.05 -552.2
Q 62.9 -552.2 63.35 -551.9 63.8 -551.55 63.8 -550.95 63.8 -550.35 63.3 -550 62.8 -549.65 61.85 -549.6
L 61.05 -549.6 61.05 -552.15
Q 61.2 -552.15 61.45 -552.2 61.7 -552.2 62.05 -552.2
M 61.05 -547.9
L 61.85 -547.9
Q 62.5 -547.9 63 -547.75 63.45 -547.55 63.75 -547.25 64.05 -546.9 64.05 -546.35 64.05 -545.8 63.75 -545.45 63.5 -545.1 63 -544.95 62.55 -544.8 61.95 -544.8 61.65 -544.8 61.45 -544.8 61.2 -544.8 61.05 -544.85
L 61.05 -547.9
M 94.1 -539.15
L 94.1 -558.45 74.8 -558.45 74.8 -539.15 94.1 -539.15
M 93.1 -557.45
L 93.1 -540.15 75.8 -540.15 75.8 -557.45 93.1 -557.45
M 87.95 -551.65
L 88.45 -553.6
Q 88.1 -553.75 87.4 -553.9 86.7 -554.05 85.75 -554.1 84.1 -554.05 82.8 -553.4 81.45 -552.75 80.65 -551.45 79.9 -550.2 79.85 -548.35 79.85 -546.8 80.5 -545.55 81.15 -544.35 82.4 -543.65 83.65 -542.95 85.5 -542.95 86.5 -542.95 87.25 -543.1 87.95 -543.25 88.3 -543.4
L 87.95 -545.3
Q 87.55 -545.15 87 -545.05 86.45 -544.95 85.9 -544.95 84.25 -545 83.35 -545.9 82.45 -546.85 82.45 -548.5 82.45 -549.7 82.9 -550.5 83.35 -551.25 84.1 -551.65 84.9 -552.05 85.9 -552.05 86.55 -552.05 87.05 -551.95 87.55 -551.8 87.95 -551.65
M 94.1 -516.7
L 94.1 -536.05 74.8 -536.05 74.8 -516.7 94.1 -516.7
M 93.1 -535.05
L 93.1 -517.7 75.8 -517.7 75.8 -535.05 93.1 -535.05
M 88.45 -532.2
L 81.85 -532.2 81.85 -521.4 84.3 -521.4 84.3 -525.75 88.2 -525.75 88.2 -527.75 84.3 -527.75 84.3 -530.2 88.45 -530.2 88.45 -532.2
M 86.8 -663.3
Q 87.25 -663.85 87.25 -664.6 87.25 -665.2 86.9 -665.75 86.55 -666.25 85.85 -666.55 85.15 -666.9 84.15 -666.9 83.25 -666.9 82.5 -666.7 81.7 -666.45 81.3 -666.2
L 81.75 -664.6
Q 82.05 -664.8 82.55 -665 83.1 -665.15 83.65 -665.2 84.35 -665.15 84.7 -664.9 85.05 -664.65 85.05 -664.2 85.05 -663.8 84.8 -663.6 84.5 -663.35 84.15 -663.25 83.75 -663.15 83.4 -663.15
L 82.55 -663.15 82.55 -661.6 83.45 -661.6
Q 83.9 -661.6 84.35 -661.45 84.75 -661.3 85 -661 85.3 -660.7 85.3 -660.25 85.3 -659.7 84.85 -659.35 84.45 -659.05 83.6 -659 82.9 -659.05 82.35 -659.2 81.75 -659.4 81.45 -659.6
L 81 -657.95
Q 81.4 -657.7 82.15 -657.5 82.85 -657.3 83.75 -657.3 84.95 -657.3 85.8 -657.65 86.65 -658.05 87.1 -658.65 87.55 -659.3 87.55 -660.15 87.55 -660.75 87.3 -661.2 87 -661.7 86.55 -662 86.1 -662.3 85.55 -662.4
L 85.55 -662.45
Q 86.4 -662.75 86.8 -663.3
M 43.5 -623.9
L 45.3 -624.75 45.3 -617.4 47.4 -617.4 47.4 -626.7 45.6 -626.7 43.15 -625.55 43.5 -623.9
M 37.85 -627.05
L 35.65 -627.05 35.65 -617.4 41.65 -617.4 41.65 -619.25 37.85 -619.25 37.85 -627.05
M 34.25 -614.4
L 34.25 -611.4 53.9 -611.4 53.9 -631.2 74.7 -631.2 74.7 -650.95 90.95 -650.95 90.95 -653.95 71.7 -653.95 71.7 -634.2 50.9 -634.2 50.9 -614.4 34.25 -614.4
M 64.8 -645
Q 65.15 -644.6 65.15 -644.05 65.15 -643.5 64.8 -642.95 64.45 -642.4 63.8 -641.7 63.1 -641 62.1 -640.1
L 60.9 -639 60.9 -637.7 67.5 -637.7 67.5 -639.5 64 -639.5 64.85 -640.25
Q 65.5 -640.85 66.1 -641.45 66.65 -642.1 66.95 -642.75 67.3 -643.45 67.3 -644.25 67.3 -645.1 66.95 -645.75 66.55 -646.4 65.85 -646.75 65.1 -647.15 64.05 -647.15 63.1 -647.15 62.3 -646.85 61.55 -646.6 61 -646.2
L 61.65 -644.65
Q 62 -644.9 62.5 -645.15 63 -645.4 63.6 -645.4 64.4 -645.4 64.8 -645
M 74.15 -667.1
L 74.15 -657.45 80.15 -657.45 80.15 -659.3 76.35 -659.3 76.35 -667.1 74.15 -667.1
M 56.2 -647.35
L 54 -647.35 54 -637.7 60 -637.7 60 -639.55 56.2 -639.55 56.2 -647.35 Z"/>
</g>

<g id="Layer0_0_FILL">
<path fill="#FFFFFF" stroke="none" d="
M 40.05 101.8
Q 39.25 102.55 39.25 103.6
L 39.25 135.55
Q 39.25 136.65 40.05 137.35 40.8 138.15 41.85 138.15
L 84.05 138.15
Q 85.1 138.15 85.85 137.35 86.6 136.65 86.6 135.55
L 86.6 103.6
Q 86.6 102.55 85.85 101.8 85.1 101.05 84.05 101.05
L 41.85 101.05
Q 40.8 101.05 40.05 101.8
M 43.75 134.25
L 43.75 105.05 82.05 105.05 82.05 134.25 43.75 134.25
M 71.05 117.1
L 60.5 126.15 54.75 119.65 45.4 132.45 79.6 132.5 71.05 117.1
M 77.85 33.2
L 77.85 31.15 65.4 31.15 65.4 33.2 77.85 33.2
M 48.1 37.85
L 47.05 36.05 36.25 42.25 37.35 44.05 48.1 37.85
M 51.95 41
L 50.15 39.95 43.95 50.7 45.75 51.75 51.95 41
M 46.3 33.2
L 46.3 31.15 33.85 31.15 33.85 33.2 46.3 33.2
M 47.05 28.25
L 48.1 26.45 37.35 20.25 36.25 22.05 47.05 28.25
M 59.75 32.65
Q 58.9 32.1 57.95 32.1 57.5 32.1 56.75 32.35 55.45 32.85 54.95 34.1 54.4 35.35 54.95 36.55
L 59.75 48.35 60.35 54.15
Q 59.35 56 60 57.6 60.25 58.3 60.9 58.95
L 67.8 66.95
Q 67.9 67.15 68.25 67.15
L 68.45 67.15 80.75 62.2
Q 81.15 62.05 81.15 61.6
L 79.8 47.65
Q 79.6 46.1 78.45 45.2 77.5 44.55 76.7 44.55
L 65.05 44.2 60.95 34.15
Q 60.55 33.25 59.75 32.65
M 50.15 24.35
L 51.95 23.35 45.75 12.6 43.95 13.6 50.15 24.35
M 56.9 22.55
L 56.9 10.15 54.8 10.15 54.8 22.55 56.9 22.55
M 75.4 22.05
L 74.4 20.25 63.65 26.45 64.65 28.25 75.4 22.05
M 67.8 13.6
L 65.95 12.6 59.75 23.35 61.5 24.35 67.8 13.6 Z"/>
</g>
</defs>

<g transform="matrix( 1, 0, 0, 1, 0,0) ">
<use xlink:href="#Layer1_0_FILL"/>
</g>

<g transform="matrix( 1.58001708984375, 0, 0, 1.5796661376953125, -44.3,-544.05) ">
<clipPath id="Mask_Mask_1">
<rect x="66.9" y="-2" width="10.2" height="16.05" fill="#FFFFFF" stroke="none"/>
</clipPath>

<text clip-path="url(#Mask_Mask_1)" writing-mode="lr"/>
</g>

<g transform="matrix( 1, 0, 0, 1, 0,0) ">
<use xlink:href="#Layer0_0_FILL"/>
</g>
</svg>
