
<svg xmlns="http://www.w3.org/2000/svg" version="1.1" xmlns:xlink="http://www.w3.org/1999/xlink" preserveAspectRatio="none" x="0px" y="0px" width="125px" height="80px" viewBox="0 0 125 80">
<defs>
<g id="Layer1_0_FILL">
<path fill="#FFFFFF" stroke="none" d="
M 95 -105.6
L 95 -167.35 28.7 -167.35 28.7 -105.6 95 -105.6
M 94 -166.35
L 94 -106.6 29.7 -106.6 29.7 -166.35 94 -166.35
M 65.9 -120.05
Q 67.7 -120.05 67.75 -118.45 67.65 -117.5 66.75 -116.4 65.85 -115.3 63.55 -113.25
L 61.85 -111.65 61.85 -109.4 71.5 -109.4 71.5 -112.5 67.25 -112.5 67.75 -112.95
Q 71.35 -116.15 71.3 -118.75 71.3 -120.75 70.05 -121.85 68.8 -123.1 66.5 -123.1 63.9 -123.1 62.15 -121.65
L 61.95 -121.55 63.05 -118.8 63.35 -119.05
Q 64.6 -120.05 65.9 -120.05
M 68.35 -118.4
L 68.35 -118.45
Q 68.35 -120.65 65.9 -120.65 64.55 -120.65 63.3 -119.75
L 62.65 -121.35
Q 64.25 -122.5 66.5 -122.5 68.5 -122.5 69.65 -121.4 70.7 -120.45 70.7 -118.75 70.65 -116.35 67.35 -113.4
L 65.7 -111.9 70.9 -111.9 70.9 -110 62.45 -110 62.45 -111.4 63.95 -112.8
Q 66.25 -114.9 67.2 -116 68.25 -117.3 68.35 -118.4
M 53.6 -138.9
Q 54.35 -139.15 55.15 -139.2 56.1 -139.2 56.6 -138.8 57.05 -138.45 57.05 -137.85 57.05 -137.3 56.7 -137 56.35 -136.65 55.8 -136.5 55.3 -136.4 54.75 -136.35
L 53.6 -136.35 53.6 -134.2 54.85 -134.2
Q 55.5 -134.2 56.1 -134 56.65 -133.8 57.05 -133.4 57.4 -133 57.4 -132.4 57.4 -131.65 56.8 -131.15 56.25 -130.7 55.05 -130.65 54.1 -130.7 53.3 -130.95 52.5 -131.2 52.05 -131.45
L 51.45 -129.2
Q 52 -128.85 53 -128.55 54 -128.3 55.25 -128.3 56.9 -128.3 58.1 -128.8 59.25 -129.3 59.9 -130.2 60.55 -131.1 60.55 -132.2 60.55 -133.05 60.15 -133.7 59.8 -134.35 59.15 -134.8 58.55 -135.2 57.75 -135.35
L 57.75 -135.4
Q 58.95 -135.8 59.5 -136.55 60.1 -137.35 60.1 -138.35 60.1 -139.25 59.6 -139.95 59.1 -140.7 58.15 -141.1 57.2 -141.55 55.85 -141.55 54.55 -141.55 53.5 -141.25 52.45 -140.95 51.85 -140.6
L 52.45 -138.4
Q 52.9 -138.65 53.6 -138.9
M 57.6 -150.45
L 57.6 -163.3 55.1 -163.3 51.7 -161.7 52.15 -159.45 54.65 -160.65 54.65 -150.45 57.6 -150.45
M 82.65 -123.55
Q 84.3 -126.9 84.3 -130.5 84.3 -136.85 79.8 -141.35 75.25 -145.9 68.85 -145.9
L 65.1 -145.9 65.1 -148.8 58.6 -145.05 65.1 -141.25 65.1 -144.9 68.85 -144.9
Q 74.85 -144.9 79.1 -140.65 83.3 -136.45 83.3 -130.5 83.3 -127.1 81.75 -124 80.25 -121.2 77.7 -119.15
L 78.3 -118.35
Q 81.05 -120.5 82.65 -123.55
M 28.75 -255.35
L 28.75 -202.85 94.05 -202.85 94.05 -255.35 28.75 -255.35
M 29.75 -203.85
L 29.75 -254.35 93.05 -254.35 93.05 -203.85 29.75 -203.85
M 59.2 -209.9
L 62.8 -209.9 62.8 -226.7 59.2 -226.7 59.2 -209.9
M 72.7 -218.6
L 73.35 -221.1
Q 72.8 -221.35 71.95 -221.55 71.1 -221.7 70.05 -221.75 68.65 -221.7 67.6 -221.25 66.55 -220.75 65.95 -219.9 65.4 -219.05 65.35 -217.95 65.35 -216.9 66.1 -216 66.9 -215.1 68.65 -214.45 69.65 -214.15 70 -213.85 70.4 -213.6 70.35 -213.15 70.4 -212.7 70 -212.45 69.65 -212.2 68.8 -212.2 68.3 -212.2 67.7 -212.3 67.1 -212.45 66.6 -212.65 66.05 -212.85 65.7 -213.05
L 65.1 -210.5
Q 65.75 -210.1 66.7 -209.9 67.7 -209.7 68.8 -209.65 70.5 -209.7 71.6 -210.15 72.7 -210.65 73.3 -211.5 73.85 -212.3 73.85 -213.4 73.85 -214.7 73.1 -215.55 72.35 -216.4 70.7 -217 69.65 -217.35 69.25 -217.65 68.8 -217.9 68.8 -218.3 68.8 -218.75 69.2 -219 69.55 -219.25 70.2 -219.25 70.95 -219.25 71.65 -219.05 72.3 -218.8 72.7 -218.6
M 78.6 -221.2
Q 77.45 -220.65 76.75 -219.75 76.05 -218.85 75.7 -217.75 75.35 -216.65 75.35 -215.55 75.35 -212.8 76.95 -211.25 78.55 -209.7 81.5 -209.65 82.7 -209.65 83.75 -209.85 84.8 -210.05 85.7 -210.35
L 85.25 -212.8
Q 84.5 -212.6 83.75 -212.45 82.95 -212.35 82.05 -212.35 81.2 -212.35 80.5 -212.6 79.75 -212.8 79.3 -213.3 78.85 -213.8 78.75 -214.55
L 86.25 -214.55
Q 86.25 -214.75 86.3 -215.1 86.35 -215.5 86.35 -215.95 86.35 -217.4 85.85 -218.75 85.3 -220.05 84.2 -220.85 83.05 -221.7 81.2 -221.75 79.7 -221.7 78.6 -221.2
M 79.75 -218.95
Q 80.2 -219.35 80.95 -219.35 81.8 -219.3 82.25 -218.9 82.7 -218.55 82.85 -218 83 -217.45 83 -217
L 78.75 -217
Q 78.8 -217.5 79.05 -218.05 79.25 -218.6 79.75 -218.95
M 56.35 -216.75
Q 56.35 -218.15 55.9 -219.25 55.4 -220.35 54.3 -221.05 53.2 -221.7 51.25 -221.75 49.65 -221.7 48.5 -221.4 47.4 -221.1 46.75 -220.7
L 47.45 -218.4
Q 48 -218.75 48.85 -219 49.7 -219.25 50.6 -219.25 51.5 -219.25 51.95 -219.05 52.4 -218.8 52.6 -218.45 52.75 -218.1 52.75 -217.8
L 52.75 -217.65
Q 50.7 -217.65 49.15 -217.15 47.6 -216.7 46.8 -215.7 45.95 -214.7 45.95 -213.2 45.95 -212.25 46.4 -211.45 46.8 -210.65 47.65 -210.15 48.5 -209.65 49.65 -209.65 50.7 -209.65 51.55 -210 52.4 -210.35 53 -211.05
L 53.05 -211.05 53.3 -209.9 56.5 -209.9
Q 56.45 -210.4 56.4 -211.15 56.35 -211.9 56.35 -212.7
L 56.35 -216.75
M 51.15 -215.2
Q 51.9 -215.4 52.85 -215.35
L 52.85 -214.1
Q 52.85 -213.95 52.85 -213.8 52.8 -213.65 52.8 -213.5 52.6 -212.95 52.1 -212.55 51.6 -212.2 50.9 -212.2 50.3 -212.2 49.9 -212.5 49.5 -212.85 49.5 -213.55 49.5 -214.25 49.95 -214.65 50.4 -215.05 51.15 -215.2
M 57.45 -243.7
L 57.45 -247.1
Q 57.25 -247.1 57.1 -247.1 56.95 -247.15 56.7 -247.15 56.1 -247.15 55.5 -246.9 54.9 -246.65 54.4 -246.1 53.9 -245.6 53.55 -244.75
L 53.45 -244.75 53.35 -246.9 50.25 -246.9
Q 50.3 -246.15 50.3 -245.25 50.35 -244.35 50.35 -243.05
L 50.35 -235.3 53.95 -235.3 53.95 -241.2
Q 53.95 -241.4 53.95 -241.6 54 -241.8 54 -242 54.2 -242.8 54.85 -243.3 55.45 -243.8 56.5 -243.8 56.8 -243.8 57 -243.75 57.25 -243.75 57.45 -243.7
M 70.15 -246.9
L 66.55 -246.9 66.55 -240
Q 66.55 -239.8 66.55 -239.6 66.5 -239.35 66.45 -239.2 66.25 -238.75 65.8 -238.4 65.35 -238 64.65 -237.95 63.7 -237.95 63.25 -238.7 62.8 -239.4 62.8 -240.65
L 62.8 -246.9 59.2 -246.9 59.2 -240.1
Q 59.2 -238.3 59.75 -237.2 60.25 -236.1 61.2 -235.55 62.1 -235.05 63.25 -235.05 64.3 -235.05 65.05 -235.4 65.75 -235.7 66.2 -236.15 66.7 -236.55 66.9 -236.95
L 67 -236.95 67.15 -235.3 70.25 -235.3
Q 70.25 -236.05 70.2 -236.95 70.15 -237.9 70.15 -239
L 70.15 -246.9
M 75.7 -246.6
Q 74.55 -246.05 73.85 -245.15 73.15 -244.25 72.8 -243.15 72.45 -242.05 72.45 -240.95 72.45 -238.2 74.05 -236.65 75.65 -235.1 78.6 -235.05 79.8 -235.05 80.85 -235.25 81.9 -235.45 82.8 -235.75
L 82.35 -238.2
Q 81.6 -238 80.85 -237.85 80.05 -237.75 79.15 -237.75 78.3 -237.75 77.6 -238 76.85 -238.2 76.4 -238.7 75.95 -239.2 75.85 -239.95
L 83.35 -239.95
Q 83.35 -240.15 83.4 -240.5 83.45 -240.9 83.45 -241.35 83.45 -242.8 82.95 -244.15 82.4 -245.45 81.3 -246.25 80.15 -247.1 78.3 -247.15 76.8 -247.1 75.7 -246.6
M 78.05 -244.75
Q 78.9 -244.7 79.35 -244.3 79.8 -243.95 79.95 -243.4 80.1 -242.85 80.1 -242.4
L 75.85 -242.4
Q 75.9 -242.9 76.15 -243.45 76.35 -244 76.85 -244.35 77.3 -244.75 78.05 -244.75
M 37.55 -221.5
L 37.55 -218.85 39.05 -218.85 39.05 -209.9 42.65 -209.9 42.65 -218.85 45 -218.85 45 -221.5 42.65 -221.5 42.65 -222.05
Q 42.65 -222.95 43.05 -223.55 43.45 -224.1 44.35 -224.15 44.7 -224.15 45 -224.1 45.25 -224.05 45.5 -223.95
L 45.65 -226.75
Q 45.25 -226.85 44.8 -226.9 44.3 -227 43.7 -227 42.9 -227 42.05 -226.7 41.2 -226.45 40.5 -225.8 39.75 -225.1 39.4 -224.05 39.05 -223 39.05 -221.95
L 39.05 -221.5 37.55 -221.5
M 45.65 -250.2
L 42.15 -249.4 42.15 -246.9 40.6 -246.9 40.6 -244.25 42.15 -244.25 42.15 -239.5
Q 42.15 -238.25 42.4 -237.45 42.65 -236.55 43.15 -236.05 43.55 -235.6 44.25 -235.35 44.95 -235.1 45.85 -235.05 46.6 -235.05 47.2 -235.15 47.85 -235.25 48.2 -235.4
L 48.15 -238.1
Q 47.95 -238.05 47.7 -238.05 47.45 -238 47.1 -238 46.3 -238 45.95 -238.5 45.65 -239 45.65 -240.05
L 45.65 -244.25 48.25 -244.25 48.25 -246.9 45.65 -246.9 45.65 -250.2
M 95.05 -299.95
L 95.05 -352.5 29.75 -352.5 29.75 -299.95 95.05 -299.95
M 94.05 -351.5
L 94.05 -300.95 30.75 -300.95 30.75 -351.5 94.05 -351.5
M 74.55 -316.6
Q 73.8 -317.95 72.5 -318.65 71.15 -319.4 69.35 -319.45 67.5 -319.4 66.1 -318.65 64.7 -317.95 63.95 -316.55 63.2 -315.2 63.2 -313.3 63.2 -311.45 63.95 -310.1 64.75 -308.75 66.1 -308.05 67.45 -307.35 69.15 -307.35 70.75 -307.35 72.15 -308 73.5 -308.65 74.4 -310.05 75.25 -311.4 75.3 -313.5 75.3 -315.25 74.55 -316.6
M 71.35 -315.05
Q 71.55 -314.3 71.55 -313.4 71.55 -311.8 70.95 -310.9 70.35 -309.95 69.25 -309.95 68.5 -309.95 67.95 -310.4 67.45 -310.85 67.15 -311.6 66.9 -312.4 66.9 -313.4 66.9 -314.3 67.15 -315.05 67.35 -315.85 67.9 -316.35 68.4 -316.85 69.25 -316.9 70.1 -316.85 70.6 -316.35 71.1 -315.85 71.35 -315.05
M 58.95 -318.9
Q 58 -319.45 56.8 -319.45 55.85 -319.4 55.1 -319.1 54.4 -318.8 53.95 -318.4 53.45 -317.95 53.2 -317.6
L 53.15 -317.6 53 -319.2 49.85 -319.2
Q 49.9 -318.4 49.9 -317.5 49.95 -316.55 49.95 -315.5
L 49.95 -307.6 53.55 -307.6 53.55 -314.3
Q 53.55 -314.55 53.6 -314.75 53.6 -315 53.7 -315.15 53.85 -315.7 54.3 -316.1 54.75 -316.5 55.5 -316.5 56.5 -316.5 56.9 -315.85 57.35 -315.15 57.35 -314
L 57.35 -307.6 60.95 -307.6 60.95 -314.45
Q 60.95 -316.15 60.4 -317.25 59.85 -318.35 58.95 -318.9
M 51.9 -338.15
Q 51.75 -337.65 51.65 -337.05 51.5 -336.45 51.35 -336
L 51.3 -336
Q 51.2 -336.45 51.05 -337.05 50.85 -337.6 50.75 -338.15
L 49 -343.85 45 -343.85 49.25 -333.25
Q 49.35 -333.05 49.35 -332.9 49.4 -332.75 49.4 -332.65 49.4 -332.5 49.35 -332.4 49.3 -332.25 49.2 -332.1 48.95 -331.65 48.55 -331.3 48.15 -330.9 47.7 -330.7 47.3 -330.45 46.9 -330.25 46.5 -330.1 46.15 -330.05
L 46.9 -327
Q 47.6 -327.1 48.5 -327.45 49.45 -327.8 50.4 -328.6 51.05 -329.15 51.65 -330.05 52.3 -330.95 52.95 -332.45 53.65 -333.9 54.45 -336.2
L 57.15 -343.85 53.3 -343.85 51.9 -338.15
M 68.25 -341.1
Q 67.7 -342.4 66.6 -343.2 65.45 -344.05 63.6 -344.1 62.1 -344.05 61 -343.55 59.85 -343 59.15 -342.1 58.45 -341.2 58.1 -340.1 57.75 -339 57.75 -337.9 57.75 -335.15 59.35 -333.6 60.95 -332.05 63.9 -332 65.1 -332 66.15 -332.2 67.2 -332.4 68.1 -332.7
L 67.65 -335.15
Q 66.9 -334.95 66.15 -334.8 65.35 -334.7 64.45 -334.7 63.6 -334.7 62.9 -334.95 62.15 -335.15 61.7 -335.65 61.25 -336.15 61.15 -336.9
L 68.65 -336.9
Q 68.65 -337.1 68.7 -337.45 68.75 -337.85 68.75 -338.3 68.75 -339.75 68.25 -341.1
M 62.15 -341.3
Q 62.6 -341.7 63.35 -341.7 64.2 -341.65 64.65 -341.25 65.1 -340.9 65.25 -340.35 65.4 -339.8 65.4 -339.35
L 61.15 -339.35
Q 61.2 -339.85 61.45 -340.4 61.65 -340.95 62.15 -341.3
M 78.45 -343.45
Q 77.9 -343.7 77.05 -343.9 76.2 -344.05 75.15 -344.1 73.75 -344.05 72.7 -343.6 71.65 -343.1 71.05 -342.25 70.5 -341.4 70.45 -340.3 70.45 -339.25 71.2 -338.35 72 -337.45 73.75 -336.8 74.75 -336.5 75.1 -336.2 75.5 -335.95 75.45 -335.5 75.5 -335.05 75.1 -334.8 74.75 -334.55 73.9 -334.55 73.4 -334.55 72.8 -334.65 72.2 -334.8 71.7 -335 71.15 -335.2 70.8 -335.4
L 70.2 -332.85
Q 70.85 -332.45 71.8 -332.25 72.8 -332.05 73.9 -332 75.6 -332.05 76.7 -332.5 77.8 -333 78.4 -333.85 78.95 -334.65 78.95 -335.75 78.95 -337.05 78.2 -337.9 77.45 -338.75 75.8 -339.35 74.75 -339.7 74.35 -340 73.9 -340.25 73.9 -340.65 73.9 -341.1 74.3 -341.35 74.65 -341.6 75.3 -341.6 76.05 -341.6 76.75 -341.4 77.4 -341.15 77.8 -340.95
L 78.45 -343.45
M 29.9 -445
L 29.9 -404.05 95.15 -404.05 95.15 -445 29.9 -445
M 30.9 -405.05
L 30.9 -444 94.15 -444 94.15 -405.05 30.9 -405.05
M 67.95 -433.35
Q 67.15 -434.75 65.6 -435.5 64.05 -436.35 61.8 -436.35 59.8 -436.3 58.1 -435.75 56.45 -435.15 55.3 -434.3
L 56.65 -431
Q 57.4 -431.6 58.5 -432.1 59.55 -432.6 60.85 -432.6 62.55 -432.6 63.35 -431.8 64.15 -430.95 64.15 -429.75 64.1 -428.6 63.4 -427.4 62.65 -426.15 61.25 -424.7 59.8 -423.25 57.65 -421.3
L 55.1 -419 55.1 -416.2 69.15 -416.2 69.15 -420 61.65 -420 61.65 -420.05 63.5 -421.6
Q 64.95 -422.85 66.1 -424.2 67.3 -425.55 68.05 -427 68.75 -428.45 68.75 -430.1 68.75 -431.95 67.95 -433.35
M 78.6 -436.35
Q 76.65 -436.3 75.05 -435.9 73.4 -435.45 72.45 -434.85
L 73.4 -431.5
Q 74.05 -431.9 75.2 -432.3 76.3 -432.65 77.55 -432.7 79.05 -432.65 79.75 -432.1 80.5 -431.5 80.5 -430.6 80.5 -429.8 79.95 -429.3 79.4 -428.8 78.55 -428.55 77.75 -428.35 76.95 -428.35
L 75.15 -428.35 75.15 -425 77.05 -425
Q 78.1 -425 79 -424.7 79.9 -424.4 80.45 -423.8 81 -423.15 81.05 -422.2 81.05 -421.05 80.1 -420.3 79.2 -419.55 77.4 -419.55 75.95 -419.55 74.7 -420 73.45 -420.4 72.8 -420.75
L 71.85 -417.25
Q 72.75 -416.7 74.25 -416.3 75.8 -415.9 77.75 -415.85 80.25 -415.9 82.05 -416.65 83.9 -417.45 84.85 -418.8 85.85 -420.15 85.85 -421.95 85.85 -423.25 85.25 -424.25 84.7 -425.25 83.7 -425.9 82.75 -426.55 81.55 -426.75
L 81.55 -426.8
Q 83.4 -427.45 84.3 -428.65 85.2 -429.8 85.2 -431.4 85.2 -432.75 84.4 -433.9 83.65 -435 82.2 -435.65 80.75 -436.35 78.6 -436.35
M 39.5 -433.55
L 40.25 -430.1 44.05 -431.9 44.1 -431.9 44.1 -416.2 48.55 -416.2 48.55 -436 44.75 -436 39.5 -433.55
M 95.15 -501.15
L 95.15 -542.15 29.85 -542.15 29.85 -501.15 95.15 -501.15
M 94.15 -541.15
L 94.15 -502.15 30.85 -502.15 30.85 -541.15 94.15 -541.15
M 49.2 -533.85
L 43.1 -533.85 36.8 -513.3 41.65 -513.3 43.1 -518.6 49 -518.6 50.6 -513.3 55.6 -513.3 49.2 -533.85
M 45.95 -530.4
L 46 -530.4
Q 46.25 -529.45 46.5 -528.4 46.8 -527.35 47.05 -526.4
L 48.35 -522.05 43.8 -522.05 45 -526.4
Q 45.25 -527.35 45.5 -528.4 45.7 -529.45 45.95 -530.4
M 70.45 -527.6
Q 69.05 -528.5 67.25 -528.55 65.7 -528.5 64.55 -527.95 63.4 -527.4 62.7 -526.4
L 62.65 -526.4 62.65 -534.95 58 -534.95 58 -517.75
Q 58 -516.45 58 -515.25 57.95 -514.05 57.9 -513.3
L 61.85 -513.3 62 -515.4 62.05 -515.4
Q 62.9 -514.05 64.05 -513.5 65.25 -512.95 66.55 -512.95 68.3 -512.95 69.85 -513.85 71.4 -514.75 72.4 -516.55 73.35 -518.35 73.4 -521 73.4 -523.3 72.6 -525 71.8 -526.7 70.45 -527.6
M 62.75 -522.7
Q 63 -523.7 63.75 -524.3 64.5 -524.95 65.45 -524.95 66.55 -524.95 67.25 -524.4 67.95 -523.85 68.35 -522.9 68.65 -522 68.65 -520.8 68.65 -518.8 67.8 -517.7 66.95 -516.65 65.45 -516.65 64.45 -516.65 63.7 -517.25 63 -517.85 62.75 -518.85 62.65 -519.2 62.65 -519.65
L 62.65 -521.85
Q 62.65 -522.05 62.65 -522.25 62.7 -522.5 62.75 -522.7
M 85.9 -528.4
Q 85 -528.55 84.05 -528.55 81.25 -528.5 79.35 -527.45 77.45 -526.4 76.5 -524.6 75.5 -522.8 75.5 -520.6 75.55 -518.25 76.5 -516.55 77.45 -514.85 79.25 -513.95 81 -513 83.4 -513 84.75 -513 85.85 -513.2 86.95 -513.4 87.55 -513.65
L 87 -517.1
Q 86.5 -516.9 85.85 -516.75 85.15 -516.65 84.35 -516.65 83.2 -516.65 82.3 -517.1 81.35 -517.6 80.8 -518.5 80.3 -519.45 80.25 -520.8 80.25 -522.65 81.35 -523.8 82.4 -524.95 84.25 -524.95 85.15 -524.95 85.8 -524.85 86.45 -524.7 86.85 -524.5
L 87.6 -527.95
Q 86.85 -528.25 85.9 -528.4
M 74.8 -616.05
L 74.8 -596.7 94.1 -596.7 94.1 -616.05 74.8 -616.05
M 75.8 -597.7
L 75.8 -615.05 93.1 -615.05 93.1 -597.7 75.8 -597.7
M 88.45 -612.2
L 81.85 -612.2 81.85 -601.4 84.3 -601.4 84.3 -605.75 88.2 -605.75 88.2 -607.75 84.3 -607.75 84.3 -610.2 88.45 -610.2 88.45 -612.2
M 53 -616.05
L 53 -596.7 72.3 -596.7 72.3 -616.05 53 -616.05
M 54 -597.7
L 54 -615.05 71.3 -615.05 71.3 -597.7 54 -597.7
M 59.95 -612.2
L 59.95 -601.4 66.85 -601.4 66.85 -603.4 62.4 -603.4 62.4 -605.95 66.4 -605.95 66.4 -607.95 62.4 -607.95 62.4 -610.2 66.65 -610.2 66.65 -612.2 59.95 -612.2
M 74.8 -638.45
L 74.8 -619.15 94.1 -619.15 94.1 -638.45 74.8 -638.45
M 75.8 -620.15
L 75.8 -637.45 93.1 -637.45 93.1 -620.15 75.8 -620.15
M 79.85 -628.35
Q 79.85 -626.8 80.5 -625.55 81.15 -624.35 82.4 -623.65 83.65 -622.95 85.5 -622.95 86.5 -622.95 87.25 -623.1 87.95 -623.25 88.3 -623.4
L 87.95 -625.3
Q 87.55 -625.15 87 -625.05 86.45 -624.95 85.9 -624.95 84.25 -625 83.35 -625.9 82.45 -626.85 82.45 -628.5 82.45 -629.7 82.9 -630.5 83.35 -631.25 84.1 -631.65 84.9 -632.05 85.9 -632.05 86.55 -632.05 87.05 -631.95 87.55 -631.8 87.95 -631.65
L 88.45 -633.6
Q 88.1 -633.75 87.4 -633.9 86.7 -634.05 85.75 -634.1 84.1 -634.05 82.8 -633.4 81.45 -632.75 80.65 -631.45 79.9 -630.2 79.85 -628.35
M 72.3 -619.15
L 72.3 -638.45 53 -638.45 53 -619.15 72.3 -619.15
M 71.3 -637.45
L 71.3 -620.15 54 -620.15 54 -637.45 71.3 -637.45
M 65.9 -632.55
Q 65.55 -633.05 64.95 -633.35 64.4 -633.7 63.65 -633.85 62.85 -634 61.75 -634 61.15 -634 60.55 -633.95 59.95 -633.9 59.45 -633.85 58.95 -633.85 58.6 -633.75
L 58.6 -623.15
Q 59 -623.1 59.7 -623.05 60.35 -623 61.25 -623 62.85 -623 63.9 -623.25 64.9 -623.5 65.5 -623.95 66 -624.4 66.3 -624.95 66.6 -625.55 66.65 -626.25 66.6 -627.3 66 -628 65.4 -628.65 64.45 -628.9
L 64.45 -628.95
Q 65.4 -629.3 65.85 -629.9 66.25 -630.5 66.25 -631.25 66.25 -632 65.9 -632.55
M 62.05 -632.2
Q 62.9 -632.2 63.35 -631.9 63.8 -631.55 63.8 -630.95 63.8 -630.35 63.3 -630 62.8 -629.65 61.85 -629.6
L 61.05 -629.6 61.05 -632.15
Q 61.2 -632.15 61.45 -632.2 61.7 -632.2 62.05 -632.2
M 61.05 -627.9
L 61.85 -627.9
Q 62.5 -627.9 63 -627.75 63.45 -627.55 63.75 -627.25 64.05 -626.9 64.05 -626.35 64.05 -625.8 63.75 -625.45 63.5 -625.1 63 -624.95 62.55 -624.8 61.95 -624.8 61.65 -624.8 61.45 -624.8 61.2 -624.8 61.05 -624.85
L 61.05 -627.9
M 31.1 -616.05
L 31.1 -596.7 50.35 -596.7 50.35 -616.05 31.1 -616.05
M 32.1 -597.7
L 32.1 -615.05 49.35 -615.05 49.35 -597.7 32.1 -597.7
M 39.25 -612.3
Q 38.3 -612.3 37.5 -612.2 36.65 -612.15 35.95 -612.05
L 35.95 -601.45
Q 36.4 -601.4 37.1 -601.35 37.8 -601.3 38.75 -601.3 40.35 -601.3 41.6 -601.65 42.85 -602 43.7 -602.7 44.5 -603.35 45 -604.45 45.5 -605.5 45.5 -607.05 45.5 -608.5 45 -609.5 44.55 -610.5 43.7 -611.1 42.9 -611.7 41.85 -612 40.8 -612.3 39.25 -612.3
M 38.85 -610.35
Q 39.1 -610.4 39.5 -610.4 41.1 -610.4 42 -609.55 42.9 -608.65 42.9 -607 42.9 -605.7 42.45 -604.85 42 -604 41.2 -603.6 40.35 -603.2 39.25 -603.2 39.05 -603.2 38.8 -603.2 38.55 -603.2 38.4 -603.25
L 38.4 -610.3
Q 38.55 -610.35 38.85 -610.35
M 31.1 -638.45
L 31.1 -619.15 50.35 -619.15 50.35 -638.45 31.1 -638.45
M 32.1 -620.15
L 32.1 -637.45 49.35 -637.45 49.35 -620.15 32.1 -620.15
M 35.45 -623.1
L 38 -623.1 38.8 -625.9 41.85 -625.9 42.7 -623.1 45.35 -623.1 42 -633.9 38.8 -633.9 35.45 -623.1
M 40.25 -632.1
L 40.3 -632.1
Q 40.4 -631.6 40.55 -631.05 40.7 -630.5 40.85 -630
L 41.5 -627.7 39.15 -627.7 39.75 -630
Q 39.9 -630.45 40.05 -631.05 40.15 -631.6 40.25 -632.1
M 47.4 -706.7
L 45.6 -706.7 43.15 -705.55 43.5 -703.9 45.3 -704.75 45.3 -697.4 47.4 -697.4 47.4 -706.7
M 56.2 -719.55
L 56.2 -727.35 54 -727.35 54 -717.7 60 -717.7 60 -719.55 56.2 -719.55
M 66.95 -725.75
Q 66.55 -726.4 65.85 -726.75 65.1 -727.15 64.05 -727.15 63.1 -727.15 62.3 -726.85 61.55 -726.6 61 -726.2
L 61.65 -724.65
Q 62 -724.9 62.5 -725.15 63 -725.4 63.6 -725.4 64.4 -725.4 64.8 -725 65.15 -724.6 65.15 -724.05 65.15 -723.5 64.8 -722.95 64.45 -722.4 63.8 -721.7 63.1 -721 62.1 -720.1
L 60.9 -719 60.9 -717.7 67.5 -717.7 67.5 -719.5 64 -719.5 64.85 -720.25
Q 65.5 -720.85 66.1 -721.45 66.65 -722.1 66.95 -722.75 67.3 -723.45 67.3 -724.25 67.3 -725.1 66.95 -725.75
M 37.85 -707.05
L 35.65 -707.05 35.65 -697.4 41.65 -697.4 41.65 -699.25 37.85 -699.25 37.85 -707.05
M 76.35 -747.1
L 74.15 -747.1 74.15 -737.45 80.15 -737.45 80.15 -739.3 76.35 -739.3 76.35 -747.1
M 90.95 -730.95
L 90.95 -733.95 71.7 -733.95 71.7 -714.2 50.9 -714.2 50.9 -694.4 34.25 -694.4 34.25 -691.4 53.9 -691.4 53.9 -711.2 74.7 -711.2 74.7 -730.95 90.95 -730.95
M 85.85 -746.55
Q 85.15 -746.9 84.15 -746.9 83.25 -746.9 82.5 -746.7 81.7 -746.45 81.3 -746.2
L 81.75 -744.6
Q 82.05 -744.8 82.55 -745 83.1 -745.15 83.65 -745.2 84.35 -745.15 84.7 -744.9 85.05 -744.65 85.05 -744.2 85.05 -743.8 84.8 -743.6 84.5 -743.35 84.15 -743.25 83.75 -743.15 83.4 -743.15
L 82.55 -743.15 82.55 -741.6 83.45 -741.6
Q 83.9 -741.6 84.35 -741.45 84.75 -741.3 85 -741 85.3 -740.7 85.3 -740.25 85.3 -739.7 84.85 -739.35 84.45 -739.05 83.6 -739 82.9 -739.05 82.35 -739.2 81.75 -739.4 81.45 -739.6
L 81 -737.95
Q 81.4 -737.7 82.15 -737.5 82.85 -737.3 83.75 -737.3 84.95 -737.3 85.8 -737.65 86.65 -738.05 87.1 -738.65 87.55 -739.3 87.55 -740.15 87.55 -740.75 87.3 -741.2 87 -741.7 86.55 -742 86.1 -742.3 85.55 -742.4
L 85.55 -742.45
Q 86.4 -742.75 86.8 -743.3 87.25 -743.85 87.25 -744.6 87.25 -745.2 86.9 -745.75 86.55 -746.25 85.85 -746.55 Z"/>
</g>

<g id="Layer0_0_FILL">
<path fill="#FFFFFF" stroke="none" d="
M 86.6 23.6
Q 86.6 22.55 85.85 21.8 85.1 21.05 84.05 21.05
L 41.85 21.05
Q 40.8 21.05 40.05 21.8 39.25 22.55 39.25 23.6
L 39.25 55.55
Q 39.25 56.65 40.05 57.35 40.8 58.15 41.85 58.15
L 84.05 58.15
Q 85.1 58.15 85.85 57.35 86.6 56.65 86.6 55.55
L 86.6 23.6
M 82.05 25.05
L 82.05 54.25 43.75 54.25 43.75 25.05 82.05 25.05
M 71.05 37.1
L 60.5 46.15 54.75 39.65 45.4 52.45 79.6 52.5 71.05 37.1
M 43.95 -29.3
L 45.75 -28.25 51.95 -39 50.15 -40.05 43.95 -29.3
M 78.45 -34.8
Q 77.5 -35.45 76.7 -35.45
L 65.05 -35.8 60.95 -45.85
Q 60.55 -46.75 59.75 -47.35 58.9 -47.9 57.95 -47.9 57.5 -47.9 56.75 -47.65 55.45 -47.15 54.95 -45.9 54.4 -44.65 54.95 -43.45
L 59.75 -31.65 60.35 -25.85
Q 59.35 -24 60 -22.4 60.25 -21.7 60.9 -21.05
L 67.8 -13.05
Q 67.9 -12.85 68.25 -12.85
L 68.45 -12.85 80.75 -17.8
Q 81.15 -17.95 81.15 -18.4
L 79.8 -32.35
Q 79.6 -33.9 78.45 -34.8
M 77.85 -46.8
L 77.85 -48.85 65.4 -48.85 65.4 -46.8 77.85 -46.8
M 33.85 -48.85
L 33.85 -46.8 46.3 -46.8 46.3 -48.85 33.85 -48.85
M 36.25 -37.75
L 37.35 -35.95 48.1 -42.15 47.05 -43.95 36.25 -37.75
M 61.5 -55.65
L 67.8 -66.4 65.95 -67.4 59.75 -56.65 61.5 -55.65
M 63.65 -53.55
L 64.65 -51.75 75.4 -57.95 74.4 -59.75 63.65 -53.55
M 47.05 -51.75
L 48.1 -53.55 37.35 -59.75 36.25 -57.95 47.05 -51.75
M 45.75 -67.4
L 43.95 -66.4 50.15 -55.65 51.95 -56.65 45.75 -67.4
M 56.9 -69.85
L 54.8 -69.85 54.8 -57.45 56.9 -57.45 56.9 -69.85 Z"/>
</g>
</defs>

<g transform="matrix( 1, 0, 0, 1, 0,0) ">
<use xlink:href="#Layer1_0_FILL"/>
</g>

<g transform="matrix( 1.58001708984375, 0, 0, 1.5796661376953125, -44.3,-624.05) ">
<clipPath id="Mask_Mask_1">
<rect x="66.9" y="-2" width="10.2" height="16.05" fill="#FFFFFF" stroke="none"/>
</clipPath>

<text clip-path="url(#Mask_Mask_1)" writing-mode="lr"/>
</g>

<g transform="matrix( 1, 0, 0, 1, 0,0) ">
<use xlink:href="#Layer0_0_FILL"/>
</g>
</svg>
