
<svg xmlns="http://www.w3.org/2000/svg" version="1.1" xmlns:xlink="http://www.w3.org/1999/xlink" preserveAspectRatio="none" x="0px" y="0px" width="125px" height="80px" viewBox="0 0 125 80">
<defs>
<g id="Layer0_0_FILL">
<path fill="#FFFFFF" stroke="none" d="
M 60.1 424.85
Q 60.1 423.95 59.6 423.25 59.1 422.5 58.15 422.1 57.2 421.65 55.85 421.65 54.55 421.65 53.5 421.95 52.45 422.25 51.85 422.6
L 52.45 424.8
Q 52.9 424.55 53.6 424.3 54.35 424.05 55.15 424 56.1 424 56.6 424.4 57.05 424.75 57.05 425.35 57.05 425.9 56.7 426.2 56.35 426.55 55.8 426.7 55.3 426.8 54.75 426.85
L 53.6 426.85 53.6 429 54.85 429
Q 55.5 429 56.1 429.2 56.65 429.4 57.05 429.8 57.4 430.2 57.4 430.8 57.4 431.55 56.8 432.05 56.25 432.5 55.05 432.55 54.1 432.5 53.3 432.25 52.5 432 52.05 431.75
L 51.45 434
Q 52 434.35 53 434.65 54 434.9 55.25 434.9 56.9 434.9 58.1 434.4 59.25 433.9 59.9 433 60.55 432.1 60.55 431 60.55 430.15 60.15 429.5 59.8 428.85 59.15 428.4 58.55 428 57.75 427.85
L 57.75 427.8
Q 58.95 427.4 59.5 426.65 60.1 425.85 60.1 424.85
M 57.6 399.9
L 55.1 399.9 51.7 401.5 52.15 403.75 54.65 402.55 54.65 412.75 57.6 412.75 57.6 399.9
M 64.6 417.8
L 64.6 415.25 59.6 418.15 64.6 421.05 64.6 417.8
M 62.8 336.5
L 59.2 336.5 59.2 353.3 62.8 353.3 62.8 336.5
M 76.75 343.45
Q 76.05 344.35 75.7 345.45 75.35 346.55 75.35 347.65 75.35 350.4 76.95 351.95 78.55 353.5 81.5 353.55 82.7 353.55 83.75 353.35 84.8 353.15 85.7 352.85
L 85.25 350.4
Q 84.5 350.6 83.75 350.75 82.95 350.85 82.05 350.85 81.2 350.85 80.5 350.6 79.75 350.4 79.3 349.9 78.85 349.4 78.75 348.65
L 86.25 348.65
Q 86.25 348.45 86.3 348.1 86.35 347.7 86.35 347.25 86.35 345.8 85.85 344.45 85.3 343.15 84.2 342.35 83.05 341.5 81.2 341.45 79.7 341.5 78.6 342 77.45 342.55 76.75 343.45
M 79.75 344.25
Q 80.2 343.85 80.95 343.85 81.8 343.9 82.25 344.3 82.7 344.65 82.85 345.2 83 345.75 83 346.2
L 78.75 346.2
Q 78.8 345.7 79.05 345.15 79.25 344.6 79.75 344.25
M 65.95 343.3
Q 65.4 344.15 65.35 345.25 65.35 346.3 66.1 347.2 66.9 348.1 68.65 348.75 69.65 349.05 70 349.35 70.4 349.6 70.35 350.05 70.4 350.5 70 350.75 69.65 351 68.8 351 68.3 351 67.7 350.9 67.1 350.75 66.6 350.55 66.05 350.35 65.7 350.15
L 65.1 352.7
Q 65.75 353.1 66.7 353.3 67.7 353.5 68.8 353.55 70.5 353.5 71.6 353.05 72.7 352.55 73.3 351.7 73.85 350.9 73.85 349.8 73.85 348.5 73.1 347.65 72.35 346.8 70.7 346.2 69.65 345.85 69.25 345.55 68.8 345.3 68.8 344.9 68.8 344.45 69.2 344.2 69.55 343.95 70.2 343.95 70.95 343.95 71.65 344.15 72.3 344.4 72.7 344.6
L 73.35 342.1
Q 72.8 341.85 71.95 341.65 71.1 341.5 70.05 341.45 68.65 341.5 67.6 341.95 66.55 342.45 65.95 343.3
M 47.45 344.8
Q 48 344.45 48.85 344.2 49.7 343.95 50.6 343.95 51.5 343.95 51.95 344.15 52.4 344.4 52.6 344.75 52.75 345.1 52.75 345.4
L 52.75 345.55
Q 50.7 345.55 49.15 346.05 47.6 346.5 46.8 347.5 45.95 348.5 45.95 350 45.95 350.95 46.4 351.75 46.8 352.55 47.65 353.05 48.5 353.55 49.65 353.55 50.7 353.55 51.55 353.2 52.4 352.85 53 352.15
L 53.05 352.15 53.3 353.3 56.5 353.3
Q 56.45 352.8 56.4 352.05 56.35 351.3 56.35 350.5
L 56.35 346.45
Q 56.35 345.05 55.9 343.95 55.4 342.85 54.3 342.15 53.2 341.5 51.25 341.45 49.65 341.5 48.5 341.8 47.4 342.1 46.75 342.5
L 47.45 344.8
M 52.1 350.65
Q 51.6 351 50.9 351 50.3 351 49.9 350.7 49.5 350.35 49.5 349.65 49.5 348.95 49.95 348.55 50.4 348.15 51.15 348 51.9 347.8 52.85 347.85
L 52.85 349.1
Q 52.85 349.25 52.85 349.4 52.8 349.55 52.8 349.7 52.6 350.25 52.1 350.65
M 44.8 336.3
Q 44.3 336.2 43.7 336.2 42.9 336.2 42.05 336.5 41.2 336.75 40.5 337.4 39.75 338.1 39.4 339.15 39.05 340.2 39.05 341.25
L 39.05 341.7 37.55 341.7 37.55 344.35 39.05 344.35 39.05 353.3 42.65 353.3 42.65 344.35 45 344.35 45 341.7 42.65 341.7 42.65 341.15
Q 42.65 340.25 43.05 339.65 43.45 339.1 44.35 339.05 44.7 339.05 45 339.1 45.25 339.15 45.5 339.25
L 45.65 336.45
Q 45.25 336.35 44.8 336.3
M 45.65 313.9
L 45.65 310.6 42.15 311.4 42.15 313.9 40.6 313.9 40.6 316.55 42.15 316.55 42.15 321.3
Q 42.15 322.55 42.4 323.35 42.65 324.25 43.15 324.75 43.55 325.2 44.25 325.45 44.95 325.7 45.85 325.75 46.6 325.75 47.2 325.65 47.85 325.55 48.2 325.4
L 48.15 322.7
Q 47.95 322.75 47.7 322.75 47.45 322.8 47.1 322.8 46.3 322.8 45.95 322.3 45.65 321.8 45.65 320.75
L 45.65 316.55 48.25 316.55 48.25 313.9 45.65 313.9
M 50.25 313.9
Q 50.3 314.65 50.3 315.55 50.35 316.45 50.35 317.75
L 50.35 325.5 53.95 325.5 53.95 319.6
Q 53.95 319.4 53.95 319.2 54 319 54 318.8 54.2 318 54.85 317.5 55.45 317 56.5 317 56.8 317 57 317.05 57.25 317.05 57.45 317.1
L 57.45 313.7
Q 57.25 313.7 57.1 313.7 56.95 313.65 56.7 313.65 56.1 313.65 55.5 313.9 54.9 314.15 54.4 314.7 53.9 315.2 53.55 316.05
L 53.45 316.05 53.35 313.9 50.25 313.9
M 73.85 315.65
Q 73.15 316.55 72.8 317.65 72.45 318.75 72.45 319.85 72.45 322.6 74.05 324.15 75.65 325.7 78.6 325.75 79.8 325.75 80.85 325.55 81.9 325.35 82.8 325.05
L 82.35 322.6
Q 81.6 322.8 80.85 322.95 80.05 323.05 79.15 323.05 78.3 323.05 77.6 322.8 76.85 322.6 76.4 322.1 75.95 321.6 75.85 320.85
L 83.35 320.85
Q 83.35 320.65 83.4 320.3 83.45 319.9 83.45 319.45 83.45 318 82.95 316.65 82.4 315.35 81.3 314.55 80.15 313.7 78.3 313.65 76.8 313.7 75.7 314.2 74.55 314.75 73.85 315.65
M 79.95 317.4
Q 80.1 317.95 80.1 318.4
L 75.85 318.4
Q 75.9 317.9 76.15 317.35 76.35 316.8 76.85 316.45 77.3 316.05 78.05 316.05 78.9 316.1 79.35 316.5 79.8 316.85 79.95 317.4
M 66.55 313.9
L 66.55 320.8
Q 66.55 321 66.55 321.2 66.5 321.45 66.45 321.6 66.25 322.05 65.8 322.4 65.35 322.8 64.65 322.85 63.7 322.85 63.25 322.1 62.8 321.4 62.8 320.15
L 62.8 313.9 59.2 313.9 59.2 320.7
Q 59.2 322.5 59.75 323.6 60.25 324.7 61.2 325.25 62.1 325.75 63.25 325.75 64.3 325.75 65.05 325.4 65.75 325.1 66.2 324.65 66.7 324.25 66.9 323.85
L 67 323.85 67.15 325.5 70.25 325.5
Q 70.25 324.75 70.2 323.85 70.15 322.9 70.15 321.8
L 70.15 313.9 66.55 313.9
M 66.1 242.95
Q 64.7 243.65 63.95 245.05 63.2 246.4 63.2 248.3 63.2 250.15 63.95 251.5 64.75 252.85 66.1 253.55 67.45 254.25 69.15 254.25 70.75 254.25 72.15 253.6 73.5 252.95 74.4 251.55 75.25 250.2 75.3 248.1 75.3 246.35 74.55 245 73.8 243.65 72.5 242.95 71.15 242.2 69.35 242.15 67.5 242.2 66.1 242.95
M 67.9 245.25
Q 68.4 244.75 69.25 244.7 70.1 244.75 70.6 245.25 71.1 245.75 71.35 246.55 71.55 247.3 71.55 248.2 71.55 249.8 70.95 250.7 70.35 251.65 69.25 251.65 68.5 251.65 67.95 251.2 67.45 250.75 67.15 250 66.9 249.2 66.9 248.2 66.9 247.3 67.15 246.55 67.35 245.75 67.9 245.25
M 49.9 244.1
Q 49.95 245.05 49.95 246.1
L 49.95 254 53.55 254 53.55 247.3
Q 53.55 247.05 53.6 246.85 53.6 246.6 53.7 246.45 53.85 245.9 54.3 245.5 54.75 245.1 55.5 245.1 56.5 245.1 56.9 245.75 57.35 246.45 57.35 247.6
L 57.35 254 60.95 254 60.95 247.15
Q 60.95 245.45 60.4 244.35 59.85 243.25 58.95 242.7 58 242.15 56.8 242.15 55.85 242.2 55.1 242.5 54.4 242.8 53.95 243.2 53.45 243.65 53.2 244
L 53.15 244 53 242.4 49.85 242.4
Q 49.9 243.2 49.9 244.1
M 57.15 217.75
L 53.3 217.75 51.9 223.45
Q 51.75 223.95 51.65 224.55 51.5 225.15 51.35 225.6
L 51.3 225.6
Q 51.2 225.15 51.05 224.55 50.85 224 50.75 223.45
L 49 217.75 45 217.75 49.25 228.35
Q 49.35 228.55 49.35 228.7 49.4 228.85 49.4 228.95 49.4 229.1 49.35 229.2 49.3 229.35 49.2 229.5 48.95 229.95 48.55 230.3 48.15 230.7 47.7 230.9 47.3 231.15 46.9 231.35 46.5 231.5 46.15 231.55
L 46.9 234.6
Q 47.6 234.5 48.5 234.15 49.45 233.8 50.4 233 51.05 232.45 51.65 231.55 52.3 230.65 52.95 229.15 53.65 227.7 54.45 225.4
L 57.15 217.75
M 72.7 218
Q 71.65 218.5 71.05 219.35 70.5 220.2 70.45 221.3 70.45 222.35 71.2 223.25 72 224.15 73.75 224.8 74.75 225.1 75.1 225.4 75.5 225.65 75.45 226.1 75.5 226.55 75.1 226.8 74.75 227.05 73.9 227.05 73.4 227.05 72.8 226.95 72.2 226.8 71.7 226.6 71.15 226.4 70.8 226.2
L 70.2 228.75
Q 70.85 229.15 71.8 229.35 72.8 229.55 73.9 229.6 75.6 229.55 76.7 229.1 77.8 228.6 78.4 227.75 78.95 226.95 78.95 225.85 78.95 224.55 78.2 223.7 77.45 222.85 75.8 222.25 74.75 221.9 74.35 221.6 73.9 221.35 73.9 220.95 73.9 220.5 74.3 220.25 74.65 220 75.3 220 76.05 220 76.75 220.2 77.4 220.45 77.8 220.65
L 78.45 218.15
Q 77.9 217.9 77.05 217.7 76.2 217.55 75.15 217.5 73.75 217.55 72.7 218
M 63.6 217.5
Q 62.1 217.55 61 218.05 59.85 218.6 59.15 219.5 58.45 220.4 58.1 221.5 57.75 222.6 57.75 223.7 57.75 226.45 59.35 228 60.95 229.55 63.9 229.6 65.1 229.6 66.15 229.4 67.2 229.2 68.1 228.9
L 67.65 226.45
Q 66.9 226.65 66.15 226.8 65.35 226.9 64.45 226.9 63.6 226.9 62.9 226.65 62.15 226.45 61.7 225.95 61.25 225.45 61.15 224.7
L 68.65 224.7
Q 68.65 224.5 68.7 224.15 68.75 223.75 68.75 223.3 68.75 221.85 68.25 220.5 67.7 219.2 66.6 218.4 65.45 217.55 63.6 217.5
M 65.4 222.25
L 61.15 222.25
Q 61.2 221.75 61.45 221.2 61.65 220.65 62.15 220.3 62.6 219.9 63.35 219.9 64.2 219.95 64.65 220.35 65.1 220.7 65.25 221.25 65.4 221.8 65.4 222.25
M 77.55 128.9
Q 79.05 128.95 79.75 129.5 80.5 130.1 80.5 131 80.5 131.8 79.95 132.3 79.4 132.8 78.55 133.05 77.75 133.25 76.95 133.25
L 75.15 133.25 75.15 136.6 77.05 136.6
Q 78.1 136.6 79 136.9 79.9 137.2 80.45 137.8 81 138.45 81.05 139.4 81.05 140.55 80.1 141.3 79.2 142.05 77.4 142.05 75.95 142.05 74.7 141.6 73.45 141.2 72.8 140.85
L 71.85 144.35
Q 72.75 144.9 74.25 145.3 75.8 145.7 77.75 145.75 80.25 145.7 82.05 144.95 83.9 144.15 84.85 142.8 85.85 141.45 85.85 139.65 85.85 138.35 85.25 137.35 84.7 136.35 83.7 135.7 82.75 135.05 81.55 134.85
L 81.55 134.8
Q 83.4 134.15 84.3 132.95 85.2 131.8 85.2 130.2 85.2 128.85 84.4 127.7 83.65 126.6 82.2 125.95 80.75 125.25 78.6 125.25 76.65 125.3 75.05 125.7 73.4 126.15 72.45 126.75
L 73.4 130.1
Q 74.05 129.7 75.2 129.3 76.3 128.95 77.55 128.9
M 48.55 125.6
L 44.75 125.6 39.5 128.05 40.25 131.5 44.05 129.7 44.1 129.7 44.1 145.4 48.55 145.4 48.55 125.6
M 58.1 125.85
Q 56.45 126.45 55.3 127.3
L 56.65 130.6
Q 57.4 130 58.5 129.5 59.55 129 60.85 129 62.55 129 63.35 129.8 64.15 130.65 64.15 131.85 64.1 133 63.4 134.2 62.65 135.45 61.25 136.9 59.8 138.35 57.65 140.3
L 55.1 142.6 55.1 145.4 69.15 145.4 69.15 141.6 61.65 141.6 61.65 141.55 63.5 140
Q 64.95 138.75 66.1 137.4 67.3 136.05 68.05 134.6 68.75 133.15 68.75 131.5 68.75 129.65 67.95 128.25 67.15 126.85 65.6 126.1 64.05 125.25 61.8 125.25 59.8 125.3 58.1 125.85
M 58 43.85
Q 58 45.15 58 46.35 57.95 47.55 57.9 48.3
L 61.85 48.3 62 46.2 62.05 46.2
Q 62.9 47.55 64.05 48.1 65.25 48.65 66.55 48.65 68.3 48.65 69.85 47.75 71.4 46.85 72.4 45.05 73.35 43.25 73.4 40.6 73.4 38.3 72.6 36.6 71.8 34.9 70.45 34 69.05 33.1 67.25 33.05 65.7 33.1 64.55 33.65 63.4 34.2 62.7 35.2
L 62.65 35.2 62.65 26.65 58 26.65 58 43.85
M 68.35 38.7
Q 68.65 39.6 68.65 40.8 68.65 42.8 67.8 43.9 66.95 44.95 65.45 44.95 64.45 44.95 63.7 44.35 63 43.75 62.75 42.75 62.65 42.4 62.65 41.95
L 62.65 39.75
Q 62.65 39.55 62.65 39.35 62.7 39.1 62.75 38.9 63 37.9 63.75 37.3 64.5 36.65 65.45 36.65 66.55 36.65 67.25 37.2 67.95 37.75 68.35 38.7
M 49.2 27.75
L 43.1 27.75 36.8 48.3 41.65 48.3 43.1 43 49 43 50.6 48.3 55.6 48.3 49.2 27.75
M 46.5 33.2
Q 46.8 34.25 47.05 35.2
L 48.35 39.55 43.8 39.55 45 35.2
Q 45.25 34.25 45.5 33.2 45.7 32.15 45.95 31.2
L 46 31.2
Q 46.25 32.15 46.5 33.2
M 85.8 36.75
Q 86.45 36.9 86.85 37.1
L 87.6 33.65
Q 86.85 33.35 85.9 33.2 85 33.05 84.05 33.05 81.25 33.1 79.35 34.15 77.45 35.2 76.5 37 75.5 38.8 75.5 41 75.55 43.35 76.5 45.05 77.45 46.75 79.25 47.65 81 48.6 83.4 48.6 84.75 48.6 85.85 48.4 86.95 48.2 87.55 47.95
L 87 44.5
Q 86.5 44.7 85.85 44.85 85.15 44.95 84.35 44.95 83.2 44.95 82.3 44.5 81.35 44 80.8 43.1 80.3 42.15 80.25 40.8 80.25 38.95 81.35 37.8 82.4 36.65 84.25 36.65 85.15 36.65 85.8 36.75
M 39.25 -50.7
Q 38.3 -50.7 37.5 -50.6 36.65 -50.55 35.95 -50.45
L 35.95 -39.85
Q 36.4 -39.8 37.1 -39.75 37.8 -39.7 38.75 -39.7 40.35 -39.7 41.6 -40.05 42.85 -40.4 43.7 -41.1 44.5 -41.75 45 -42.85 45.5 -43.9 45.5 -45.45 45.5 -46.9 45 -47.9 44.55 -48.9 43.7 -49.5 42.9 -50.1 41.85 -50.4 40.8 -50.7 39.25 -50.7
M 38.4 -41.65
L 38.4 -48.7
Q 38.55 -48.75 38.85 -48.75 39.1 -48.8 39.5 -48.8 41.1 -48.8 42 -47.95 42.9 -47.05 42.9 -45.4 42.9 -44.1 42.45 -43.25 42 -42.4 41.2 -42 40.35 -41.6 39.25 -41.6 39.05 -41.6 38.8 -41.6 38.55 -41.6 38.4 -41.65
M 88.45 -50.6
L 81.85 -50.6 81.85 -39.8 84.3 -39.8 84.3 -44.15 88.2 -44.15 88.2 -46.15 84.3 -46.15 84.3 -48.6 88.45 -48.6 88.45 -50.6
M 66.65 -50.6
L 59.95 -50.6 59.95 -39.8 66.85 -39.8 66.85 -41.8 62.4 -41.8 62.4 -44.35 66.4 -44.35 66.4 -46.35 62.4 -46.35 62.4 -48.6 66.65 -48.6 66.65 -50.6
M 79.85 -66.75
Q 79.85 -65.2 80.5 -63.95 81.15 -62.75 82.4 -62.05 83.65 -61.35 85.5 -61.35 86.5 -61.35 87.25 -61.5 87.95 -61.65 88.3 -61.8
L 87.95 -63.7
Q 87.55 -63.55 87 -63.45 86.45 -63.35 85.9 -63.35 84.25 -63.4 83.35 -64.3 82.45 -65.25 82.45 -66.9 82.45 -68.1 82.9 -68.9 83.35 -69.65 84.1 -70.05 84.9 -70.45 85.9 -70.45 86.55 -70.45 87.05 -70.35 87.55 -70.2 87.95 -70.05
L 88.45 -72
Q 88.1 -72.15 87.4 -72.3 86.7 -72.45 85.75 -72.5 84.1 -72.45 82.8 -71.8 81.45 -71.15 80.65 -69.85 79.9 -68.6 79.85 -66.75
M 60.55 -72.35
Q 59.95 -72.3 59.45 -72.25 58.95 -72.25 58.6 -72.15
L 58.6 -61.55
Q 59 -61.5 59.7 -61.45 60.35 -61.4 61.25 -61.4 62.85 -61.4 63.9 -61.65 64.9 -61.9 65.5 -62.35 66 -62.8 66.3 -63.35 66.6 -63.95 66.65 -64.65 66.6 -65.7 66 -66.4 65.4 -67.05 64.45 -67.3
L 64.45 -67.35
Q 65.4 -67.7 65.85 -68.3 66.25 -68.9 66.25 -69.65 66.25 -70.4 65.9 -70.95 65.55 -71.45 64.95 -71.75 64.4 -72.1 63.65 -72.25 62.85 -72.4 61.75 -72.4 61.15 -72.4 60.55 -72.35
M 61.05 -70.55
Q 61.2 -70.55 61.45 -70.6 61.7 -70.6 62.05 -70.6 62.9 -70.6 63.35 -70.3 63.8 -69.95 63.8 -69.35 63.8 -68.75 63.3 -68.4 62.8 -68.05 61.85 -68
L 61.05 -68 61.05 -70.55
M 61.05 -66.3
L 61.85 -66.3
Q 62.5 -66.3 63 -66.15 63.45 -65.95 63.75 -65.65 64.05 -65.3 64.05 -64.75 64.05 -64.2 63.75 -63.85 63.5 -63.5 63 -63.35 62.55 -63.2 61.95 -63.2 61.65 -63.2 61.45 -63.2 61.2 -63.2 61.05 -63.25
L 61.05 -66.3
M 42.7 -61.5
L 45.35 -61.5 42 -72.3 38.8 -72.3 35.45 -61.5 38 -61.5 38.8 -64.3 41.85 -64.3 42.7 -61.5
M 40.55 -69.45
Q 40.7 -68.9 40.85 -68.4
L 41.5 -66.1 39.15 -66.1 39.75 -68.4
Q 39.9 -68.85 40.05 -69.45 40.15 -70 40.25 -70.5
L 40.3 -70.5
Q 40.4 -70 40.55 -69.45
M 47.4 -145.1
L 45.6 -145.1 43.15 -143.95 43.5 -142.3 45.3 -143.15 45.3 -135.8 47.4 -135.8 47.4 -145.1
M 37.85 -145.45
L 35.65 -145.45 35.65 -135.8 41.65 -135.8 41.65 -137.65 37.85 -137.65 37.85 -145.45
M 62.5 -163.55
Q 63 -163.8 63.6 -163.8 64.4 -163.8 64.8 -163.4 65.15 -163 65.15 -162.45 65.15 -161.9 64.8 -161.35 64.45 -160.8 63.8 -160.1 63.1 -159.4 62.1 -158.5
L 60.9 -157.4 60.9 -156.1 67.5 -156.1 67.5 -157.9 64 -157.9 64.85 -158.65
Q 65.5 -159.25 66.1 -159.85 66.65 -160.5 66.95 -161.15 67.3 -161.85 67.3 -162.65 67.3 -163.5 66.95 -164.15 66.55 -164.8 65.85 -165.15 65.1 -165.55 64.05 -165.55 63.1 -165.55 62.3 -165.25 61.55 -165 61 -164.6
L 61.65 -163.05
Q 62 -163.3 62.5 -163.55
M 56.2 -165.75
L 54 -165.75 54 -156.1 60 -156.1 60 -157.95 56.2 -157.95 56.2 -165.75
M 76.35 -185.5
L 74.15 -185.5 74.15 -175.85 80.15 -175.85 80.15 -177.7 76.35 -177.7 76.35 -185.5
M 87.25 -183
Q 87.25 -183.6 86.9 -184.15 86.55 -184.65 85.85 -184.95 85.15 -185.3 84.15 -185.3 83.25 -185.3 82.5 -185.1 81.7 -184.85 81.3 -184.6
L 81.75 -183
Q 82.05 -183.2 82.55 -183.4 83.1 -183.55 83.65 -183.6 84.35 -183.55 84.7 -183.3 85.05 -183.05 85.05 -182.6 85.05 -182.2 84.8 -182 84.5 -181.75 84.15 -181.65 83.75 -181.55 83.4 -181.55
L 82.55 -181.55 82.55 -180 83.45 -180
Q 83.9 -180 84.35 -179.85 84.75 -179.7 85 -179.4 85.3 -179.1 85.3 -178.65 85.3 -178.1 84.85 -177.75 84.45 -177.45 83.6 -177.4 82.9 -177.45 82.35 -177.6 81.75 -177.8 81.45 -178
L 81 -176.35
Q 81.4 -176.1 82.15 -175.9 82.85 -175.7 83.75 -175.7 84.95 -175.7 85.8 -176.05 86.65 -176.45 87.1 -177.05 87.55 -177.7 87.55 -178.55 87.55 -179.15 87.3 -179.6 87 -180.1 86.55 -180.4 86.1 -180.7 85.55 -180.8
L 85.55 -180.85
Q 86.4 -181.15 86.8 -181.7 87.25 -182.25 87.25 -183 Z"/>
</g>

<path id="Layer0_0_1_STROKES" stroke="#FFFFFF" stroke-width="3" stroke-linejoin="miter" stroke-linecap="butt" stroke-miterlimit="4" fill="none" d="
M 90.95 -170.85
L 73.2 -170.85 73.2 -151.1 52.4 -151.1 52.4 -131.3 34.25 -131.3"/>

<path id="Layer0_0_2_STROKES" stroke="#FFFFFF" stroke-width="1" stroke-linejoin="miter" stroke-linecap="butt" stroke-miterlimit="4" fill="none" d="
M 62.15 453.5
L 62.15 451.65 63.75 450.15
Q 66.05 448.1 66.95 447 67.95 445.8 68.05 444.75 68.05 442.85 65.9 442.85 64.5 442.85 63.15 443.9
L 62.3 441.75
Q 64 440.4 66.5 440.4 68.65 440.4 69.85 441.55 71 442.6 71 444.45 71 446.95 67.55 450
L 66.45 451 71.2 451 71.2 453.5 62.15 453.5 Z"/>

<path id="Layer0_0_3_STROKES" stroke="#FFFFFF" stroke-width="1" stroke-linejoin="miter" stroke-linecap="butt" stroke-miterlimit="4" fill="none" d="
M 49.85 -58.05
L 31.6 -58.05 31.6 -76.35 49.85 -76.35 49.85 -58.05 Z
M 71.8 -58.05
L 53.5 -58.05 53.5 -76.35 71.8 -76.35 71.8 -58.05 Z
M 93.6 -58.05
L 75.3 -58.05 75.3 -76.35 93.6 -76.35 93.6 -58.05 Z
M 71.8 -35.6
L 53.5 -35.6 53.5 -53.95 71.8 -53.95 71.8 -35.6 Z
M 93.6 -35.6
L 75.3 -35.6 75.3 -53.95 93.6 -53.95 93.6 -35.6 Z
M 49.85 -35.6
L 31.6 -35.6 31.6 -53.95 49.85 -53.95 49.85 -35.6 Z
M 94.65 59.95
L 30.35 59.95 30.35 19.95 94.65 19.95 94.65 59.95 Z
M 94.65 157.05
L 30.4 157.05 30.4 117.1 94.65 117.1 94.65 157.05 Z
M 94.55 261.15
L 30.25 261.15 30.25 209.6 94.55 209.6 94.55 261.15 Z
M 93.55 358.25
L 29.25 358.25 29.25 306.75 93.55 306.75 93.55 358.25 Z
M 78 444.45
Q 80.65 442.35 82.2 439.4 83.8 436.2 83.8 432.7 83.8 426.55 79.45 422.2 75.05 417.8 68.85 417.8
L 64.6 417.8 64.6 421.05 59.6 418.15 64.6 415.25 64.6 417.8
M 94.5 457.1
L 29.2 457.1 29.2 396.35 94.5 396.35 94.5 457.1 Z"/>
</defs>

<g transform="matrix( 1, 0, 0, 1, 0,0) ">
<use xlink:href="#Layer0_0_FILL"/>

<use xlink:href="#Layer0_0_1_STROKES"/>

<use xlink:href="#Layer0_0_2_STROKES"/>

<use xlink:href="#Layer0_0_3_STROKES"/>
</g>

<g transform="matrix( 1.58001708984375, 0, 0, 1.5796661376953125, -44.3,-62.45) ">
<clipPath id="Mask_Mask_1">
<rect x="66.9" y="-2" width="10.2" height="16.05" fill="#FFFFFF" stroke="none"/>
</clipPath>

<text clip-path="url(#Mask_Mask_1)" writing-mode="lr"/>
</g>
</svg>
