
<svg xmlns="http://www.w3.org/2000/svg" version="1.1" xmlns:xlink="http://www.w3.org/1999/xlink" preserveAspectRatio="none" x="0px" y="0px" width="125px" height="80px" viewBox="0 0 125 80">
<defs>
<g id="Layer0_0_FILL">
<path fill="#FFFFFF" stroke="none" d="
M 95 70.4
L 95 8.65 28.7 8.65 28.7 70.4 95 70.4
M 94 9.65
L 94 69.4 29.7 69.4 29.7 9.65 94 9.65
M 70.05 54.1
Q 68.7818359375 52.895703125 66.5 52.9 63.89375 52.9048828125 62.1 54.3
L 61.95 54.45 63 57.15 63.3 56.9
Q 64.590234375 55.950390625 65.9 55.95 67.718359375 55.95 67.75 57.5 67.6509765625 58.4904296875 66.7 59.6 65.8296875 60.6919921875 63.55 62.7
L 61.85 64.3 61.85 66.6 71.5 66.6 71.5 63.5 67.2 63.5 67.75 63
Q 71.3283203125 59.8607421875 71.3 57.25 71.298828125 55.2546875 70.05 54.1
M 66.5 53.5
Q 68.5181640625 53.5041015625 69.65 54.55 70.701171875 55.5451171875 70.7 57.25 70.6716796875 59.6390625 67.35 62.55
L 65.65 64.1 70.9 64.1 70.9 66 62.45 66 62.45 64.55 63.95 63.15
Q 66.2701171875 61.1080078125 67.15 60 68.248828125 58.709375 68.35 57.55
L 68.35 57.55
Q 68.3671875 55.35 65.9 55.35 64.57421875 55.3498046875 63.3 56.25
L 62.65 54.6
Q 64.239453125 53.4951171875 66.5 53.5
M 82.65 52.4
Q 84.301953125 49.117578125 84.3 45.5 84.2982421875 39.1447265625 79.8 34.65 75.255078125 30.1015625 68.85 30.1
L 65.1 30.1 65.1 27.15 58.6 30.95 65.1 34.7 65.1 31.1 68.85 31.1
Q 74.844921875 31.0984375 79.1 35.35 83.3017578125 39.5552734375 83.3 45.5 83.298046875 48.8822265625 81.75 51.95 80.2578125 54.8240234375 77.7 56.85
L 78.3 57.65
Q 81.0421875 55.47578125 82.65 52.4
M 53.6 37.1
Q 54.35 36.85 55.15 36.8 56.1 36.8 56.6 37.2 57.05 37.55 57.05 38.15 57.05 38.7 56.7 39 56.35 39.35 55.8 39.5 55.3 39.6 54.75 39.65
L 53.6 39.65 53.6 41.8 54.85 41.8
Q 55.5 41.8 56.1 42 56.65 42.2 57.05 42.6 57.4 43 57.4 43.6 57.4 44.35 56.8 44.85 56.25 45.3 55.05 45.35 54.1 45.3 53.3 45.05 52.5 44.8 52.05 44.55
L 51.45 46.8
Q 52 47.15 53 47.45 54 47.7 55.25 47.7 56.9 47.7 58.1 47.2 59.25 46.7 59.9 45.8 60.55 44.9 60.55 43.8 60.55 42.95 60.15 42.3 59.8 41.65 59.15 41.2 58.55 40.8 57.75 40.65
L 57.75 40.6
Q 58.95 40.2 59.5 39.45 60.1 38.65 60.1 37.65 60.1 36.75 59.6 36.05 59.1 35.3 58.15 34.9 57.2 34.45 55.85 34.45 54.55 34.45 53.5 34.75 52.45 35.05 51.85 35.4
L 52.45 37.6
Q 52.9 37.35 53.6 37.1
M 57.6 12.7
L 55.1 12.7 51.7 14.3 52.15 16.55 54.65 15.35 54.65 25.55 57.6 25.55 57.6 12.7
M 28.75 -79.35
L 28.75 -26.85 94.05 -26.85 94.05 -79.35 28.75 -79.35
M 29.75 -27.85
L 29.75 -78.35 93.05 -78.35 93.05 -27.85 29.75 -27.85
M 54.3 -45.05
Q 53.2 -45.7 51.25 -45.75 49.65 -45.7 48.5 -45.4 47.4 -45.1 46.75 -44.7
L 47.45 -42.4
Q 48 -42.75 48.85 -43 49.7 -43.25 50.6 -43.25 51.5 -43.25 51.95 -43.05 52.4 -42.8 52.6 -42.45 52.75 -42.1 52.75 -41.8
L 52.75 -41.65
Q 50.7 -41.65 49.15 -41.15 47.6 -40.7 46.8 -39.7 45.95 -38.7 45.95 -37.2 45.95 -36.25 46.4 -35.45 46.8 -34.65 47.65 -34.15 48.5 -33.65 49.65 -33.65 50.7 -33.65 51.55 -34 52.4 -34.35 53 -35.05
L 53.05 -35.05 53.3 -33.9 56.5 -33.9
Q 56.45 -34.4 56.4 -35.15 56.35 -35.9 56.35 -36.7
L 56.35 -40.75
Q 56.35 -42.15 55.9 -43.25 55.4 -44.35 54.3 -45.05
M 52.85 -39.35
L 52.85 -38.1
Q 52.85 -37.95 52.85 -37.8 52.8 -37.65 52.8 -37.5 52.6 -36.95 52.1 -36.55 51.6 -36.2 50.9 -36.2 50.3 -36.2 49.9 -36.5 49.5 -36.85 49.5 -37.55 49.5 -38.25 49.95 -38.65 50.4 -39.05 51.15 -39.2 51.9 -39.4 52.85 -39.35
M 73.35 -45.1
Q 72.8 -45.35 71.95 -45.55 71.1 -45.7 70.05 -45.75 68.65 -45.7 67.6 -45.25 66.55 -44.75 65.95 -43.9 65.4 -43.05 65.35 -41.95 65.35 -40.9 66.1 -40 66.9 -39.1 68.65 -38.45 69.65 -38.15 70 -37.85 70.4 -37.6 70.35 -37.15 70.4 -36.7 70 -36.45 69.65 -36.2 68.8 -36.2 68.3 -36.2 67.7 -36.3 67.1 -36.45 66.6 -36.65 66.05 -36.85 65.7 -37.05
L 65.1 -34.5
Q 65.75 -34.1 66.7 -33.9 67.7 -33.7 68.8 -33.65 70.5 -33.7 71.6 -34.15 72.7 -34.65 73.3 -35.5 73.85 -36.3 73.85 -37.4 73.85 -38.7 73.1 -39.55 72.35 -40.4 70.7 -41 69.65 -41.35 69.25 -41.65 68.8 -41.9 68.8 -42.3 68.8 -42.75 69.2 -43 69.55 -43.25 70.2 -43.25 70.95 -43.25 71.65 -43.05 72.3 -42.8 72.7 -42.6
L 73.35 -45.1
M 78.6 -45.2
Q 77.45 -44.65 76.75 -43.75 76.05 -42.85 75.7 -41.75 75.35 -40.65 75.35 -39.55 75.35 -36.8 76.95 -35.25 78.55 -33.7 81.5 -33.65 82.7 -33.65 83.75 -33.85 84.8 -34.05 85.7 -34.35
L 85.25 -36.8
Q 84.5 -36.6 83.75 -36.45 82.95 -36.35 82.05 -36.35 81.2 -36.35 80.5 -36.6 79.75 -36.8 79.3 -37.3 78.85 -37.8 78.75 -38.55
L 86.25 -38.55
Q 86.25 -38.75 86.3 -39.1 86.35 -39.5 86.35 -39.95 86.35 -41.4 85.85 -42.75 85.3 -44.05 84.2 -44.85 83.05 -45.7 81.2 -45.75 79.7 -45.7 78.6 -45.2
M 79.05 -42.05
Q 79.25 -42.6 79.75 -42.95 80.2 -43.35 80.95 -43.35 81.8 -43.3 82.25 -42.9 82.7 -42.55 82.85 -42 83 -41.45 83 -41
L 78.75 -41
Q 78.8 -41.5 79.05 -42.05
M 62.8 -50.7
L 59.2 -50.7 59.2 -33.9 62.8 -33.9 62.8 -50.7
M 75.7 -70.6
Q 74.55 -70.05 73.85 -69.15 73.15 -68.25 72.8 -67.15 72.45 -66.05 72.45 -64.95 72.45 -62.2 74.05 -60.65 75.65 -59.1 78.6 -59.05 79.8 -59.05 80.85 -59.25 81.9 -59.45 82.8 -59.75
L 82.35 -62.2
Q 81.6 -62 80.85 -61.85 80.05 -61.75 79.15 -61.75 78.3 -61.75 77.6 -62 76.85 -62.2 76.4 -62.7 75.95 -63.2 75.85 -63.95
L 83.35 -63.95
Q 83.35 -64.15 83.4 -64.5 83.45 -64.9 83.45 -65.35 83.45 -66.8 82.95 -68.15 82.4 -69.45 81.3 -70.25 80.15 -71.1 78.3 -71.15 76.8 -71.1 75.7 -70.6
M 76.85 -68.35
Q 77.3 -68.75 78.05 -68.75 78.9 -68.7 79.35 -68.3 79.8 -67.95 79.95 -67.4 80.1 -66.85 80.1 -66.4
L 75.85 -66.4
Q 75.9 -66.9 76.15 -67.45 76.35 -68 76.85 -68.35
M 43.7 -51
Q 42.9 -51 42.05 -50.7 41.2 -50.45 40.5 -49.8 39.75 -49.1 39.4 -48.05 39.05 -47 39.05 -45.95
L 39.05 -45.5 37.55 -45.5 37.55 -42.85 39.05 -42.85 39.05 -33.9 42.65 -33.9 42.65 -42.85 45 -42.85 45 -45.5 42.65 -45.5 42.65 -46.05
Q 42.65 -46.95 43.05 -47.55 43.45 -48.1 44.35 -48.15 44.7 -48.15 45 -48.1 45.25 -48.05 45.5 -47.95
L 45.65 -50.75
Q 45.25 -50.85 44.8 -50.9 44.3 -51 43.7 -51
M 48.25 -70.9
L 45.65 -70.9 45.65 -74.2 42.15 -73.4 42.15 -70.9 40.6 -70.9 40.6 -68.25 42.15 -68.25 42.15 -63.5
Q 42.15 -62.25 42.4 -61.45 42.65 -60.55 43.15 -60.05 43.55 -59.6 44.25 -59.35 44.95 -59.1 45.85 -59.05 46.6 -59.05 47.2 -59.15 47.85 -59.25 48.2 -59.4
L 48.15 -62.1
Q 47.95 -62.05 47.7 -62.05 47.45 -62 47.1 -62 46.3 -62 45.95 -62.5 45.65 -63 45.65 -64.05
L 45.65 -68.25 48.25 -68.25 48.25 -70.9
M 59.2 -70.9
L 59.2 -64.1
Q 59.2 -62.3 59.75 -61.2 60.25 -60.1 61.2 -59.55 62.1 -59.05 63.25 -59.05 64.3 -59.05 65.05 -59.4 65.75 -59.7 66.2 -60.15 66.7 -60.55 66.9 -60.95
L 67 -60.95 67.15 -59.3 70.25 -59.3
Q 70.25 -60.05 70.2 -60.95 70.15 -61.9 70.15 -63
L 70.15 -70.9 66.55 -70.9 66.55 -64
Q 66.55 -63.8 66.55 -63.6 66.5 -63.35 66.45 -63.2 66.25 -62.75 65.8 -62.4 65.35 -62 64.65 -61.95 63.7 -61.95 63.25 -62.7 62.8 -63.4 62.8 -64.65
L 62.8 -70.9 59.2 -70.9
M 57.45 -71.1
Q 57.25 -71.1 57.1 -71.1 56.95 -71.15 56.7 -71.15 56.1 -71.15 55.5 -70.9 54.9 -70.65 54.4 -70.1 53.9 -69.6 53.55 -68.75
L 53.45 -68.75 53.35 -70.9 50.25 -70.9
Q 50.3 -70.15 50.3 -69.25 50.35 -68.35 50.35 -67.05
L 50.35 -59.3 53.95 -59.3 53.95 -65.2
Q 53.95 -65.4 53.95 -65.6 54 -65.8 54 -66 54.2 -66.8 54.85 -67.3 55.45 -67.8 56.5 -67.8 56.8 -67.8 57 -67.75 57.25 -67.75 57.45 -67.7
L 57.45 -71.1
M 95.05 -123.95
L 95.05 -176.5 29.75 -176.5 29.75 -123.95 95.05 -123.95
M 94.05 -175.5
L 94.05 -124.95 30.75 -124.95 30.75 -175.5 94.05 -175.5
M 60.95 -131.6
L 60.95 -138.45
Q 60.95 -140.15 60.4 -141.25 59.85 -142.35 58.95 -142.9 58 -143.45 56.8 -143.45 55.85 -143.4 55.1 -143.1 54.4 -142.8 53.95 -142.4 53.45 -141.95 53.2 -141.6
L 53.15 -141.6 53 -143.2 49.85 -143.2
Q 49.9 -142.4 49.9 -141.5 49.95 -140.55 49.95 -139.5
L 49.95 -131.6 53.55 -131.6 53.55 -138.3
Q 53.55 -138.55 53.6 -138.75 53.6 -139 53.7 -139.15 53.85 -139.7 54.3 -140.1 54.75 -140.5 55.5 -140.5 56.5 -140.5 56.9 -139.85 57.35 -139.15 57.35 -138
L 57.35 -131.6 60.95 -131.6
M 74.55 -140.6
Q 73.8 -141.95 72.5 -142.65 71.15 -143.4 69.35 -143.45 67.5 -143.4 66.1 -142.65 64.7 -141.95 63.95 -140.55 63.2 -139.2 63.2 -137.3 63.2 -135.45 63.95 -134.1 64.75 -132.75 66.1 -132.05 67.45 -131.35 69.15 -131.35 70.75 -131.35 72.15 -132 73.5 -132.65 74.4 -134.05 75.25 -135.4 75.3 -137.5 75.3 -139.25 74.55 -140.6
M 71.35 -139.05
Q 71.55 -138.3 71.55 -137.4 71.55 -135.8 70.95 -134.9 70.35 -133.95 69.25 -133.95 68.5 -133.95 67.95 -134.4 67.45 -134.85 67.15 -135.6 66.9 -136.4 66.9 -137.4 66.9 -138.3 67.15 -139.05 67.35 -139.85 67.9 -140.35 68.4 -140.85 69.25 -140.9 70.1 -140.85 70.6 -140.35 71.1 -139.85 71.35 -139.05
M 78.45 -167.45
Q 77.9 -167.7 77.05 -167.9 76.2 -168.05 75.15 -168.1 73.75 -168.05 72.7 -167.6 71.65 -167.1 71.05 -166.25 70.5 -165.4 70.45 -164.3 70.45 -163.25 71.2 -162.35 72 -161.45 73.75 -160.8 74.75 -160.5 75.1 -160.2 75.5 -159.95 75.45 -159.5 75.5 -159.05 75.1 -158.8 74.75 -158.55 73.9 -158.55 73.4 -158.55 72.8 -158.65 72.2 -158.8 71.7 -159 71.15 -159.2 70.8 -159.4
L 70.2 -156.85
Q 70.85 -156.45 71.8 -156.25 72.8 -156.05 73.9 -156 75.6 -156.05 76.7 -156.5 77.8 -157 78.4 -157.85 78.95 -158.65 78.95 -159.75 78.95 -161.05 78.2 -161.9 77.45 -162.75 75.8 -163.35 74.75 -163.7 74.35 -164 73.9 -164.25 73.9 -164.65 73.9 -165.1 74.3 -165.35 74.65 -165.6 75.3 -165.6 76.05 -165.6 76.75 -165.4 77.4 -165.15 77.8 -164.95
L 78.45 -167.45
M 58.1 -164.1
Q 57.75 -163 57.75 -161.9 57.75 -159.15 59.35 -157.6 60.95 -156.05 63.9 -156 65.1 -156 66.15 -156.2 67.2 -156.4 68.1 -156.7
L 67.65 -159.15
Q 66.9 -158.95 66.15 -158.8 65.35 -158.7 64.45 -158.7 63.6 -158.7 62.9 -158.95 62.15 -159.15 61.7 -159.65 61.25 -160.15 61.15 -160.9
L 68.65 -160.9
Q 68.65 -161.1 68.7 -161.45 68.75 -161.85 68.75 -162.3 68.75 -163.75 68.25 -165.1 67.7 -166.4 66.6 -167.2 65.45 -168.05 63.6 -168.1 62.1 -168.05 61 -167.55 59.85 -167 59.15 -166.1 58.45 -165.2 58.1 -164.1
M 61.15 -163.35
Q 61.2 -163.85 61.45 -164.4 61.65 -164.95 62.15 -165.3 62.6 -165.7 63.35 -165.7 64.2 -165.65 64.65 -165.25 65.1 -164.9 65.25 -164.35 65.4 -163.8 65.4 -163.35
L 61.15 -163.35
M 53.3 -167.85
L 51.9 -162.15
Q 51.75 -161.65 51.65 -161.05 51.5 -160.45 51.35 -160
L 51.3 -160
Q 51.2 -160.45 51.05 -161.05 50.85 -161.6 50.75 -162.15
L 49 -167.85 45 -167.85 49.25 -157.25
Q 49.35 -157.05 49.35 -156.9 49.4 -156.75 49.4 -156.65 49.4 -156.5 49.35 -156.4 49.3 -156.25 49.2 -156.1 48.95 -155.65 48.55 -155.3 48.15 -154.9 47.7 -154.7 47.3 -154.45 46.9 -154.25 46.5 -154.1 46.15 -154.05
L 46.9 -151
Q 47.6 -151.1 48.5 -151.45 49.45 -151.8 50.4 -152.6 51.05 -153.15 51.65 -154.05 52.3 -154.95 52.95 -156.45 53.65 -157.9 54.45 -160.2
L 57.15 -167.85 53.3 -167.85
M 29.9 -269
L 29.9 -228.05 95.15 -228.05 95.15 -269 29.9 -269
M 30.9 -229.05
L 30.9 -268 94.15 -268 94.15 -229.05 30.9 -229.05
M 78.6 -260.35
Q 76.65 -260.3 75.05 -259.9 73.4 -259.45 72.45 -258.85
L 73.4 -255.5
Q 74.05 -255.9 75.2 -256.3 76.3 -256.65 77.55 -256.7 79.05 -256.65 79.75 -256.1 80.5 -255.5 80.5 -254.6 80.5 -253.8 79.95 -253.3 79.4 -252.8 78.55 -252.55 77.75 -252.35 76.95 -252.35
L 75.15 -252.35 75.15 -249 77.05 -249
Q 78.1 -249 79 -248.7 79.9 -248.4 80.45 -247.8 81 -247.15 81.05 -246.2 81.05 -245.05 80.1 -244.3 79.2 -243.55 77.4 -243.55 75.95 -243.55 74.7 -244 73.45 -244.4 72.8 -244.75
L 71.85 -241.25
Q 72.75 -240.7 74.25 -240.3 75.8 -239.9 77.75 -239.85 80.25 -239.9 82.05 -240.65 83.9 -241.45 84.85 -242.8 85.85 -244.15 85.85 -245.95 85.85 -247.25 85.25 -248.25 84.7 -249.25 83.7 -249.9 82.75 -250.55 81.55 -250.75
L 81.55 -250.8
Q 83.4 -251.45 84.3 -252.65 85.2 -253.8 85.2 -255.4 85.2 -256.75 84.4 -257.9 83.65 -259 82.2 -259.65 80.75 -260.35 78.6 -260.35
M 56.65 -255
Q 57.4 -255.6 58.5 -256.1 59.55 -256.6 60.85 -256.6 62.55 -256.6 63.35 -255.8 64.15 -254.95 64.15 -253.75 64.1 -252.6 63.4 -251.4 62.65 -250.15 61.25 -248.7 59.8 -247.25 57.65 -245.3
L 55.1 -243 55.1 -240.2 69.15 -240.2 69.15 -244 61.65 -244 61.65 -244.05 63.5 -245.6
Q 64.95 -246.85 66.1 -248.2 67.3 -249.55 68.05 -251 68.75 -252.45 68.75 -254.1 68.75 -255.95 67.95 -257.35 67.15 -258.75 65.6 -259.5 64.05 -260.35 61.8 -260.35 59.8 -260.3 58.1 -259.75 56.45 -259.15 55.3 -258.3
L 56.65 -255
M 48.55 -260
L 44.75 -260 39.5 -257.55 40.25 -254.1 44.05 -255.9 44.1 -255.9 44.1 -240.2 48.55 -240.2 48.55 -260
M 95.15 -325.15
L 95.15 -366.15 29.85 -366.15 29.85 -325.15 95.15 -325.15
M 94.15 -365.15
L 94.15 -326.15 30.85 -326.15 30.85 -365.15 94.15 -365.15
M 64.55 -351.95
Q 63.4 -351.4 62.7 -350.4
L 62.65 -350.4 62.65 -358.95 58 -358.95 58 -341.75
Q 58 -340.45 58 -339.25 57.95 -338.05 57.9 -337.3
L 61.85 -337.3 62 -339.4 62.05 -339.4
Q 62.9 -338.05 64.05 -337.5 65.25 -336.95 66.55 -336.95 68.3 -336.95 69.85 -337.85 71.4 -338.75 72.4 -340.55 73.35 -342.35 73.4 -345 73.4 -347.3 72.6 -349 71.8 -350.7 70.45 -351.6 69.05 -352.5 67.25 -352.55 65.7 -352.5 64.55 -351.95
M 62.75 -346.7
Q 63 -347.7 63.75 -348.3 64.5 -348.95 65.45 -348.95 66.55 -348.95 67.25 -348.4 67.95 -347.85 68.35 -346.9 68.65 -346 68.65 -344.8 68.65 -342.8 67.8 -341.7 66.95 -340.65 65.45 -340.65 64.45 -340.65 63.7 -341.25 63 -341.85 62.75 -342.85 62.65 -343.2 62.65 -343.65
L 62.65 -345.85
Q 62.65 -346.05 62.65 -346.25 62.7 -346.5 62.75 -346.7
M 49.2 -357.85
L 43.1 -357.85 36.8 -337.3 41.65 -337.3 43.1 -342.6 49 -342.6 50.6 -337.3 55.6 -337.3 49.2 -357.85
M 45.95 -354.4
L 46 -354.4
Q 46.25 -353.45 46.5 -352.4 46.8 -351.35 47.05 -350.4
L 48.35 -346.05 43.8 -346.05 45 -350.4
Q 45.25 -351.35 45.5 -352.4 45.7 -353.45 45.95 -354.4
M 87.6 -351.95
Q 86.85 -352.25 85.9 -352.4 85 -352.55 84.05 -352.55 81.25 -352.5 79.35 -351.45 77.45 -350.4 76.5 -348.6 75.5 -346.8 75.5 -344.6 75.55 -342.25 76.5 -340.55 77.45 -338.85 79.25 -337.95 81 -337 83.4 -337 84.75 -337 85.85 -337.2 86.95 -337.4 87.55 -337.65
L 87 -341.1
Q 86.5 -340.9 85.85 -340.75 85.15 -340.65 84.35 -340.65 83.2 -340.65 82.3 -341.1 81.35 -341.6 80.8 -342.5 80.3 -343.45 80.25 -344.8 80.25 -346.65 81.35 -347.8 82.4 -348.95 84.25 -348.95 85.15 -348.95 85.8 -348.85 86.45 -348.7 86.85 -348.5
L 87.6 -351.95
M 74.8 -462.45
L 74.8 -443.15 94.1 -443.15 94.1 -462.45 74.8 -462.45
M 75.8 -444.15
L 75.8 -461.45 93.1 -461.45 93.1 -444.15 75.8 -444.15
M 79.85 -452.35
Q 79.85 -450.8 80.5 -449.55 81.15 -448.35 82.4 -447.65 83.65 -446.95 85.5 -446.95 86.5 -446.95 87.25 -447.1 87.95 -447.25 88.3 -447.4
L 87.95 -449.3
Q 87.55 -449.15 87 -449.05 86.45 -448.95 85.9 -448.95 84.25 -449 83.35 -449.9 82.45 -450.85 82.45 -452.5 82.45 -453.7 82.9 -454.5 83.35 -455.25 84.1 -455.65 84.9 -456.05 85.9 -456.05 86.55 -456.05 87.05 -455.95 87.55 -455.8 87.95 -455.65
L 88.45 -457.6
Q 88.1 -457.75 87.4 -457.9 86.7 -458.05 85.75 -458.1 84.1 -458.05 82.8 -457.4 81.45 -456.75 80.65 -455.45 79.9 -454.2 79.85 -452.35
M 31.1 -443.15
L 50.35 -443.15 50.35 -462.45 31.1 -462.45 31.1 -443.15
M 49.35 -461.45
L 49.35 -444.15 32.1 -444.15 32.1 -461.45 49.35 -461.45
M 41.85 -449.9
L 42.7 -447.1 45.35 -447.1 42 -457.9 38.8 -457.9 35.45 -447.1 38 -447.1 38.8 -449.9 41.85 -449.9
M 40.55 -455.05
Q 40.7 -454.5 40.85 -454
L 41.5 -451.7 39.15 -451.7 39.75 -454
Q 39.9 -454.45 40.05 -455.05 40.15 -455.6 40.25 -456.1
L 40.3 -456.1
Q 40.4 -455.6 40.55 -455.05
M 74.8 -440.05
L 74.8 -420.7 94.1 -420.7 94.1 -440.05 74.8 -440.05
M 75.8 -421.7
L 75.8 -439.05 93.1 -439.05 93.1 -421.7 75.8 -421.7
M 88.45 -436.2
L 81.85 -436.2 81.85 -425.4 84.3 -425.4 84.3 -429.75 88.2 -429.75 88.2 -431.75 84.3 -431.75 84.3 -434.2 88.45 -434.2 88.45 -436.2
M 72.3 -440.05
L 53 -440.05 53 -420.7 72.3 -420.7 72.3 -440.05
M 71.3 -439.05
L 71.3 -421.7 54 -421.7 54 -439.05 71.3 -439.05
M 62.4 -434.2
L 66.65 -434.2 66.65 -436.2 59.95 -436.2 59.95 -425.4 66.85 -425.4 66.85 -427.4 62.4 -427.4 62.4 -429.95 66.4 -429.95 66.4 -431.95 62.4 -431.95 62.4 -434.2
M 31.1 -440.05
L 31.1 -420.7 50.35 -420.7 50.35 -440.05 31.1 -440.05
M 32.1 -421.7
L 32.1 -439.05 49.35 -439.05 49.35 -421.7 32.1 -421.7
M 39.25 -436.3
Q 38.3 -436.3 37.5 -436.2 36.65 -436.15 35.95 -436.05
L 35.95 -425.45
Q 36.4 -425.4 37.1 -425.35 37.8 -425.3 38.75 -425.3 40.35 -425.3 41.6 -425.65 42.85 -426 43.7 -426.7 44.5 -427.35 45 -428.45 45.5 -429.5 45.5 -431.05 45.5 -432.5 45 -433.5 44.55 -434.5 43.7 -435.1 42.9 -435.7 41.85 -436 40.8 -436.3 39.25 -436.3
M 38.85 -434.35
Q 39.1 -434.4 39.5 -434.4 41.1 -434.4 42 -433.55 42.9 -432.65 42.9 -431 42.9 -429.7 42.45 -428.85 42 -428 41.2 -427.6 40.35 -427.2 39.25 -427.2 39.05 -427.2 38.8 -427.2 38.55 -427.2 38.4 -427.25
L 38.4 -434.3
Q 38.55 -434.35 38.85 -434.35
M 72.3 -462.45
L 53 -462.45 53 -443.15 72.3 -443.15 72.3 -462.45
M 54 -461.45
L 71.3 -461.45 71.3 -444.15 54 -444.15 54 -461.45
M 59.45 -457.85
Q 58.95 -457.85 58.6 -457.75
L 58.6 -447.15
Q 59 -447.1 59.7 -447.05 60.35 -447 61.25 -447 62.85 -447 63.9 -447.25 64.9 -447.5 65.5 -447.95 66 -448.4 66.3 -448.95 66.6 -449.55 66.65 -450.25 66.6 -451.3 66 -452 65.4 -452.65 64.45 -452.9
L 64.45 -452.95
Q 65.4 -453.3 65.85 -453.9 66.25 -454.5 66.25 -455.25 66.25 -456 65.9 -456.55 65.55 -457.05 64.95 -457.35 64.4 -457.7 63.65 -457.85 62.85 -458 61.75 -458 61.15 -458 60.55 -457.95 59.95 -457.9 59.45 -457.85
M 63.35 -455.9
Q 63.8 -455.55 63.8 -454.95 63.8 -454.35 63.3 -454 62.8 -453.65 61.85 -453.6
L 61.05 -453.6 61.05 -456.15
Q 61.2 -456.15 61.45 -456.2 61.7 -456.2 62.05 -456.2 62.9 -456.2 63.35 -455.9
M 61.05 -451.9
L 61.85 -451.9
Q 62.5 -451.9 63 -451.75 63.45 -451.55 63.75 -451.25 64.05 -450.9 64.05 -450.35 64.05 -449.8 63.75 -449.45 63.5 -449.1 63 -448.95 62.55 -448.8 61.95 -448.8 61.65 -448.8 61.45 -448.8 61.2 -448.8 61.05 -448.85
L 61.05 -451.9
M 90.95 -554.95
L 90.95 -557.95 71.7 -557.95 71.7 -538.2 50.9 -538.2 50.9 -518.4 34.25 -518.4 34.25 -515.4 53.9 -515.4 53.9 -535.2 74.7 -535.2 74.7 -554.95 90.95 -554.95
M 45.6 -530.7
L 43.15 -529.55 43.5 -527.9 45.3 -528.75 45.3 -521.4 47.4 -521.4 47.4 -530.7 45.6 -530.7
M 37.85 -531.05
L 35.65 -531.05 35.65 -521.4 41.65 -521.4 41.65 -523.25 37.85 -523.25 37.85 -531.05
M 64.05 -551.15
Q 63.1 -551.15 62.3 -550.85 61.55 -550.6 61 -550.2
L 61.65 -548.65
Q 62 -548.9 62.5 -549.15 63 -549.4 63.6 -549.4 64.4 -549.4 64.8 -549 65.15 -548.6 65.15 -548.05 65.15 -547.5 64.8 -546.95 64.45 -546.4 63.8 -545.7 63.1 -545 62.1 -544.1
L 60.9 -543 60.9 -541.7 67.5 -541.7 67.5 -543.5 64 -543.5 64.85 -544.25
Q 65.5 -544.85 66.1 -545.45 66.65 -546.1 66.95 -546.75 67.3 -547.45 67.3 -548.25 67.3 -549.1 66.95 -549.75 66.55 -550.4 65.85 -550.75 65.1 -551.15 64.05 -551.15
M 56.2 -551.35
L 54 -551.35 54 -541.7 60 -541.7 60 -543.55 56.2 -543.55 56.2 -551.35
M 76.35 -571.1
L 74.15 -571.1 74.15 -561.45 80.15 -561.45 80.15 -563.3 76.35 -563.3 76.35 -571.1
M 85.85 -570.55
Q 85.15 -570.9 84.15 -570.9 83.25 -570.9 82.5 -570.7 81.7 -570.45 81.3 -570.2
L 81.75 -568.6
Q 82.05 -568.8 82.55 -569 83.1 -569.15 83.65 -569.2 84.35 -569.15 84.7 -568.9 85.05 -568.65 85.05 -568.2 85.05 -567.8 84.8 -567.6 84.5 -567.35 84.15 -567.25 83.75 -567.15 83.4 -567.15
L 82.55 -567.15 82.55 -565.6 83.45 -565.6
Q 83.9 -565.6 84.35 -565.45 84.75 -565.3 85 -565 85.3 -564.7 85.3 -564.25 85.3 -563.7 84.85 -563.35 84.45 -563.05 83.6 -563 82.9 -563.05 82.35 -563.2 81.75 -563.4 81.45 -563.6
L 81 -561.95
Q 81.4 -561.7 82.15 -561.5 82.85 -561.3 83.75 -561.3 84.95 -561.3 85.8 -561.65 86.65 -562.05 87.1 -562.65 87.55 -563.3 87.55 -564.15 87.55 -564.75 87.3 -565.2 87 -565.7 86.55 -566 86.1 -566.3 85.55 -566.4
L 85.55 -566.45
Q 86.4 -566.75 86.8 -567.3 87.25 -567.85 87.25 -568.6 87.25 -569.2 86.9 -569.75 86.55 -570.25 85.85 -570.55 Z"/>
</g>
</defs>

<g transform="matrix( 1, 0, 0, 1, 0,0) ">
<use xlink:href="#Layer0_0_FILL"/>
</g>

<g transform="matrix( 1.58001708984375, 0, 0, 1.5796661376953125, -44.3,-448.05) ">
<clipPath id="Mask_Mask_1">
<rect x="66.9" y="-2" width="10.2" height="16.05" fill="#FFFFFF" stroke="none"/>
</clipPath>

<text clip-path="url(#Mask_Mask_1)" writing-mode="lr"/>
</g>
</svg>
