<?xml version="1.0" encoding="utf-8"?>
<!-- Generator: Adobe Illustrator 20.1.0, SVG Export Plug-In . SVG Version: 6.00 Build 0)  -->
<svg version="1.1" id="Layer_1" xmlns="http://www.w3.org/2000/svg" xmlns:xlink="http://www.w3.org/1999/xlink" x="0px" y="0px"
	 viewBox="0 0 45 45" style="enable-background:new 0 0 45 45;" xml:space="preserve">
<style type="text/css">
	.st0{fill:#5B5B5B;}
</style>
<g transform="matrix( 1, 0, 0, 1, 0,0) ">
	<g>
		<g id="Layer0_0_FILL">
			<path class="st0" d="M13.9,31.1c-0.6,0.6-0.8,1.3-0.8,2.1s0.3,1.5,0.8,2c0.6,0.6,1.3,0.9,2.1,0.9c0.8,0,1.5-0.3,2-0.9
				c0.6-0.6,0.9-1.3,0.9-2s-0.3-1.5-0.9-2.1c-0.6-0.6-1.2-0.9-2-0.9C15.2,30.3,14.5,30.6,13.9,31.1 M29,20.6c-0.4,0-0.8,0.1-1,0.4
				c-0.3,0.3-0.4,0.6-0.4,1c0,0.3,0.1,0.6,0.4,1c0.2,0.2,0.5,0.3,1,0.3h3.2v3.3c0,0.4,0.1,0.7,0.3,0.9c0.3,0.2,0.6,0.4,1,0.4
				c0.4,0,0.7-0.1,1-0.4c0.3-0.3,0.4-0.6,0.4-0.9v-3.3H38c0.5,0,0.8-0.1,1-0.3c0.2-0.3,0.3-0.6,0.3-1c0-0.5-0.1-0.8-0.3-1
				c-0.3-0.3-0.6-0.4-1-0.4h-3.2v-3.2c0-0.3-0.1-0.6-0.4-1c-0.2-0.2-0.5-0.4-1-0.4c-0.5,0-0.8,0.1-1,0.4s-0.3,0.6-0.3,1v3.2H29
				 M24,12.3c-0.8-1.2-1.9-2.2-3.3-2.9c-1.4-0.6-2.9-0.9-4.5-0.9c-0.8,0-1.7,0.1-2.7,0.4c-1,0.3-1.9,0.7-2.8,1.3
				c-0.8,0.5-1.5,1.2-2.1,2c-0.5,0.8-0.8,1.7-0.8,2.6c0,0.8,0.2,1.4,0.7,1.9s1,0.8,1.6,0.8c0.5,0,1-0.1,1.4-0.4
				c0.4-0.3,0.8-0.8,1.4-1.3c0.5-0.6,1-1.1,1.5-1.4c0.5-0.3,1.1-0.5,1.8-0.5c0.8,0,1.6,0.3,2.2,0.8c0.6,0.5,1,1.2,1,2
				c0,1-0.3,1.7-0.8,2.1c-0.5,0.4-1.3,0.8-2.3,1.1c-1.1,0.3-1.9,0.6-2.3,0.8c-0.5,0.2-0.7,0.6-0.7,1.3v3.8c0,0.8,0.3,1.4,0.8,1.9
				c0.5,0.5,1.1,0.8,1.9,0.8c0.8,0,1.4-0.3,2-0.8c0.5-0.5,0.8-1.1,0.8-1.9v-1.4c2-0.5,3.6-1.4,4.8-2.7c1.2-1.3,1.8-2.9,1.8-4.9
				C25.2,14.9,24.8,13.5,24,12.3z"/>
		</g>
	</g>
</g>
</svg>
