
<svg xmlns="http://www.w3.org/2000/svg" version="1.1" xmlns:xlink="http://www.w3.org/1999/xlink" preserveAspectRatio="none" x="0px" y="0px" width="45px" height="45px" viewBox="0 0 45 45">
<defs>
<g id="Layer0_0_FILL">
<path fill="#FFFFFF" stroke="none" d="
M 13.9 31.15
Q 13.05 32.05 13.05 33.25 13.05 34.45 13.9 35.3 14.8 36.15 16 36.15 17.2 36.15 18.05 35.3 18.9 34.45 18.9 33.25 18.9 32.05 18.05 31.15 17.2 30.3 16 30.3 14.8 30.3 13.9 31.15
M 29 20.65
Q 28.35 20.65 28 21.05 27.6 21.45 27.6 22.05 27.6 22.5 28 23.05 28.3 23.35 29 23.35
L 32.2 23.35 32.2 26.6
Q 32.2 27.2 32.55 27.55 32.95 27.9 33.5 27.9 34.1 27.9 34.45 27.55 34.85 27.15 34.85 26.6
L 34.85 23.35 38.05 23.35
Q 38.75 23.35 39.05 23.05 39.35 22.65 39.35 22.05 39.35 21.35 39.05 21.05 38.65 20.65 38.05 20.65
L 34.85 20.65 34.85 17.45
Q 34.85 17 34.45 16.5 34.15 16.15 33.5 16.15 32.8 16.15 32.5 16.5 32.2 16.85 32.2 17.45
L 32.2 20.65 29 20.65
M 23.95 12.3
Q 22.75 10.45 20.7 9.45 18.65 8.5 16.2 8.5 14.95 8.5 13.5 8.9 12 9.3 10.7 10.15 9.45 10.95 8.65 12.1 7.85 13.3 7.85 14.7 7.85 15.9 8.5 16.65 9.15 17.4 10.15 17.4 10.95 17.4 11.5 16.95 12.05 16.5 12.85 15.6 13.6 14.7 14.4 14.2 15.15 13.7 16.2 13.7 17.45 13.7 18.4 14.5 19.35 15.3 19.35 16.55 19.35 18 18.55 18.65 17.75 19.3 16.3 19.75 14.6 20.2 13.95 20.5 13.25 20.8 13.25 21.75
L 13.25 25.5
Q 13.25 26.65 14.05 27.35 14.75 28.1 16 28.1 17.15 28.1 17.95 27.35 18.7 26.65 18.7 25.5
L 18.7 24.15
Q 21.75 23.35 23.45 21.45 25.2 19.55 25.2 16.55 25.2 14.1 23.95 12.3 Z"/>
</g>
</defs>

<g transform="matrix( 1, 0, 0, 1, 0,0) ">
<use xlink:href="#Layer0_0_FILL"/>
</g>
</svg>
