
<svg xmlns="http://www.w3.org/2000/svg" version="1.1" xmlns:xlink="http://www.w3.org/1999/xlink" preserveAspectRatio="none" x="0px" y="0px" width="45px" height="45px" viewBox="0 0 45 45">
<defs>
<g id="Layer0_0_FILL">
<path fill="#FFFFFF" stroke="none" d="
M 27.3 24.5
Q 28.85 22.1 28.85 19.05 28.85 14.85 25.9 11.9 22.9 8.9 18.8 8.9 14.7 8.9 11.7 11.9 8.75 14.85 8.75 19.05 8.75 23.15 11.7 26.15 14.7 29.05 18.8 29.05 21.85 29.05 24.25 27.55 24.4 28.15 24.95 28.7
L 33.25 36.9
Q 33.85 37.6 35 37.7 35.95 37.7 36.75 36.9 37.55 36.1 37.55 35.15 37.55 34.2 36.75 33.4
L 28.5 25.2
Q 28 24.65 27.3 24.5
M 24.65 13.1
Q 27.1 15.55 27.1 19.05 27.1 22.45 24.75 24.9
L 24.65 25.1
Q 22.15 27.3 18.8 27.3 15.4 27.3 12.95 24.9 10.5 22.45 10.5 19.05 10.5 15.55 12.95 13.1 15.4 10.65 18.8 10.65 22.2 10.65 24.65 13.1
M 18.7 22.65
Q 18.2 22.65 17.75 23 17.4 23.45 17.4 23.95 17.4 24.5 17.75 24.9 18.2 25.25 18.7 25.25 19.25 25.25 19.7 24.9 20.05 24.5 20.05 23.95 20.05 23.45 19.7 23 19.25 22.65 18.7 22.65
M 22.15 18.6
Q 22.9 17.75 22.9 16.35 22.9 15.2 22.4 14.4 21.8 13.55 20.9 13.1 19.95 12.65 18.8 12.65 18.3 12.65 17.6 12.85 16.9 13 16.35 13.45 15.75 13.8 15.4 14.35 15.05 14.85 15.05 15.45 15.05 16.1 15.3 16.45 15.55 16.8 16.1 16.8 16.45 16.8 16.7 16.5 16.9 16.35 17.3 15.9 17.65 15.55 18 15.3 18.35 15.05 18.8 15.05 19.4 15.05 19.85 15.4 20.2 15.8 20.2 16.35 20.2 17.05 19.85 17.3 19.5 17.65 18.9 17.85 18.1 18 17.75 18.2 17.5 18.25 17.5 18.7
L 17.5 20.45
Q 17.5 21 17.85 21.25 18.2 21.6 18.7 21.6 19.25 21.6 19.6 21.25 19.95 21 19.95 20.45
L 19.95 19.85
Q 21.35 19.5 22.15 18.6 Z"/>
</g>
</defs>

<g transform="matrix( 1, 0, 0, 1, 0,0) ">
<use xlink:href="#Layer0_0_FILL"/>
</g>
</svg>
