<?xml version="1.0" encoding="utf-8"?>
<!-- Generator: Adobe Illustrator 20.1.0, SVG Export Plug-In . SVG Version: 6.00 Build 0)  -->
<svg version="1.1" id="Layer_1" xmlns="http://www.w3.org/2000/svg" xmlns:xlink="http://www.w3.org/1999/xlink" x="0px" y="0px"
	 viewBox="0 0 45 45" style="enable-background:new 0 0 45 45;" xml:space="preserve">
<style type="text/css">
	.st0{fill:#5B5B5B;}
</style>
<g transform="matrix( 1, 0, 0, 1, 0,0) ">
	<g>
		<g id="Layer0_0_FILL">
			<path class="st0" d="M27.3,24.5c1-1.6,1.6-3.4,1.6-5.5c0-2.8-1-5.2-3-7.1c-2-2-4.4-3-7.1-3s-5.1,1-7.1,3c-2,2-2.9,4.3-2.9,7.1
				c0,2.7,1,5.1,2.9,7.1c2,1.9,4.4,2.9,7.1,2.9c2,0,3.9-0.5,5.5-1.5c0.1,0.4,0.3,0.8,0.7,1.2l8.3,8.2c0.4,0.5,1,0.7,1.8,0.8
				c0.6,0,1.2-0.3,1.8-0.8c0.5-0.5,0.8-1.1,0.8-1.8c0-0.6-0.3-1.2-0.8-1.8l-8.3-8.2C28.2,24.8,27.8,24.6,27.3,24.5 M24.6,13.1
				c1.6,1.6,2.5,3.6,2.5,5.9c0,2.3-0.8,4.2-2.4,5.9l-0.1,0.2c-1.7,1.5-3.6,2.2-5.9,2.2c-2.3,0-4.2-0.8-5.8-2.4
				c-1.6-1.6-2.4-3.6-2.4-5.9c0-2.3,0.8-4.3,2.4-5.9s3.6-2.5,5.8-2.5S23,11.5,24.6,13.1 M18.7,22.6c-0.3,0-0.6,0.1-1,0.4
				c-0.2,0.3-0.4,0.6-0.4,1c0,0.4,0.1,0.7,0.4,0.9c0.3,0.2,0.6,0.4,1,0.4c0.4,0,0.7-0.1,1-0.4c0.2-0.3,0.3-0.6,0.3-0.9
				c0-0.3-0.1-0.6-0.3-1C19.4,22.8,19.1,22.6,18.7,22.6 M22.1,18.6c0.5-0.6,0.8-1.3,0.8-2.3c0-0.8-0.2-1.4-0.5-1.9
				c-0.4-0.6-0.9-1-1.5-1.3c-0.6-0.3-1.3-0.5-2.1-0.5c-0.3,0-0.7,0.1-1.2,0.2c-0.5,0.1-0.9,0.3-1.3,0.6c-0.4,0.2-0.7,0.5-1,0.9
				c-0.2,0.3-0.3,0.7-0.3,1.1c0,0.4,0.1,0.8,0.3,1c0.2,0.2,0.4,0.3,0.8,0.3c0.2,0,0.4-0.1,0.6-0.3c0.1-0.1,0.3-0.3,0.6-0.6
				c0.2-0.2,0.5-0.4,0.7-0.6c0.2-0.2,0.5-0.3,0.8-0.3c0.4,0,0.8,0.1,1.1,0.3c0.2,0.3,0.4,0.6,0.4,0.9c0,0.5-0.1,0.8-0.4,0.9
				c-0.2,0.2-0.5,0.4-1,0.6c-0.5,0.1-0.9,0.2-1.1,0.4c-0.2,0-0.3,0.2-0.3,0.5v1.8c0,0.4,0.1,0.6,0.4,0.8c0.2,0.2,0.5,0.4,0.9,0.4
				c0.4,0,0.7-0.1,0.9-0.4c0.2-0.2,0.4-0.4,0.4-0.8v-0.6C20.9,19.6,21.6,19.2,22.1,18.6z"/>
		</g>
	</g>
</g>
</svg>
