<?xml version="1.0" encoding="utf-8"?>
<!-- Generator: Adobe Illustrator 20.1.0, SVG Export Plug-In . SVG Version: 6.00 Build 0)  -->
<svg version="1.1" id="Layer_1" xmlns="http://www.w3.org/2000/svg" xmlns:xlink="http://www.w3.org/1999/xlink" x="0px" y="0px"
	 viewBox="0 0 32 32" style="enable-background:new 0 0 32 32;" xml:space="preserve">
<style type="text/css">
	.st0{fill:#FFFFFF;}
</style>
<g transform="matrix( 1.1596221923828125, 0, 0, 1.1596221923828125, -139.75,-157.3) ">
	<g>
		<g id="Layer0_0_MEMBER_0_FILL">
			<path class="st0" d="M145.6,146.9l-11.3-7.3l-11.3,7.3h4V159h15v-12.1H145.6 M134.3,145.1c1.2,0,2.3,0.4,3.1,1.3
				c0.9,0.8,1.3,1.9,1.3,3.1v7.3h-8.8v-7.3c0-1.2,0.4-2.3,1.3-3.1C132,145.5,133.1,145.1,134.3,145.1z"/>
		</g>
	</g>
</g>
<g transform="matrix( 1.1596221923828125, 0, 0, 1.1596221923828125, -139.75,-157.3) ">
	<g>
		<g id="Layer0_0_MEMBER_1_MEMBER_0_FILL">
			<path class="st0" d="M134.4,147.5c-0.7,0-1.2,0.2-1.7,0.7s-0.7,1.1-0.7,1.8v1.6h-0.1c0,0.3-0.1,0.5-0.3,0.7s-0.4,0.3-0.7,0.3v1.1
				h6.9v-1.1c-0.3,0-0.6-0.1-0.8-0.3s-0.3-0.4-0.3-0.7h0.1V150c0-0.7-0.2-1.3-0.7-1.8C135.7,147.7,135.1,147.5,134.4,147.5z"/>
		</g>
	</g>
</g>
<g transform="matrix( 1.1596221923828125, 0, 0, 1.1596221923828125, -139.75,-157.3) ">
	<g>
		<g id="Layer0_0_MEMBER_1_MEMBER_1_FILL">
			<path class="st0" d="M135.1,146.8c0-0.4-0.2-0.7-0.7-0.7s-0.6,0.2-0.6,0.7c0,0.4,0.2,0.6,0.6,0.6S135.1,147.2,135.1,146.8z"/>
		</g>
	</g>
</g>
<g transform="matrix( 1.1596221923828125, 0, 0, 1.1596221923828125, -139.75,-157.3) ">
	<g>
		<g id="Layer0_0_MEMBER_1_MEMBER_2_FILL">
			<path class="st0" d="M133.8,154.9c0.2,0.2,0.4,0.3,0.7,0.3s0.5-0.1,0.7-0.3s0.3-0.4,0.3-0.7h-2
				C133.5,154.4,133.6,154.7,133.8,154.9z"/>
		</g>
	</g>
</g>
</svg>
