<?xml version="1.0" encoding="utf-8"?>
<!-- Generator: Adobe Illustrator 20.1.0, SVG Export Plug-In . SVG Version: 6.00 Build 0)  -->
<svg version="1.1" id="Layer_1" xmlns="http://www.w3.org/2000/svg" xmlns:xlink="http://www.w3.org/1999/xlink" x="0px" y="0px"
	 viewBox="0 0 32 32" style="enable-background:new 0 0 32 32;" xml:space="preserve">
<style type="text/css">
	.st0{fill:#FFFFFF;}
</style>
<g transform="matrix( 1.15960693359375, 0, 0, 1.15960693359375, -141.85,-303.75) ">
	<g>
		<g id="Layer0_0_MEMBER_0_FILL">
			<path class="st0" d="M140.6,271.8c0-1.2-0.4-2.3-1.3-3.1c-0.9-0.9-2-1.3-3.2-1.3s-2.3,0.4-3.1,1.3s-1.3,1.9-1.3,3.1
				s0.4,2.3,1.3,3.1s1.9,1.3,3.1,1.3c1.2,0,2.3-0.4,3.2-1.3C140.2,274.1,140.6,273.1,140.6,271.8z"/>
		</g>
	</g>
</g>
<g transform="matrix( 1.15960693359375, 0, 0, 1.15960693359375, -141.85,-303.75) ">
	<g>
		<g id="Layer0_0_MEMBER_1_MEMBER_0_MEMBER_0_FILL">
			<path class="st0" d="M144,279.8c-1.9-1.5-4.5-2.3-7.9-2.3s-6,0.7-7.8,2.2c0.9,1.3,2,2.3,3.3,3c1.4,0.7,2.9,1.1,4.5,1.1
				s3.1-0.4,4.5-1.1C142,282.1,143.1,281.1,144,279.8z"/>
		</g>
	</g>
</g>
</svg>
