<?xml version="1.0" encoding="utf-8"?>
<!-- Generator: Adobe Illustrator 20.1.0, SVG Export Plug-In . SVG Version: 6.00 Build 0)  -->
<svg version="1.1" id="Layer_1" xmlns="http://www.w3.org/2000/svg" xmlns:xlink="http://www.w3.org/1999/xlink" x="0px" y="0px"
	 viewBox="0 0 30 30" style="enable-background:new 0 0 30 30;" xml:space="preserve">
<style type="text/css">
	.st0{fill:#262626;}
</style>
<g transform="matrix( 1, 0, 0, 1, 0,0) ">
	<g>
		<g id="Layer1_0_FILL">
			<path class="st0" d="M27.3,6.4L25,7.5c-0.7-0.9-1.6-1.8-2.5-2.4l1.1-2.3c-0.8-0.5-1.5-1-2.3-1.3l-1.5,2.1
				c-1.1-0.4-2.2-0.7-3.4-0.9l-0.2-2.5C15.9,0,15.5,0,15,0c-0.5,0-1,0-1.3,0.1l-0.2,2.5c-1.2,0.2-2.3,0.5-3.4,0.9L8.7,1.4
				C8,1.8,7.2,2.2,6.4,2.7L7.5,5C6.7,5.7,5.8,6.5,4.9,7.5L2.8,6.4C2.2,7.2,1.8,8,1.5,8.7l2,1.4c-0.5,1.1-0.8,2.2-1,3.4l-2.5,0.3
				C0,14,0,14.4,0,15c0,0.7,0,1.2,0.1,1.3l2.5,0.1c0.2,1.2,0.5,2.3,1,3.5l-2.1,1.4c0.3,0.8,0.7,1.6,1.3,2.3l2.3-1
				c0.7,0.9,1.5,1.7,2.5,2.4l-1,2.4c0.7,0.5,1.5,1,2.2,1.3l1.5-2c1.1,0.5,2.2,0.8,3.3,0.9l0.2,2.5h2.6l0.2-2.5
				c1.3-0.2,2.4-0.5,3.4-1l1.4,2.1c0.7-0.3,1.5-0.8,2.3-1.3l-1-2.4c1-0.8,1.9-1.6,2.5-2.5l2.3,1.1c0.5-0.7,0.9-1.5,1.3-2.3l-2-1.4
				c0.5-1.1,0.8-2.2,0.9-3.4l2.6-0.3c0-0.2,0-0.7,0-1.3c0-0.6,0-1.1,0-1.3l-2.6-0.2c-0.1-1.2-0.4-2.3-0.9-3.4l2.1-1.4
				C28.3,8.1,27.9,7.3,27.3,6.4 M22.5,15c0,2.1-0.7,3.9-2.1,5.3c-1.5,1.4-3.3,2.1-5.4,2.1s-3.8-0.7-5.3-2.1
				c-1.5-1.5-2.2-3.3-2.2-5.3c0-2,0.7-3.8,2.2-5.3c1.5-1.5,3.2-2.2,5.3-2.2s3.9,0.7,5.4,2.2C21.8,11.2,22.5,13,22.5,15z"/>
		</g>
	</g>
</g>
</svg>
