
<svg xmlns="http://www.w3.org/2000/svg" version="1.1" xmlns:xlink="http://www.w3.org/1999/xlink" preserveAspectRatio="none" x="0px" y="0px" width="30px" height="30px" viewBox="0 0 30 30">
<defs>
<g id="Layer1_0_FILL">
<path fill="#FFFFFF" stroke="none" d="
M 27.3 6.45
L 25 7.5
Q 23.9 6.1 22.55 5.05
L 23.65 2.75
Q 22.5 1.95 21.4 1.45
L 19.9 3.5
Q 18.3 2.85 16.55 2.6
L 16.35 0.1
Q 15.75 0 15 0 14.2 0 13.7 0.1
L 13.5 2.6
Q 11.75 2.85 10.15 3.5
L 8.7 1.45
Q 7.65 1.95 6.4 2.75
L 7.5 5.05
Q 6.25 6 4.95 7.5
L 2.75 6.45
Q 1.9 7.65 1.45 8.7
L 3.5 10.15
Q 2.8 11.8 2.55 13.55
L 0.1 13.8
Q 0 14.1 0 15 0 16.1 0.05 16.35
L 2.5 16.5
Q 2.75 18.25 3.45 19.95
L 1.4 21.35
Q 1.9 22.6 2.65 23.65
L 4.95 22.6
Q 5.95 24 7.45 25
L 6.4 27.35
Q 7.5 28.15 8.65 28.65
L 10.1 26.6
Q 11.75 27.3 13.45 27.5
L 13.65 30 16.3 30 16.5 27.45
Q 18.4 27.15 19.85 26.5
L 21.3 28.65
Q 22.35 28.15 23.55 27.35
L 22.5 25
Q 24.05 23.85 24.95 22.5
L 27.25 23.65
Q 28 22.6 28.55 21.35
L 26.5 19.95
Q 27.2 18.35 27.4 16.6
L 29.95 16.35
Q 30 16 30 15 30 14.05 29.95 13.75
L 27.4 13.55
Q 27.2 11.75 26.5 10.15
L 28.6 8.7
Q 28.2 7.75 27.3 6.45
M 22.5 15
Q 22.5 18.15 20.35 20.35 18.1 22.5 15 22.5 11.9 22.5 9.7 20.35 7.5 18.15 7.5 15 7.5 11.95 9.7 9.7 11.9 7.5 15 7.5 18.1 7.5 20.35 9.7 22.5 11.95 22.5 15 Z"/>
</g>
</defs>

<g transform="matrix( 1, 0, 0, 1, 0,0) ">
<use xlink:href="#Layer1_0_FILL"/>
</g>
</svg>
