
<svg xmlns="http://www.w3.org/2000/svg" version="1.1" xmlns:xlink="http://www.w3.org/1999/xlink" preserveAspectRatio="none" x="0px" y="0px" width="30px" height="30px" viewBox="0 0 30 30">
<defs>
<g id="Symbol_3_0_Layer0_0_FILL">
<path fill="#5CBE5C" stroke="none" d="
M 12.5 25
Q 17.7 25 21.3 21.35 25 17.7 25 12.5 25 7.3 21.3 3.6 17.7 0 12.5 0 7.3 0 3.6 3.6 0 7.3 0 12.5 0 17.7 3.6 21.35 7.3 25 12.5 25 Z"/>
</g>

<g id="Layer0_0_FILL">
<path fill="#FFFFFF" stroke="none" d="
M 24.45 10.65
L 22.05 8.25 12 18.35 7.55 13.9 5.2 16.25 12.05 23.05 24.45 10.65 Z"/>
</g>
</defs>

<g transform="matrix( 1, 0, 0, 1, 2.55,2.45) ">
<g transform="matrix( 1, 0, 0, 1, 0,0) ">
<use xlink:href="#Symbol_3_0_Layer0_0_FILL"/>
</g>
</g>

<g transform="matrix( 1, 0, 0, 1, 0,0) ">
<use xlink:href="#Layer0_0_FILL"/>
</g>
</svg>
