
<svg xmlns="http://www.w3.org/2000/svg" version="1.1" xmlns:xlink="http://www.w3.org/1999/xlink" preserveAspectRatio="none" x="0px" y="0px" width="30px" height="30px" viewBox="0 0 30 30">
<defs>
<g id="Layer1_0_FILL">
<path fill="#CD3638" stroke="none" d="
M 17.25 3.5
Q 16.7884765625 2.7546875 15.95 2.45 15.1 2.1470703125 14.25 2.45 13.4115234375 2.7546875 12.95 3.5
L 0.95 23.6
Q 0.4759765625 24.4091796875 0.6 25.3 0.7755859375 26.2033203125 1.45 26.8 2.1814453125 27.396875 3.1 27.4
L 27.1 27.4
Q 28.0185546875 27.396875 28.7 26.8 29.4244140625 26.2033203125 29.55 25.3 29.723828125 24.4091796875 29.25 23.6
L 17.25 3.5 Z"/>
</g>

<g id="Layer0_0_FILL">
<path fill="#FFFFFF" stroke="none" d="
M 15.15 20.95
Q 14.4 20.95 13.85 21.5 13.3 22.05 13.3 22.8 13.3 23.55 13.85 24.1 14.4 24.65 15.15 24.65 15.9 24.65 16.45 24.1 17 23.55 17 22.8 17 22.05 16.45 21.5 15.9 20.95 15.15 20.95
M 15.45 9.15
L 14.85 9.15
Q 14.25 9.15 13.8 9.6 13.35 10.05 13.35 10.65
L 13.35 17.7
Q 13.35 18.3 13.8 18.75 14.25 19.2 14.85 19.2
L 15.45 19.2
Q 16.05 19.2 16.5 18.75 16.95 18.3 16.95 17.7
L 16.95 10.65
Q 16.95 10.05 16.5 9.6 16.05 9.15 15.45 9.15 Z"/>
</g>
</defs>

<g transform="matrix( 1, 0, 0, 1, 0,0) ">
<use xlink:href="#Layer1_0_FILL"/>
</g>

<g transform="matrix( 1, 0, 0, 1, 0,0) ">
<use xlink:href="#Layer0_0_FILL"/>
</g>
</svg>
