
<svg xmlns="http://www.w3.org/2000/svg" version="1.1" xmlns:xlink="http://www.w3.org/1999/xlink" preserveAspectRatio="none" x="0px" y="0px" width="30px" height="30px" viewBox="0 0 30 30">
<defs>
<g id="Layer3_0_FILL">
<path fill="#FFFFFF" stroke="none" d="
M 21.7 9.5
L 1.45 9.5 1.45 26.8 21.7 26.8 21.7 9.5
M 3.35 11.1
L 19.85 11.1 19.85 25.15 3.35 25.15 3.35 11.1
M 13.65 21.7
L 14.15 20.3 16.75 20.3 17.2 21.7 19.1 21.7 16.5 14.75 14.45 14.75 11.85 21.7 13.65 21.7
M 16.3 19
L 14.55 19 15.45 16.55 16.3 19
M 23.3 23.35
L 25.15 23.35 25.15 6.05 4.9 6.05 4.9 7.65 23.3 7.65 23.3 23.35
M 26.8 19.85
L 28.65 19.85 28.65 2.55 8.4 2.55 8.4 4.15 26.8 4.15 26.8 19.85 Z"/>
</g>
</defs>

<g transform="matrix( 1, 0, 0, 1, 0,0) ">
<use xlink:href="#Layer3_0_FILL"/>
</g>
</svg>
