
<svg xmlns="http://www.w3.org/2000/svg" version="1.1" xmlns:xlink="http://www.w3.org/1999/xlink" preserveAspectRatio="none" x="0px" y="0px" width="30px" height="30px" viewBox="0 0 30 30">
<defs>
<g id="Layer0_0_FILL">
<path fill="#FFFFFF" stroke="none" d="
M 24.05 18.6
Q 25.2 16.3 25.2 13.65 25.2 9.1 21.9 5.8 18.7 2.6 14.1 2.6 9.85 2.6 6.75 5.4 6.5 5.6 6.3 5.8 3.05 9.1 3.05 13.65 3.05 18.2 6.3 21.45 6.5 21.65 6.75 21.9 9.85 24.7 14.1 24.7 16.9 24.7 19.2 23.5
L 16.65 20.9
Q 15.5 21.3 14.15 21.3 11 21.3 8.75 19.05 7.25 17.6 6.75 15.7 6.5 14.75 6.5 13.7 6.5 12.65 6.75 11.7 7.25 9.8 8.7 8.3
L 8.75 8.3
Q 11 6 14.15 6 17.3 6 19.5 8.3 21.8 10.55 21.8 13.7 21.8 14.9 21.45 16
L 24.05 18.6
M 27.75 17.9
L 24.45 21.2 16.3 13.05 13.5 15.8 21.65 24 18.5 27.2 27.7 27.15 27.75 17.9 Z"/>
</g>
</defs>

<g transform="matrix( 1, 0, 0, 1, 0,0) ">
<use xlink:href="#Layer0_0_FILL"/>
</g>
</svg>
