
<svg xmlns="http://www.w3.org/2000/svg" version="1.1" xmlns:xlink="http://www.w3.org/1999/xlink" preserveAspectRatio="none" x="0px" y="0px" width="30px" height="30px" viewBox="0 0 30 30">
<defs>
<g id="Layer1_0_FILL">
<path fill="#FFFFFF" stroke="none" d="
M 6.3 15.45
Q 5.794140625 15.0814453125 5.15 15.15 4.5671875 15.258203125 4.2 15.75 3.83203125 16.25703125 3.9 16.85 4.2560546875 19.16484375 5.4 21
L 7.6 18.8
Q 7.06328125 17.708984375 6.85 16.4 6.7912109375 15.816015625 6.3 15.45
M 17.95 7.5
Q 18.315234375 7.6037109375 18.65 7.75
L 20.9 5.45
Q 19.9044921875 4.9259765625 18.75 4.6 15.6208984375 3.734375 12.55 4.7 9.567578125 5.6451171875 7.55 8.05
L 7.55 5.1
Q 7.5447265625 4.483984375 7.1 4.05 6.666015625 3.6052734375 6.05 3.6 5.433984375 3.6052734375 5 4.05 4.5552734375 4.483984375 4.55 5.1
L 4.55 11.65
Q 4.5552734375 12.266015625 5 12.7 5.433984375 13.1447265625 6.05 13.15
L 12.6 13.15
Q 13.216015625 13.1447265625 13.65 12.7 14.0947265625 12.266015625 14.1 11.65 14.098046875 11.41953125 14 11.2 13.9283203125 10.871484375 13.65 10.6 13.216015625 10.1552734375 12.6 10.15
L 9.65 10.15
Q 9.732421875 10.0810546875 9.8 10 11.269140625 8.243359375 13.45 7.55 15.6791015625 6.8654296875 17.95 7.5
M 20.8 20.15
Q 20.6923828125 20.2390625 20.6 20.35 19.1306640625 22.1064453125 16.95 22.75 14.766796875 23.4373046875 12.5 22.8 12.1330078125 22.69765625 11.75 22.55
L 9.5 24.85
Q 10.5373046875 25.377734375 11.7 25.7 14.8328125 26.5626953125 17.85 25.6 20.7953125 24.7162109375 22.8 22.35
L 22.8 25.2
Q 22.8052734375 25.816015625 23.25 26.25 23.683984375 26.6947265625 24.3 26.7 24.916015625 26.6947265625 25.35 26.25 25.7947265625 25.816015625 25.8 25.2
L 25.8 18.65
Q 25.7947265625 18.033984375 25.35 17.6 24.916015625 17.1552734375 24.3 17.15
L 17.75 17.15
Q 17.3197265625 17.1537109375 16.95 17.35 16.830859375 17.4658203125 16.7 17.6 16.5654296875 17.73125 16.45 17.85 16.2537109375 18.2203125 16.25 18.65 16.2552734375 19.266015625 16.7 19.7 16.8017578125 19.804296875 16.9 19.85 17.278515625 20.1458984375 17.75 20.15
L 20.8 20.15
M 26.1 6.25
L 24.1 4.25 4.2 24.1 6.2 26.1 26.1 6.25
M 25 9.3
L 22.8 11.5
Q 23.3396484375 12.6109375 23.5 13.85 23.6087890625 14.4837890625 24.1 14.85 24.605859375 15.2185546875 25.2 15.1 25.8328125 15.041796875 26.2 14.55 26.56796875 14.04296875 26.45 13.4 26.146875 11.1544921875 25 9.3 Z"/>
</g>
</defs>

<g transform="matrix( 1, 0, 0, 1, 0,0) ">
<use xlink:href="#Layer1_0_FILL"/>
</g>
</svg>
