
<svg xmlns="http://www.w3.org/2000/svg" version="1.1" xmlns:xlink="http://www.w3.org/1999/xlink" preserveAspectRatio="none" x="0px" y="0px" width="30px" height="30px" viewBox="0 0 30 30">
<defs>
<g id="Layer0_0_FILL">
<path fill="#FFFFFF" stroke="none" d="
M 27.65 24.65
L 25.4 22.4 25.45 22.4 17.25 14.15 20.45 11 11.25 11.05 11.2 20.3 15.05 16.4 14.5 17 24.9 27.4 27.65 24.65
M 24.05 18.85
Q 25.2 16.55 25.2 13.9 25.2 9.35 21.9 6.05 18.7 2.85 14.1 2.85 9.8607421875 2.85 6.75 5.6 6.521875 5.8314453125 6.3 6.05 3.05 9.35 3.05 13.9 3.05 18.45 6.3 21.7 6.521875 21.921875 6.75 22.1 9.8607421875 24.95 14.1 24.95 16.9 24.95 19.2 23.75
L 16.65 21.15
Q 15.5 21.55 14.15 21.55 11 21.55 8.75 19.3 7.25 17.833203125 6.75 15.95 6.5 14.9998046875 6.5 13.95 6.5 12.905078125 6.75 11.95 7.2416015625 10.0748046875 8.7 8.55
L 8.75 8.55
Q 11 6.25 14.15 6.25 17.3 6.25 19.5 8.55 21.8 10.8 21.8 13.95 21.8 15.15 21.45 16.25
L 24.05 18.85 Z"/>
</g>
</defs>

<g transform="matrix( 1, 0, 0, 1, 0,0) ">
<use xlink:href="#Layer0_0_FILL"/>
</g>
</svg>
