<?xml version="1.0" encoding="utf-8"?>
<!-- Generator: Adobe Illustrator 20.1.0, SVG Export Plug-In . SVG Version: 6.00 Build 0)  -->
<svg version="1.1" id="Layer_1" xmlns="http://www.w3.org/2000/svg" xmlns:xlink="http://www.w3.org/1999/xlink" x="0px" y="0px"
	 viewBox="0 0 45 45" style="enable-background:new 0 0 45 45;" xml:space="preserve">
<style type="text/css">
	.st0{fill:#FFFFFF;}
</style>
<path class="st0" d="M36.8,33.4l-8.3-8.2c-0.3-0.4-0.7-0.6-1.2-0.7c1-1.6,1.5-3.4,1.5-5.5c0-2.8-1-5.2-2.9-7.2c-2-2-4.4-3-7.1-3
	s-5.1,1-7.1,3c-2,2-3,4.4-3,7.2c0,2.7,1,5.1,3,7.1c2,1.9,4.4,2.9,7.1,2.9c2,0,3.9-0.5,5.5-1.5c0.1,0.4,0.3,0.8,0.7,1.2l8.3,8.2
	c0.4,0.5,1,0.7,1.8,0.8c0.6,0,1.2-0.3,1.8-0.8c0.5-0.5,0.8-1.1,0.8-1.8C37.5,34.5,37.3,33.9,36.8,33.4z M24.8,24.9l-0.1,0.2
	c-1.7,1.5-3.6,2.2-5.9,2.2c-2.3,0-4.2-0.8-5.8-2.4c-1.6-1.6-2.5-3.6-2.5-5.8c0-2.3,0.8-4.3,2.5-6c1.6-1.6,3.6-2.5,5.8-2.5
	s4.2,0.8,5.9,2.5c1.6,1.6,2.4,3.6,2.4,6C27.1,21.3,26.3,23.3,24.8,24.9z"/>
<g>
	<path class="st0" d="M18.9,24.7L18.9,24.7c-0.6,0-1-0.5-1-1v-8.9c0-0.6,0.5-1,1-1h0c0.6,0,1,0.5,1,1v8.9
		C20,24.2,19.5,24.7,18.9,24.7z"/>
	<path class="st0" d="M13.4,19.2L13.4,19.2c0-0.6,0.5-1,1-1l8.9,0c0.6,0,1,0.5,1,1v0c0,0.6-0.5,1-1,1l-8.9,0
		C13.9,20.2,13.4,19.7,13.4,19.2z"/>
</g>
</svg>
