<?xml version="1.0" encoding="utf-8"?>
<!-- Generator: Adobe Illustrator 20.1.0, SVG Export Plug-In . SVG Version: 6.00 Build 0)  -->
<svg version="1.1" id="Layer_1" xmlns="http://www.w3.org/2000/svg" xmlns:xlink="http://www.w3.org/1999/xlink" x="0px" y="0px"
	 viewBox="0 0 70 70" style="enable-background:new 0 0 70 70;" xml:space="preserve">
<style type="text/css">
	.st0{fill:#9e9e9e;}
</style>
<g transform="matrix( 1, 0, 0, 1, -48.5,-48.55) ">
	<g>
		<g id="Layer0_0_MEMBER_0_FILL">
			<path class="st0" d="M93.3,49.2c-1.1-0.3-2.2-0.6-3.1-0.7l-2.1,5.8c-2.8-0.4-5.6-0.4-8.3,0l-2.1-5.6C76,49,74,49.5,71.8,50.3l1,6
				c-2.3,0.9-4.7,2.3-7.3,4.2l-4.5-3.9c-1.7,1.4-3.2,2.9-4.4,4.4l3.8,4.7c-1.8,2.3-3.2,4.7-4.2,7.3l-6-1.1c-0.2,0.4-0.6,1.3-1,2.8
				c-0.3,1.1-0.6,2.2-0.7,3.1l5.7,2c-0.4,3-0.5,5.8,0,8.4l-5.7,2.1c0.3,1.8,0.8,3.8,1.6,6l5.9-1c0.9,2.4,2.4,4.8,4.3,7.2l-3.8,4.7
				c1.4,1.7,2.9,3.2,4.4,4.4l4.6-3.8c2.1,1.6,4.5,3,7.2,4.2l-1.1,6l3.1,0.9c1.1,0.3,2.1,0.6,3,0.7l2.1-5.8c3,0.4,5.7,0.4,8.3,0
				l2.1,5.8c1.7-0.3,3.7-0.8,6-1.6l-1-6.1c2.6-1,5-2.4,7.2-4.2l4.7,4c1.7-1.4,3.2-2.9,4.4-4.4l-3.8-4.6c1.7-2.2,3.1-4.6,4.2-7.3
				l6.1,1c0.2-0.4,0.5-1.4,0.9-3c0.3-1.1,0.6-2.1,0.7-3l-5.8-2.1c0.4-2.8,0.4-5.6,0-8.3l5.8-2.1c-0.3-1.7-0.8-3.7-1.6-6l-6,1
				c-0.8-2.2-2.2-4.6-4.2-7.2l4-4.7c-1.5-1.7-2.9-3.2-4.4-4.4l-4.8,3.8c-2.2-1.7-4.6-3.1-7.3-4.2l1.2-6C96,50.1,95,49.7,93.3,49.2
				 M99.6,75c2.5,4.3,3.1,8.9,1.8,13.7c-1.3,4.8-4.1,8.5-8.3,11c-4.3,2.5-8.9,3.1-13.7,1.8c-4.8-1.3-8.4-4.1-10.9-8.3
				c-2.5-4.3-3.1-8.9-1.8-13.7c1.3-4.8,4.1-8.4,8.3-10.9c4.3-2.5,8.9-3.1,13.7-1.8C93.5,67.9,97.1,70.7,99.6,75z"/>
		</g>
	</g>
</g>
</svg>
