<?xml version="1.0" encoding="utf-8"?>
<!-- Generator: Adobe Illustrator 20.1.0, SVG Export Plug-In . SVG Version: 6.00 Build 0)  -->
<svg version="1.1" id="Layer_1" xmlns="http://www.w3.org/2000/svg" xmlns:xlink="http://www.w3.org/1999/xlink" x="0px" y="0px"
	 viewBox="0 0 72 72" style="enable-background:new 0 0 72 72;" xml:space="preserve">
<style type="text/css">
	.st0{fill:#AAAAAA;}
</style>
<g transform="matrix( 1, 0, 0, 1, 0,0) ">
	<g>
		<g id="Layer0_0_MEMBER_0_FILL">
			<path class="st0" d="M63.6,24.4l5-3.5c-0.7-1.7-1.7-3.5-3.1-5.4L60,18c-1.6-2.1-3.6-4-5.9-5.8l2.7-5.6c-1.8-1.2-3.6-2.3-5.4-3.1
				l-3.6,4.9c-2.6-1.1-5.3-1.8-8-2.2l-0.5-6.1C38.5,0,37.4,0,36,0c-1.5,0-2.5,0.1-3.2,0.2l-0.4,6.1c-2.7,0.3-5.4,1-8.1,2.2l-3.5-4.9
				c-1.8,0.8-3.6,1.9-5.4,3.1l2.5,5.6c-1.9,1.4-3.9,3.4-6,5.8l-5.4-2.5c-1.2,1.8-2.3,3.6-3.1,5.4l4.9,3.5c-1.1,2.6-1.8,5.3-2.2,8.1
				l-6,0.5C0.1,33.6,0,34.6,0,36c0,1.5,0,2.5,0.1,3.2l6,0.4c0.3,2.8,1.1,5.5,2.2,8.2l-4.9,3.5c0.8,1.9,1.9,3.7,3.1,5.4l5.4-2.5
				c1.6,2.2,3.6,4.1,6,5.8l-2.5,5.6c1.7,1.2,3.5,2.3,5.4,3.1l3.5-4.9c2.6,1.1,5.3,1.8,8,2.2l0.5,6.1H36c1.4,0,2.5,0,3.1-0.1l0.5-6.1
				c3-0.4,5.7-1.2,8-2.2l3.5,5.1c1.8-0.8,3.6-1.9,5.4-3.1L54,59.9c2.4-1.8,4.3-3.7,5.8-5.9l5.6,2.7c1.2-1.7,2.3-3.5,3.1-5.4
				l-4.9-3.5c1.1-2.6,1.8-5.3,2.2-8l6.1-0.6C72,38.5,72,37.5,72,36c0-1.4,0-2.5-0.2-3.1l-6.1-0.5C65.4,29.7,64.7,27,63.6,24.4
				 M54,36c0,5-1.8,9.3-5.3,12.8C45.2,52.2,41,54,36,54c-5,0-9.3-1.8-12.8-5.3S18,41,18,36c0-5,1.8-9.2,5.3-12.8
				C26.8,19.7,31,18,36,18c5,0,9.2,1.8,12.8,5.3C52.3,26.8,54,31,54,36z"/>
		</g>
	</g>
</g>
</svg>
