<?xml version="1.0" encoding="utf-8"?>
<!-- Generator: Adobe Illustrator 20.1.0, SVG Export Plug-In . SVG Version: 6.00 Build 0)  -->
<svg version="1.1" id="Layer_1" xmlns="http://www.w3.org/2000/svg" xmlns:xlink="http://www.w3.org/1999/xlink" x="0px" y="0px"
	 viewBox="0 0 32 32" style="enable-background:new 0 0 32 32;" xml:space="preserve">
<style type="text/css">
	.st0{fill:#FFFFFF;}
</style>
<g transform="matrix( 1, 0, 0, 1, 0,0) ">
	<g>
		<g id="Layer0_0_FILL">
			<path class="st0" d="M9.8,20.2v9.4h12.7v-9.4H9.8 M20.8,23.2c0,0.2-0.1,0.4-0.2,0.5c-0.2,0.1-0.3,0.2-0.5,0.2h-7.9
				c-0.2,0-0.4-0.1-0.6-0.2c-0.1-0.1-0.1-0.3-0.1-0.5c0-0.2,0.1-0.4,0.1-0.5c0.2-0.2,0.4-0.3,0.6-0.3h7.9c0.2,0,0.3,0.1,0.5,0.3
				C20.7,22.9,20.8,23,20.8,23.2 M20.1,27h-7.9c-0.2,0-0.4-0.1-0.6-0.3c-0.1-0.1-0.1-0.3-0.1-0.4c0-0.2,0.1-0.4,0.1-0.6
				c0.2-0.1,0.4-0.2,0.6-0.2h7.9c0.2,0,0.3,0.1,0.5,0.2c0.1,0.2,0.2,0.4,0.2,0.6c0,0.2-0.1,0.3-0.2,0.4C20.4,27,20.3,27,20.1,27
				 M28.7,10.6c0-0.4-0.2-0.6-0.7-0.6H3.9c-0.4,0-0.7,0.2-0.7,0.6v11.7c0,0.4,0.2,0.6,0.7,0.6h4.3v-3.5c0-0.2,0.1-0.4,0.1-0.6
				c0.2-0.1,0.4-0.1,0.6-0.1h14.3c0.2,0,0.3,0.1,0.5,0.1c0.1,0.2,0.2,0.4,0.2,0.6v3.5H28c0.4,0,0.7-0.2,0.7-0.6V10.6 M25.5,10.7
				c0.8,0,1.5,0.3,2.1,0.9c0.6,0.6,0.9,1.3,0.9,2.1c0,0.8-0.3,1.4-0.9,2c-0.6,0.6-1.3,0.8-2.1,0.8c-0.7,0-1.4-0.3-2-0.8
				c-0.6-0.6-0.9-1.3-0.9-2c0-0.8,0.3-1.5,0.9-2.1C24.1,11,24.7,10.7,25.5,10.7 M25.5,15c0.4,0,0.8-0.1,1-0.4c0.3-0.3,0.5-0.6,0.5-1
				c0-0.4-0.1-0.7-0.5-1c-0.3-0.3-0.6-0.4-1-0.4c-0.3,0-0.6,0.1-1,0.4c-0.2,0.3-0.4,0.6-0.4,1c0,0.4,0.1,0.7,0.4,1
				C24.8,14.9,25.1,15,25.5,15 M21.3,5.3c0-0.1-0.1-0.2-0.1-0.2h-10c-0.1,0-0.2,0.1-0.2,0.2v3.2h10.4V5.3 M24.1,3.3
				c0-0.5-0.2-0.7-0.7-0.7H8.8c-0.5,0-0.7,0.2-0.7,0.7v5.2h1.3V5.2c0.1-1.1,0.6-1.6,1.7-1.6h10c1.1,0,1.6,0.6,1.6,1.7v3.2h1.4V3.3z"
				/>
		</g>
	</g>
</g>
</svg>
