<?xml version="1.0" encoding="utf-8"?>
<!-- Generator: Adobe Illustrator 20.1.0, SVG Export Plug-In . SVG Version: 6.00 Build 0)  -->
<svg version="1.1" id="Layer_1" xmlns="http://www.w3.org/2000/svg" xmlns:xlink="http://www.w3.org/1999/xlink" x="0px" y="0px"
	 viewBox="0 0 32 32" style="enable-background:new 0 0 32 32;" xml:space="preserve">
<style type="text/css">
	.st0{fill:#FFFFFF;}
</style>
<g transform="matrix( 1, 0, 0, 1, 0,0) ">
	<g>
		<g id="Layer0_0_FILL">
			<path class="st0" d="M11,13.7l2.2-2.9C12,9.7,10.8,8.9,9.5,8.6H3v3.3h5.1C9.1,12,10,12.6,11,13.7z"/>
			<path class="st0" d="M24,20.6h-2.3c-1.2,0.1-2.5-0.8-3.9-2.6l-2,3.2c1.2,1.4,2.4,2.2,3.8,2.6h4.2v3.5l5.2-4.8l-5-5.1V20.6z"/>
			<path class="st0" d="M23.8,5v3.2h-4.2c-1.9,0.5-3.6,2-5.1,4.4c-0.3,0.5-0.6,1-1,1.7c-0.3,0.7-0.6,1.3-0.9,1.8
				c-1.6,2.6-3.1,4-4.5,4H3v3.3h6.5c1.4-0.3,2.7-1.1,3.9-2.4c0.4-0.5,0.8-1,1.1-1.5c0.6-0.9,1.2-2,1.7-3.2c0.1-0.1,0.1-0.2,0.2-0.3
				c1.9-3.3,3.7-4.9,5.3-4.7H24v3.3l5-5L24.2,5H23.8z"/>
		</g>
	</g>
</g>
</svg>
