
<svg xmlns="http://www.w3.org/2000/svg" version="1.1" xmlns:xlink="http://www.w3.org/1999/xlink" preserveAspectRatio="none" x="0px" y="0px" width="30px" height="30px" viewBox="0 0 30 30">
<defs>
<g id="Layer0_0_FILL">
<path fill="#FFFFFF" stroke="none" d="
M 26.65 4.6
Q 26.6 4.35 26.5 4.15 26.05 3.2 25 3.1
L 21.2 3.1 21.2 9.55
Q 21.35 11.2 19.55 11.2
L 10.3 11.2
Q 8.95 11.1 8.75 9.65
L 8.75 3.15 5.6 3.15
Q 4.5728515625 3.226171875 4.1 4.2 4.0001953125 4.4044921875 3.9 4.65 3.8814453125 4.7703125 3.85 4.9
L 3.85 24.3
Q 3.6 27.5 6.8 27.25
L 24.75 27.25
Q 26.95 27 26.75 24.3
L 26.75 4.85
Q 26.7 4.7 26.65 4.6
M 6.1 24.7
L 6.1 13.4 24 13.4 24 25.45
Q 23.9 25.45 23.75 25.45
L 6.85 25.45
Q 6 25.4 6.1 24.7
M 21 22.7
L 21 20.9 9 20.9 9 22.7 21 22.7
M 21 18.2
L 21 16.4 9 16.4 9 18.2 21 18.2
M 16.25 9.85
L 18.9 9.85 18.9 3.9 16.25 3.9 16.25 9.85 Z"/>
</g>
</defs>

<g transform="matrix( 1, 0, 0, 1, 0,0) ">
<use xlink:href="#Layer0_0_FILL"/>
</g>
</svg>
