
<svg xmlns="http://www.w3.org/2000/svg" version="1.1" xmlns:xlink="http://www.w3.org/1999/xlink" preserveAspectRatio="none" x="0px" y="0px" width="30px" height="30px" viewBox="0 0 30 30">
<defs>
<image id="Bitmap_1" x="0" y="0" width="400" height="300" xlink:href="./images/Bitmap_1.png"/>

<pattern id="Pattern_1" patternUnits="userSpaceOnUse" patternTransform="matrix( 0.200823974609375, 0, 0, 0.200823974609375, -45.4,-16.3) " width="400" height="300">
<use xlink:href="#Bitmap_1"/>
</pattern>

<pattern id="Pattern_2" patternUnits="userSpaceOnUse" patternTransform="matrix( 0.22216796875, 0, 0, 0.22216796875, -18.05,-19) " width="400" height="300">
<use xlink:href="#Bitmap_1"/>
</pattern>

<g id="Layer0_0_FILL">
<path fill="url(#Pattern_1)" stroke="none" d="
M 18.8 29.6
L 18.65 29.65 18.85 29.65 18.8 29.6 Z"/>

<path fill="#FFFFFF" stroke="none" d="
M 18.35 3.8
L 15.95 3.8 15.95 9.2 18.35 9.2 18.35 3.8
M 23.95 24.2
L 21.3 24.2 21.3 16.35 15.9 16.35 15.9 24.2 13.2 24.2 18.6 29.6 23.95 24.2
M 25.45 7.45
Q 25.4666015625 7.021484375 25.45 6.6
L 25.45 4.65
Q 25.1 3.2 23.9 3.1
L 20.4 3.1 20.4 8.9
Q 20.55 10.4 18.9 10.4
L 10.55 10.4
Q 9.35 10.3 9.15 9
L 9.15 3.15 6.3 3.15
Q 5.1 3.25 4.75 4.7
L 4.75 22.25
Q 4.5 25.15 7.4 24.9
L 11.85 24.9 10.25 23.3 7.45 23.3
Q 6.65 23.25 6.75 22.6
L 6.75 12.4 22.95 12.4 22.95 22.6 25.45 22.6 25.45 7.45 Z"/>

<path fill="url(#Pattern_2)" stroke="none" d="
M 53.1 31.9
L 53 31.8 52.85 31.9 53.1 31.9 Z"/>
</g>
</defs>

<g transform="matrix( 1, 0, 0, 1, 0,0) ">
<use xlink:href="#Layer0_0_FILL"/>
</g>
</svg>
