
<svg xmlns="http://www.w3.org/2000/svg" version="1.1" xmlns:xlink="http://www.w3.org/1999/xlink" preserveAspectRatio="none" x="0px" y="0px" width="30px" height="30px" viewBox="0 0 30 30">
<defs>
<g id="Layer0_0_FILL">
<path fill="#FFFFFF" stroke="none" d="
M 23.75 23.95
L 23.75 21.85 18.85 21.85 18.85 20.35
Q 20.7 19.3 21.95 17.4 23.15 15.55 23.15 13.2 23.15 9.9 20.9 7.75 20.1 7 19.1 6.5 17.3 5.65 15 5.65 12.65 5.65 10.9 6.5 9.85 7 9.05 7.75 6.8 9.9 6.8 13.2 6.8 15.55 8.05 17.4 9.25 19.3 11.15 20.35
L 11.15 21.85 6.2 21.85 6.2 23.95 13.15 23.95 13.15 19.3
Q 12.4 18.85 11.7 18.3 11 17.8 10.45 17.1 9.9 16.4 9.6 15.45 9.3 14.45 9.3 13.2 9.3 10.7 10.8 9.25 12.35 7.7 15 7.7 17.65 7.7 19.15 9.25 20.7 10.7 20.7 13.2 20.7 14.45 20.35 15.45 20.05 16.4 19.5 17.1 19 17.8 18.3 18.3 17.55 18.85 16.85 19.3
L 16.85 23.95 23.75 23.95 Z"/>
</g>
</defs>

<g transform="matrix( 1, 0, 0, 1, 0,0) ">
<use xlink:href="#Layer0_0_FILL"/>
</g>
</svg>
