
<svg xmlns="http://www.w3.org/2000/svg" version="1.1" xmlns:xlink="http://www.w3.org/1999/xlink" preserveAspectRatio="none" x="0px" y="0px" width="30px" height="30px" viewBox="0 0 30 30">
<defs>
<g id="Layer1_0_FILL">
<path fill="#FFFFFF" stroke="none" d="
M 11.5 4.75
L 11.55 4.75
Q 9 5.45 7.25 7.25
L 7.25 5.45
Q 7.25 4.75 6.75 4.25 6.2 3.7 5.5 3.7 4.8 3.7 4.3 4.25 3.75 4.75 3.75 5.45
L 3.75 11.6
Q 3.75 12.3 4.3 12.85 4.8 13.35 5.5 13.35
L 11.65 13.35
Q 12.35 13.35 12.9 12.85 13.4 12.3 13.4 11.6 13.4 10.9 12.9 10.4 12.35 9.85 11.65 9.85
L 9.7 9.85
Q 10.85 8.6 12.6 8.1 14.25 7.5 16 7.85
L 16 4.25
Q 13.7 3.95 11.5 4.75
M 21 22.6
L 21 24.4
Q 21 25.1 21.55 25.65 22.05 26.15 22.75 26.15 23.45 26.15 24 25.65 24.5 25.1 24.5 24.4
L 24.5 18.25
Q 24.5 17.55 24 17.05 23.45 16.5 22.75 16.5
L 16.6 16.5
Q 15.9 16.5 15.4 17.05 14.85 17.55 14.85 18.25 14.85 18.95 15.4 19.5 15.9 20 16.6 20
L 18.65 20
Q 17.4 21.25 15.8 21.8 13.7 22.4 11.65 21.85 9.65 21.3 8.2 19.7
L 8.25 19.7
Q 6.9 18.15 6.6 16.1 6.5 15.4 5.9 15 5.3 14.55 4.6 14.7 3.85 14.75 3.5 15.35 3.05 15.95 3.15 16.65 3.6 19.7 5.55 22 7.65 24.4 10.75 25.3 13.7 26.15 16.8 25.15 19.25 24.4 21 22.6
M 26.05 5.8
Q 25.55 5.3 24.85 5.2 24.1 5.2 23.65 5.7
L 21.75 7.5 19.9 5.7
Q 19.4 5.2 18.65 5.2 17.9 5.3 17.5 5.8 17 6.25 16.9 6.95 16.9 7.6 17.35 8.15
L 19.25 10 17.35 11.9
Q 16.9 12.5 16.95 13.15 16.95 13.75 17.5 14.3 17.95 14.8 18.7 14.9 19.35 14.9 19.9 14.4
L 21.75 12.55 23.65 14.4
Q 24.25 14.9 24.85 14.9 25.55 14.8 26 14.3 26.6 13.8 26.6 13.15 26.7 12.5 26.15 11.9
L 24.3 10 26.15 8.15
Q 26.65 7.55 26.6 6.95 26.6 6.35 26.05 5.8 Z"/>
</g>
</defs>

<g transform="matrix( 1, 0, 0, 1, 0,0) ">
<use xlink:href="#Layer1_0_FILL"/>
</g>
</svg>
