
<svg xmlns="http://www.w3.org/2000/svg" version="1.1" xmlns:xlink="http://www.w3.org/1999/xlink" preserveAspectRatio="none" x="0px" y="0px" width="32px" height="32px" viewBox="0 0 32 32">
<defs>
<g id="Layer0_0_MEMBER_0_FILL">
<path fill="#FFFFFF" stroke="none" d="
M 140.65 271.85
Q 140.65 270 139.35 268.7 138 267.4 136.15 267.4 134.3 267.4 133 268.7 131.7 270 131.7 271.85 131.7 273.7 133 275 134.3 276.3 136.15 276.3 138 276.3 139.35 275 140.65 273.7 140.65 271.85 Z"/>
</g>

<g id="Layer0_0_MEMBER_1_MEMBER_0_MEMBER_0_FILL">
<path fill="#FFFFFF" stroke="none" d="
M 144 279.85
Q 141.15 277.6 136.15 277.6 131.05 277.6 128.35 279.8 129.65 281.7 131.65 282.8 133.75 283.9 136.15 283.9 138.55 283.9 140.65 282.8 142.65 281.75 144 279.85 Z"/>
</g>
</defs>

<g transform="matrix( 1.15960693359375, 0, 0, 1.15960693359375, -141.85,-303.75) ">
<use xlink:href="#Layer0_0_MEMBER_0_FILL"/>
</g>

<g transform="matrix( 1.15960693359375, 0, 0, 1.15960693359375, -141.85,-303.75) ">
<use xlink:href="#Layer0_0_MEMBER_1_MEMBER_0_MEMBER_0_FILL"/>
</g>
</svg>
